<svg width="29" height="27" viewBox="0 0 29 27" fill="none" xmlns="http://www.w3.org/2000/svg">
<path d="M13.3992 25.8047H2.99922C2.65444 25.8047 2.32378 25.6467 2.07998 25.3653C1.83618 25.084 1.69922 24.7025 1.69922 24.3047V3.30469C1.69922 2.90686 1.83618 2.52533 2.07998 2.24403C2.32378 1.96272 2.65444 1.80469 2.99922 1.80469H13.3992C13.744 1.80469 14.0747 1.96272 14.3185 2.24403C14.5623 2.52533 14.6992 2.90686 14.6992 3.30469V24.3047C14.6992 24.7025 14.5623 25.084 14.3185 25.3653C14.0747 25.6467 13.744 25.8047 13.3992 25.8047ZM10.7992 1.80469H5.59922L6.24922 4.80469H10.1492L10.7992 1.80469Z" stroke="black" stroke-width="2" stroke-linecap="round" stroke-linejoin="round"/>
<path d="M19.3008 22.8047L21.9598 20.0808C22.1494 19.8865 22.1494 19.5765 21.9598 19.3822L19.6417 17.0076C19.4521 16.8134 19.4521 16.5033 19.6417 16.3091L21.9598 13.9344C22.1494 13.7402 22.1494 13.4301 21.9598 13.2359L19.6417 10.8613C19.4521 10.667 19.4521 10.357 19.6417 10.1627L21.9326 7.81603C22.1327 7.61101 22.12 7.28008 21.9047 7.09104L19.3008 4.80469" stroke="black" stroke-width="2" stroke-linecap="round"/>
<path d="M24.3008 22.8047L26.9598 20.0808C27.1494 19.8865 27.1494 19.5765 26.9598 19.3822L24.6417 17.0076C24.4521 16.8134 24.4521 16.5033 24.6417 16.3091L26.9598 13.9344C27.1494 13.7402 27.1494 13.4301 26.9598 13.2359L24.6417 10.8613C24.4521 10.667 24.4521 10.357 24.6417 10.1627L26.9326 7.81603C27.1327 7.61101 27.12 7.28008 26.9047 7.09104L24.3008 4.80469" stroke="black" stroke-width="2" stroke-linecap="round"/>
<path d="M6.09922 25.8047H13.4992C13.844 25.8047 14.1747 25.6467 14.4185 25.3653C14.6623 25.084 14.7992 24.7025 14.7992 24.3047V3.30469C14.7992 2.90686 14.6623 2.52533 14.4185 2.24403C14.1747 1.96272 13.844 1.80469 13.4992 1.80469H6.09922M10.8992 1.80469H5.69922L6.34922 4.80469H10.2492L10.8992 1.80469Z" stroke="black" stroke-width="2" stroke-linecap="round" stroke-linejoin="round"/>
</svg>
