<svg width="14" height="14" viewBox="0 0 14 14" fill="none" xmlns="http://www.w3.org/2000/svg">
<path id="Vector" d="M13.2812 7.14062C13.2812 7.35197 13.1973 7.55466 13.0479 7.7041C12.8984 7.85354 12.6957 7.9375 12.4844 7.9375H7.4375V12.9844C7.4375 13.1957 7.35354 13.3984 7.2041 13.5479C7.05466 13.6973 6.85197 13.7812 6.64062 13.7812C6.42928 13.7812 6.22659 13.6973 6.07715 13.5479C5.92771 13.3984 5.84375 13.1957 5.84375 12.9844V7.9375H0.796875C0.585531 7.9375 0.382842 7.85354 0.233399 7.7041C0.0839563 7.55466 0 7.35197 0 7.14062C0 6.92928 0.0839563 6.72659 0.233399 6.57715C0.382842 6.42771 0.585531 6.34375 0.796875 6.34375H5.84375V1.29688C5.84375 1.08553 5.92771 0.882842 6.07715 0.733399C6.22659 0.583956 6.42928 0.5 6.64062 0.5C6.85197 0.5 7.05466 0.583956 7.2041 0.733399C7.35354 0.882842 7.4375 1.08553 7.4375 1.29688V6.34375H12.4844C12.6957 6.34375 12.8984 6.42771 13.0479 6.57715C13.1973 6.72659 13.2812 6.92928 13.2812 7.14062Z" fill="#373737"/>
</svg>
