<svg width="24" height="31" viewBox="0 0 24 31" fill="none" xmlns="http://www.w3.org/2000/svg">
<path d="M13.1863 16.5785H13.1196V16.6452V23.4259C13.1196 24.3343 12.8047 25.1003 12.1741 25.7281C11.5424 26.3547 10.7715 26.6679 9.85714 26.6679C8.94283 26.6679 8.17189 26.3547 7.54018 25.7281C6.90959 25.1003 6.59467 24.3343 6.59467 23.4259C6.59467 22.5176 6.90959 21.7516 7.54018 21.1238C8.17189 20.4971 8.94283 20.184 9.85714 20.184C10.249 20.184 10.6074 20.2541 10.9332 20.3933L10.9333 20.3933C11.2599 20.5324 11.5551 20.7442 11.819 21.0298L11.9347 21.1549V20.9845V14.0881H17.8013V16.5785H13.1863ZM0.840657 0.836152L0.840759 0.83605C1.35548 0.323399 1.9965 0.0666667 2.76857 0.0666667H16.2582L23.9333 7.6944V27.9152C23.9333 28.6822 23.6757 29.3191 23.161 29.8306C22.6451 30.3433 22.0035 30.6 21.2314 30.6H2.76857C1.99645 30.6 1.35542 30.3438 0.840708 29.8323C0.324848 29.3196 0.0666667 28.6821 0.0666667 27.9152V2.75148C0.0666667 1.98453 0.324845 1.34767 0.840657 0.836152ZM22.2857 8.45185H15.4952V1.7037V1.63704H15.4286H2.76857C2.48504 1.63704 2.2272 1.75538 1.99656 1.98341L1.99631 1.98365C1.76688 2.21285 1.64762 2.46929 1.64762 2.75148V27.9152C1.64762 28.1974 1.76688 28.4538 1.99631 28.683L1.99656 28.6833C2.2272 28.9113 2.48504 29.0296 2.76857 29.0296H21.2314C21.515 29.0296 21.7728 28.9113 22.0034 28.6833L22.0037 28.683C22.2331 28.4538 22.3524 28.1974 22.3524 27.9152V8.51852V8.45185H22.2857Z" fill="black" stroke="#FFFDFE" stroke-width="0.133333"/>
</svg>
