<svg width="111" height="10" viewBox="0 0 111 10" fill="none" xmlns="http://www.w3.org/2000/svg">
<rect x="0.729059" y="0.48736" width="3.81412" height="8.60296" rx="1.90706" fill="black" stroke="black" stroke-width="0.974719"/>
<rect x="10.2092" y="0.389888" width="4.00906" height="8.7979" rx="2.00453" fill="black" stroke="black" stroke-width="0.779775"/>
<rect x="19.7869" y="0.389888" width="4.00906" height="8.7979" rx="2.00453" fill="black" stroke="black" stroke-width="0.779775"/>
<rect x="29.3643" y="0.389888" width="4.00906" height="8.7979" rx="2.00453" fill="black" stroke="black" stroke-width="0.779775"/>
<rect x="38.9421" y="0.389888" width="4.00906" height="8.7979" rx="2.00453" stroke="black" stroke-width="0.779775"/>
<rect x="48.5198" y="0.389888" width="4.00906" height="8.7979" rx="2.00453" stroke="black" stroke-width="0.779775"/>
<rect x="58.0974" y="0.389888" width="4.00906" height="8.7979" rx="2.00453" stroke="black" stroke-width="0.779775"/>
<rect x="67.6753" y="0.389888" width="4.00906" height="8.7979" rx="2.00453" stroke="black" stroke-width="0.779775"/>
<rect x="77.2532" y="0.389888" width="4.00906" height="8.7979" rx="2.00453" stroke="black" stroke-width="0.779775"/>
<rect x="86.8303" y="0.389888" width="4.00906" height="8.7979" rx="2.00453" stroke="black" stroke-width="0.779775"/>
<rect x="96.4082" y="0.389888" width="4.00906" height="8.7979" rx="2.00453" stroke="black" stroke-width="0.779775"/>
<rect x="105.986" y="0.389888" width="4.00906" height="8.7979" rx="2.00453" stroke="black" stroke-width="0.779775"/>
</svg>
