<svg width="35" height="36" viewBox="0 0 35 36" fill="none" xmlns="http://www.w3.org/2000/svg">
<path d="M31.3533 5.95752H28.1936V7.94334H31.1103V29.7873H3.88805V7.94334H6.80472V5.95752H3.645C3.41773 5.9614 3.19343 6.01096 2.98492 6.10339C2.77641 6.19581 2.58778 6.32927 2.42978 6.49616C2.27179 6.66305 2.14753 6.86009 2.06411 7.07603C1.98069 7.29197 1.93975 7.52258 1.94361 7.75468V29.976C1.93975 30.2081 1.98069 30.4387 2.06411 30.6546C2.14753 30.8706 2.27179 31.0676 2.42978 31.2345C2.58778 31.4014 2.77641 31.5348 2.98492 31.6273C3.19343 31.7197 3.41773 31.7692 3.645 31.7731H31.3533C31.5806 31.7692 31.8049 31.7197 32.0134 31.6273C32.2219 31.5348 32.4106 31.4014 32.5686 31.2345C32.7265 31.0676 32.8508 30.8706 32.9342 30.6546C33.0176 30.4387 33.0586 30.2081 33.0547 29.976V7.75468C33.0586 7.52258 33.0176 7.29197 32.9342 7.07603C32.8508 6.86009 32.7265 6.66305 32.5686 6.49616C32.4106 6.32927 32.2219 6.19581 32.0134 6.10339C31.8049 6.01096 31.5806 5.9614 31.3533 5.95752Z" fill="black"/>
<path d="M7.77734 13.9006H9.72179V15.8865H7.77734V13.9006Z" fill="black"/>
<path d="M13.6113 13.9006H15.5558V15.8865H13.6113V13.9006Z" fill="black"/>
<path d="M19.4453 13.9006H21.3898V15.8865H19.4453V13.9006Z" fill="black"/>
<path d="M25.2773 13.9006H27.2218V15.8865H25.2773V13.9006Z" fill="black"/>
<path d="M7.77734 18.8655H9.72179V20.8513H7.77734V18.8655Z" fill="black"/>
<path d="M13.6113 18.8655H15.5558V20.8513H13.6113V18.8655Z" fill="black"/>
<path d="M19.4453 18.8655H21.3898V20.8513H19.4453V18.8655Z" fill="black"/>
<path d="M25.2773 18.8655H27.2218V20.8513H25.2773V18.8655Z" fill="black"/>
<path d="M7.77734 23.8298H9.72179V25.8156H7.77734V23.8298Z" fill="black"/>
<path d="M13.6113 23.8298H15.5558V25.8156H13.6113V23.8298Z" fill="black"/>
<path d="M19.4453 23.8298H21.3898V25.8156H19.4453V23.8298Z" fill="black"/>
<path d="M25.2773 23.8298H27.2218V25.8156H25.2773V23.8298Z" fill="black"/>
<path d="M9.72222 9.92886C9.98007 9.92886 10.2274 9.82425 10.4097 9.63804C10.592 9.45184 10.6944 9.19929 10.6944 8.93595V2.9785C10.6944 2.71517 10.592 2.46262 10.4097 2.27641C10.2274 2.09021 9.98007 1.9856 9.72222 1.9856C9.46437 1.9856 9.21708 2.09021 9.03476 2.27641C8.85243 2.46262 8.75 2.71517 8.75 2.9785V8.93595C8.75 9.19929 8.85243 9.45184 9.03476 9.63804C9.21708 9.82425 9.46437 9.92886 9.72222 9.92886Z" fill="black"/>
<path d="M25.2769 9.92886C25.5348 9.92886 25.782 9.82425 25.9644 9.63804C26.1467 9.45184 26.2491 9.19929 26.2491 8.93595V2.9785C26.2491 2.71517 26.1467 2.46262 25.9644 2.27641C25.782 2.09021 25.5348 1.9856 25.2769 1.9856C25.0191 1.9856 24.7718 2.09021 24.5894 2.27641C24.4071 2.46262 24.3047 2.71517 24.3047 2.9785V8.93595C24.3047 9.19929 24.4071 9.45184 24.5894 9.63804C24.7718 9.82425 25.0191 9.92886 25.2769 9.92886Z" fill="black"/>
<path d="M12.6387 5.95752H22.3609V7.94334H12.6387V5.95752Z" fill="black"/>
</svg>
