<svg width="37" height="37" viewBox="0 0 37 37" fill="none" xmlns="http://www.w3.org/2000/svg">
<circle cx="18.5" cy="18.5" r="18.25" fill="#F1CAD4" fill-opacity="0.4" stroke="#E495A9" stroke-width="0.5"/>
<path d="M26.1161 12H14.8839C13.2912 12 12 13.2912 12 14.8839V26.1161C12 27.7088 13.2912 29 14.8839 29H26.1161C27.7088 29 29 27.7088 29 26.1161V14.8839C29 13.2912 27.7088 12 26.1161 12Z" stroke="black" stroke-width="0.985075" stroke-linejoin="round"/>
<path d="M24.9747 12.0476L25 10.8333C24.9979 10.0825 24.6987 9.36311 24.1678 8.83222C23.6369 8.30133 22.9175 8.00214 22.1667 8H11.2381C10.3801 8.00254 9.55793 8.34451 8.95122 8.95122C8.34451 9.55793 8.00254 10.3801 8 11.2381V22.1667C8.00214 22.9175 8.30133 23.6369 8.83222 24.1678C9.36311 24.6987 10.0825 24.9979 10.8333 25H12.0476M20.5476 16.5V24.5952M24.5952 20.5476H16.5" stroke="black" stroke-width="0.985075" stroke-linecap="round" stroke-linejoin="round"/>
</svg>
