<svg width="37" height="37" viewBox="0 0 37 37" fill="none" xmlns="http://www.w3.org/2000/svg">
<circle cx="18.5" cy="18.5" r="18.25" fill="#F1CAD4" fill-opacity="0.4" stroke="#E495A9" stroke-width="0.5"/>
<path d="M27.6164 9.51123C27.2882 9.16589 26.8941 8.88976 26.4575 8.69909C26.0209 8.50842 25.5505 8.40708 25.0741 8.40104C24.5977 8.395 24.1249 8.48439 23.6836 8.66393C23.2422 8.84346 22.8413 9.10952 22.5044 9.44643L11.2544 20.6964C10.8616 21.0896 10.5889 21.5866 10.4684 22.1292L9.41483 26.8692C9.39279 26.9679 9.39602 27.0704 9.42422 27.1675C9.45242 27.2645 9.50467 27.3529 9.57613 27.4243C9.64758 27.4958 9.73593 27.548 9.83297 27.5762C9.93001 27.6044 10.0326 27.6077 10.1312 27.5856L14.8424 26.538C15.4034 26.4132 15.917 26.1309 16.3232 25.7244L25.8992 16.1484L26.3036 16.5516C26.5286 16.7767 26.655 17.0818 26.655 17.4C26.655 17.7182 26.5286 18.0234 26.3036 18.2484L25.1756 19.3764C25.0665 19.4897 25.0062 19.6414 25.0078 19.7987C25.0094 19.956 25.0727 20.1064 25.1841 20.2175C25.2955 20.3286 25.4461 20.3915 25.6034 20.3927C25.7607 20.3938 25.9122 20.3331 26.0252 20.2236L27.152 19.0956C27.602 18.6456 27.8547 18.0352 27.8547 17.3988C27.8547 16.7624 27.602 16.1521 27.152 15.702L26.7488 15.2988L27.5528 14.4948C28.211 13.8363 28.586 12.9467 28.5976 12.0157C28.6093 11.0847 28.258 10.186 27.6164 9.51123ZM23.3516 10.2948C23.7972 9.85563 24.3983 9.61041 25.0239 9.61266C25.6495 9.6149 26.2489 9.86442 26.6913 10.3068C27.1336 10.7492 27.3832 11.3485 27.3854 11.9741C27.3876 12.5998 27.1424 13.2009 26.7032 13.6464L15.4748 24.876C15.23 25.1212 14.9203 25.2915 14.582 25.3668L10.79 26.2092L11.6396 22.3896C11.7105 22.0694 11.8717 21.7763 12.104 21.5448L23.3516 10.2948Z" fill="black"/>
</svg>
