<svg width="37" height="37" viewBox="0 0 37 37" fill="none" xmlns="http://www.w3.org/2000/svg">
<circle cx="18.5" cy="18.5" r="18.25" fill="#F1CAD4" fill-opacity="0.4" stroke="#E495A9" stroke-width="0.5"/>
<path d="M8 11.3333H29.3333M16 16.6667V24.6667M21.3333 16.6667V24.6667M9.33333 11.3333L10.6667 27.3333C10.6667 28.0406 10.9476 28.7189 11.4477 29.219C11.9478 29.719 12.6261 30 13.3333 30H24C24.7072 30 25.3855 29.719 25.8856 29.219C26.3857 28.7189 26.6667 28.0406 26.6667 27.3333L28 11.3333M14.6667 11.3333V7.33333C14.6667 6.97971 14.8071 6.64057 15.0572 6.39052C15.3072 6.14048 15.6464 6 16 6H21.3333C21.687 6 22.0261 6.14048 22.2761 6.39052C22.5262 6.64057 22.6667 6.97971 22.6667 7.33333V11.3333" stroke="black" stroke-linecap="round" stroke-linejoin="round"/>
</svg>
