<svg width="27" height="27" viewBox="0 0 27 27" fill="none" xmlns="http://www.w3.org/2000/svg">
<path d="M19.722 22.3988H7.27946C5.92946 22.3763 4.6357 21.8137 3.6907 20.8462C2.7457 19.8675 2.2282 18.5625 2.2507 17.2125V8.56125C2.2282 7.21125 2.7457 5.89501 3.6907 4.92751C4.6357 3.94876 5.92946 3.3975 7.27946 3.375H18.7432C20.0932 3.3975 21.387 3.96001 22.332 4.92751C23.277 5.90626 23.7945 7.21125 23.772 8.56125V18.945L24.7507 24.1425L19.722 22.41V22.3988Z" stroke="#3B3B3D" stroke-width="1.5" stroke-linejoin="round"/>
<path d="M8.13454 12.0146C8.51704 12.0146 8.83204 12.3297 8.83204 12.7122C8.83204 13.0947 8.51704 13.4096 8.13454 13.4096C7.75204 13.4096 7.43701 13.0947 7.43701 12.7122C7.43701 12.3297 7.75204 12.0146 8.13454 12.0146Z" stroke="#3B3B3D" stroke-width="1.2" stroke-miterlimit="10"/>
<path d="M13.332 13.3989C13.7145 13.3989 14.0295 13.0839 14.0295 12.7014C14.0295 12.3189 13.7145 12.0039 13.332 12.0039C12.9495 12.0039 12.6345 12.3189 12.6345 12.7014C12.6345 13.0839 12.9495 13.3989 13.332 13.3989Z" stroke="#3B3B3D" stroke-width="1.2" stroke-miterlimit="10"/>
<path d="M18.5183 13.3989C18.9008 13.3989 19.2158 13.0839 19.2158 12.7014C19.2158 12.3189 18.9008 12.0039 18.5183 12.0039C18.1358 12.0039 17.8208 12.3189 17.8208 12.7014C17.8208 13.0839 18.1358 13.3989 18.5183 13.3989Z" stroke="#3B3B3D" stroke-width="1.2" stroke-miterlimit="10"/>
</svg>
