<svg width="20" height="26" viewBox="0 0 20 26" fill="none" xmlns="http://www.w3.org/2000/svg">
<path d="M18.2812 23.6364H17.0625V21.6663C17.0587 20.99 16.9352 20.3193 16.6974 19.6835C16.6841 19.6488 16.6701 19.6166 16.6537 19.5836C16.4563 19.0617 16.1836 18.5696 15.8437 18.122L14.1376 15.9153C13.6642 15.3006 13.4078 14.5543 13.4062 13.7871V12.5937C13.409 11.6541 13.7937 10.7534 14.4768 10.0869L15.2778 9.31022C16.2085 8.40288 16.8063 7.22442 16.9796 5.95577C16.9802 5.93933 16.9893 5.92562 16.9893 5.90903L16.9859 5.89281C17.0282 5.64117 17.0538 5.38715 17.0625 5.13232V2.36364H18.2812C18.6045 2.36364 18.9145 2.23912 19.143 2.01749C19.3716 1.79586 19.5 1.49526 19.5 1.18182C19.5 0.868381 19.3716 0.56778 19.143 0.346147C18.9145 0.124513 18.6045 0 18.2812 0H1.21876C0.895529 0 0.585535 0.124513 0.356975 0.346147C0.128416 0.56778 1.2204e-05 0.868381 1.2204e-05 1.18182C1.2204e-05 1.49526 0.128416 1.79586 0.356975 2.01749C0.585535 2.23912 0.895529 2.36364 1.21876 2.36364H2.43751V5.13232C2.44617 5.38715 2.47176 5.64117 2.51413 5.89281L2.5107 5.90909C2.5107 5.92564 2.51976 5.93939 2.52045 5.95583C2.6937 7.22448 3.29154 8.40293 4.22219 9.31028L5.02318 10.087C5.70628 10.7534 6.09094 11.6541 6.09375 12.5937V13.7871C6.09216 14.5542 5.83593 15.3004 5.36297 15.9153L3.65565 18.1219C3.31592 18.5698 3.04331 19.0621 2.84595 19.5841C2.82974 19.6168 2.81582 19.6486 2.80266 19.6829C2.56483 20.3189 2.44132 20.9898 2.4375 21.6663V23.6364H1.21875C0.895517 23.6364 0.585523 23.7609 0.356963 23.9825C0.128403 24.2041 0 24.5047 0 24.8182C0 25.1316 0.128403 25.4322 0.356963 25.6539C0.585523 25.8755 0.895517 26 1.21875 26H18.2812C18.6045 26 18.9145 25.8755 19.143 25.6539C19.3716 25.4322 19.5 25.1316 19.5 24.8182C19.5 24.5047 19.3716 24.2041 19.143 23.9825C18.9145 23.7609 18.6045 23.6364 18.2812 23.6364ZM4.875 4.72727V2.36364H14.625V4.72727H4.875ZM5.94557 7.63912C5.77384 7.47182 5.61995 7.28816 5.48624 7.09091H14.0138C13.88 7.28815 13.7261 7.47182 13.5544 7.63912L12.7534 8.41585C11.8028 9.33229 11.1932 10.5291 11.0205 11.8182H8.47942C8.30681 10.5291 7.69723 9.3322 6.74656 8.41573L5.94557 7.63912ZM7.31309 17.3325C8.01828 16.4163 8.43643 15.3224 8.51756 14.1818H10.9824C11.0635 15.3225 11.4819 16.4164 12.1875 17.3325L13.4064 18.9091H6.09329L7.31309 17.3325ZM14.625 23.6364H4.875V21.6663C4.87839 21.5346 4.88946 21.4032 4.90817 21.2727H14.5918C14.6105 21.4032 14.6216 21.5346 14.625 21.6663V23.6364Z" fill="black"/>
</svg>
