<svg width="30" height="26" viewBox="0 0 30 26" fill="none" xmlns="http://www.w3.org/2000/svg">
<mask id="path-1-inside-1_5848_2316" fill="white">
<path fill-rule="evenodd" clip-rule="evenodd" d="M28.2367 13C28.2367 19.276 23.149 24.3636 16.873 24.3636C15.2569 24.3636 13.7195 24.0262 12.3275 23.418V24.6478C13.7363 25.198 15.2694 25.5 16.873 25.5C23.7766 25.5 29.373 19.9036 29.373 13C29.373 6.09644 23.7766 0.5 16.873 0.5C9.96949 0.5 4.37305 6.09644 4.37305 13C4.37305 14.6036 4.67501 16.1367 5.22518 17.5455H6.45496C5.84679 16.1535 5.50941 14.6161 5.50941 13C5.50941 6.72404 10.5971 1.63636 16.873 1.63636C23.149 1.63636 28.2367 6.72404 28.2367 13Z"/>
</mask>
<path fill-rule="evenodd" clip-rule="evenodd" d="M28.2367 13C28.2367 19.276 23.149 24.3636 16.873 24.3636C15.2569 24.3636 13.7195 24.0262 12.3275 23.418V24.6478C13.7363 25.198 15.2694 25.5 16.873 25.5C23.7766 25.5 29.373 19.9036 29.373 13C29.373 6.09644 23.7766 0.5 16.873 0.5C9.96949 0.5 4.37305 6.09644 4.37305 13C4.37305 14.6036 4.67501 16.1367 5.22518 17.5455H6.45496C5.84679 16.1535 5.50941 14.6161 5.50941 13C5.50941 6.72404 10.5971 1.63636 16.873 1.63636C23.149 1.63636 28.2367 6.72404 28.2367 13Z" fill="#373737"/>
<path d="M12.3275 23.418L12.919 22.0643L10.8502 21.1605V23.418H12.3275ZM12.3275 24.6478H10.8502V25.6568L11.7901 26.0239L12.3275 24.6478ZM5.22518 17.5455L3.84912 18.0828L4.21617 19.0227H5.22518V17.5455ZM6.45496 17.5455V19.0227H8.71253L7.80867 16.954L6.45496 17.5455ZM16.873 25.8409C23.9649 25.8409 29.714 20.0918 29.714 13H26.7594C26.7594 18.4601 22.3331 22.8864 16.873 22.8864V25.8409ZM11.736 24.7717C13.311 25.4599 15.0495 25.8409 16.873 25.8409V22.8864C15.4642 22.8864 14.1279 22.5926 12.919 22.0643L11.736 24.7717ZM10.8502 23.418V24.6478H13.8048V23.418H10.8502ZM11.7901 26.0239C13.3674 26.6399 15.0826 26.9773 16.873 26.9773V24.0227C15.4562 24.0227 14.1052 23.7562 12.8649 23.2718L11.7901 26.0239ZM16.873 26.9773C24.5925 26.9773 30.8503 20.7194 30.8503 13H27.8958C27.8958 19.0877 22.9607 24.0227 16.873 24.0227V26.9773ZM30.8503 13C30.8503 5.28057 24.5925 -0.977273 16.873 -0.977273V1.97727C22.9607 1.97727 27.8958 6.91232 27.8958 13H30.8503ZM16.873 -0.977273C9.15361 -0.977273 2.89577 5.28057 2.89577 13H5.85032C5.85032 6.91232 10.7854 1.97727 16.873 1.97727V-0.977273ZM2.89577 13C2.89577 14.7904 3.23314 16.5056 3.84912 18.0828L6.60124 17.0081C6.11688 15.7678 5.85032 14.4168 5.85032 13H2.89577ZM5.22518 19.0227H6.45496V16.0682H5.22518V19.0227ZM4.03214 13C4.03214 14.8235 4.41313 16.5619 5.10126 18.1369L7.80867 16.954C7.28045 15.745 6.98668 14.4088 6.98668 13H4.03214ZM16.873 0.159091C9.78121 0.159091 4.03214 5.90816 4.03214 13H6.98668C6.98668 7.53991 11.413 3.11364 16.873 3.11364V0.159091ZM29.714 13C29.714 5.90816 23.9649 0.159091 16.873 0.159091V3.11364C22.3331 3.11364 26.7594 7.53991 26.7594 13H29.714Z" fill="#373737" mask="url(#path-1-inside-1_5848_2316)"/>
<path d="M6.48088 18.5162L0.964844 15.2153" stroke="#373737" stroke-width="1.47727" stroke-linecap="round"/>
<path d="M6.48039 18.516L9.78125 13" stroke="#373737" stroke-width="1.47727" stroke-linecap="round"/>
<path d="M16.873 7.31836V15.2729L21.9867 18.1138" stroke="#373737" stroke-width="1.47727" stroke-linecap="round"/>
<path d="M6.64613 18.1136H6.07795L6.06463 18.1003L6.64613 18.1136Z" fill="#373737"/>
<path d="M5.50977 17.5454L6.06463 18.1003M6.06463 18.1003L6.07795 18.1136H6.64613L6.06463 18.1003Z" stroke="#373737" stroke-width="1.47727" stroke-linecap="round"/>
</svg>
