<svg width="34" height="26" viewBox="0 0 34 26" fill="none" xmlns="http://www.w3.org/2000/svg">
<path d="M16.9935 2.90625C17.5322 2.90615 18.0696 2.95953 18.5978 3.06563C20.267 3.3853 21.802 4.19799 23.0046 5.39876C24.2073 6.59953 25.0224 8.13324 25.3447 9.80188L25.621 11.2363L27.0553 11.4913C28.5041 11.7404 29.8057 12.5265 30.7007 13.6926C31.5957 14.8588 32.0183 16.3195 31.8842 17.7834C31.7502 19.2473 31.0693 20.6069 29.9774 21.5911C28.8855 22.5753 27.4628 23.1119 25.9928 23.0938H7.96221C6.4923 23.1119 5.06956 22.5753 3.97765 21.5911C2.88573 20.6069 2.20488 19.2473 2.07082 17.7834C1.93676 16.3195 2.35936 14.8588 3.25434 13.6926C4.14933 12.5265 5.45096 11.7404 6.89971 11.4913L8.32346 11.2363L8.59971 9.80188C8.97416 7.85357 10.0183 6.09762 11.5513 4.83824C13.0843 3.57886 15.0095 2.8954 16.9935 2.90625ZM16.9935 0.781254C14.5206 0.779199 12.1245 1.63974 10.218 3.2146C8.31147 4.78946 7.01398 6.98 6.54909 9.40875C4.59232 9.76303 2.83871 10.8361 1.63271 12.4173C0.426713 13.9984 -0.14453 15.9734 0.0311871 17.9542C0.206904 19.935 1.11688 21.7785 2.58238 23.1227C4.04789 24.4668 5.96301 25.2145 7.95159 25.2188H26.0141C28.0027 25.2145 29.9178 24.4668 31.3833 23.1227C32.8488 21.7785 33.7588 19.935 33.9345 17.9542C34.1102 15.9734 33.539 13.9984 32.333 12.4173C31.127 10.8361 29.3734 9.76303 27.4166 9.40875C27.0164 7.31968 25.9984 5.39881 24.4943 3.89475C22.9903 2.39069 21.0694 1.37269 18.9803 0.972503C18.3253 0.848185 17.6602 0.784168 16.9935 0.781254Z" fill="#373737"/>
<path d="M11.3262 14.83L15.1039 18.6078L22.6595 11.0522" stroke="#373737" stroke-width="1.3" stroke-linecap="round" stroke-linejoin="round"/>
</svg>
