<svg width="27" height="26" viewBox="0 0 27 26" fill="none" xmlns="http://www.w3.org/2000/svg">
<path fill-rule="evenodd" clip-rule="evenodd" d="M8.59637 5.45293C8.4339 5.61545 8.34262 5.83585 8.34262 6.06566C8.34262 6.29547 8.4339 6.51587 8.59637 6.67839L12.8864 10.9684C13.0489 11.1309 13.2693 11.2221 13.4991 11.2221C13.7289 11.2221 13.9493 11.1309 14.1118 10.9684L18.4018 6.67839C18.5643 6.51587 18.6556 6.29547 18.6556 6.06566C18.6556 5.83585 18.5643 5.61545 18.4018 5.45293L14.1118 1.16293C13.9493 1.00045 13.7289 0.90918 13.4991 0.90918C13.2693 0.90918 13.0489 1.00045 12.8864 1.16293L8.59637 5.45293ZM13.5 9.13106L10.4354 6.06653L13.5 3.00199L16.5628 6.06653L13.5 9.13106ZM15.528 12.3863C15.3655 12.5488 15.2742 12.7692 15.2742 12.999C15.2742 13.2288 15.3655 13.4492 15.528 13.6117L19.818 17.9017C19.9805 18.0642 20.2009 18.1555 20.4307 18.1555C20.6605 18.1555 20.8809 18.0642 21.0434 17.9017L25.3334 13.6117C25.4959 13.4492 25.5872 13.2288 25.5872 12.999C25.5872 12.7692 25.4959 12.5488 25.3334 12.3863L21.0434 8.09626C20.8809 7.93379 20.6605 7.84251 20.4307 7.84251C20.2009 7.84251 19.9805 7.93379 19.818 8.09626L15.528 12.3863ZM20.4333 16.0644L17.3688 12.9999L20.4333 9.93533L23.4978 12.9999L20.4333 16.0644ZM8.59464 20.5451C8.43216 20.3825 8.34089 20.1621 8.34089 19.9323C8.34089 19.7025 8.43216 19.4821 8.59464 19.3196L12.8846 15.0296C13.0472 14.8671 13.2676 14.7758 13.4974 14.7758C13.7272 14.7758 13.9476 14.8671 14.1101 15.0296L18.4001 19.3196C18.5626 19.4821 18.6539 19.7025 18.6539 19.9323C18.6539 20.1621 18.5626 20.3825 18.4001 20.5451L14.1101 24.8351C13.9476 24.9975 13.7272 25.0888 13.4974 25.0888C13.2676 25.0888 13.0472 24.9975 12.8846 24.8351L8.59464 20.5468V20.5451ZM10.4337 19.9332L13.5 22.9977L16.5628 19.9332L13.5 16.8687L10.4354 19.9332H10.4337ZM1.66477 12.3863C1.58406 12.4668 1.52003 12.5624 1.47634 12.6677C1.43265 12.773 1.41016 12.8859 1.41016 12.9999C1.41016 13.1139 1.43265 13.2267 1.47634 13.332C1.52003 13.4373 1.58406 13.533 1.66477 13.6135L5.95304 17.9017C6.11556 18.0642 6.33596 18.1555 6.56577 18.1555C6.79558 18.1555 7.01598 18.0642 7.17851 17.9017L11.4685 13.6135C11.5492 13.533 11.6133 13.4373 11.6569 13.332C11.7006 13.2267 11.7231 13.1139 11.7231 12.9999C11.7231 12.8859 11.7006 12.773 11.6569 12.6677C11.6133 12.5624 11.5492 12.4668 11.4685 12.3863L7.17851 8.09799C7.01598 7.93552 6.79558 7.84425 6.56577 7.84425C6.33596 7.84425 6.11556 7.93552 5.95304 8.09799L1.66477 12.3863ZM6.56664 16.0644L3.50211 12.9999L6.56664 9.93533L9.62944 12.9999L6.56664 16.0644Z" fill="black"/>
</svg>
