<svg width="29" height="29" viewBox="0 0 29 29" fill="none" xmlns="http://www.w3.org/2000/svg">
<path d="M20.7359 11.1771C21.1099 10.7706 21.0835 10.138 20.6771 9.76406C20.2706 9.39014 19.638 9.4165 19.2641 9.82295L20.7359 11.1771ZM13.2992 17.7835L12.6923 18.5783C13.1031 18.892 13.6852 18.841 14.0352 18.4606L13.2992 17.7835ZM9.60697 13.7053C9.16805 13.3701 8.54049 13.4541 8.20527 13.893C7.87005 14.3319 7.95412 14.9595 8.39303 15.2947L9.60697 13.7053ZM19.2641 9.82295L12.5633 17.1065L14.0352 18.4606L20.7359 11.1771L19.2641 9.82295ZM13.9062 16.9888L9.60697 13.7053L8.39303 15.2947L12.6923 18.5783L13.9062 16.9888ZM27 14.5C27 21.4036 21.4036 27 14.5 27V29C22.5081 29 29 22.5081 29 14.5H27ZM14.5 27C7.59644 27 2 21.4036 2 14.5H0C0 22.5081 6.49187 29 14.5 29V27ZM2 14.5C2 7.59644 7.59644 2 14.5 2V0C6.49187 0 0 6.49187 0 14.5H2ZM14.5 2C21.4036 2 27 7.59644 27 14.5H29C29 6.49187 22.5081 0 14.5 0V2Z" fill="black"/>
</svg>
