<svg width="21" height="20" viewBox="0 0 21 20" fill="none" xmlns="http://www.w3.org/2000/svg">
<path d="M10.5 2C11.7081 2.0007 12.9004 2.27501 13.9873 2.80234C15.0743 3.32967 16.0277 4.09633 16.776 5.04479C17.5243 5.99324 18.0481 7.09886 18.308 8.27868C18.5679 9.45849 18.5573 10.6819 18.2769 11.857C17.9964 13.0321 17.4535 14.1284 16.6888 15.0637C15.9241 15.999 14.9575 16.749 13.8616 17.2573C12.7656 17.7657 11.5688 18.0192 10.3608 17.9989C9.15289 17.9785 7.96524 17.6849 6.887 17.14L6.766 17.075L3.121 17.985C3.05085 18.0026 2.97771 18.0048 2.90662 17.9915C2.83554 17.9781 2.7682 17.9495 2.70926 17.9075C2.65032 17.8656 2.60117 17.8114 2.56522 17.7486C2.52926 17.6859 2.50735 17.6161 2.501 17.544V17.462L2.515 17.379L3.425 13.735L3.362 13.615C2.90438 12.7142 2.62269 11.7343 2.532 10.728L2.507 10.346L2.5 10C2.5 7.87827 3.34285 5.84344 4.84315 4.34315C6.34344 2.84285 8.37827 2 10.5 2ZM10.5 3C9.27846 2.9998 8.07814 3.31926 7.0183 3.92664C5.95847 4.53402 5.07603 5.40816 4.45866 6.46221C3.8413 7.51626 3.51051 8.71351 3.49917 9.93499C3.48782 11.1565 3.79632 12.3597 4.394 13.425C4.4404 13.5078 4.46225 13.6022 4.457 13.697L4.443 13.791L3.687 16.812L6.711 16.058C6.77248 16.0428 6.83626 16.0394 6.899 16.048L6.99 16.069L7.077 16.108C8.01034 16.6305 9.05102 16.9322 10.1191 16.9898C11.1872 17.0475 12.2543 16.8596 13.2385 16.4406C14.2226 16.0216 15.0977 15.3826 15.7964 14.5727C16.4952 13.7628 16.999 12.8036 17.2693 11.7687C17.5395 10.7337 17.569 9.6506 17.3555 8.60249C17.1419 7.55437 16.691 6.56914 16.0374 5.72244C15.3837 4.87574 14.5448 4.1901 13.5849 3.71816C12.6249 3.24622 11.5696 3.00055 10.5 3ZM11 11C11.1249 10.9998 11.2455 11.0463 11.3378 11.1305C11.4301 11.2147 11.4876 11.3304 11.4989 11.4548C11.5102 11.5793 11.4745 11.7034 11.3988 11.8028C11.3231 11.9023 11.2129 11.9697 11.09 11.992L11 12H8C7.87505 12.0002 7.75455 11.9537 7.66222 11.8695C7.56988 11.7853 7.51241 11.6696 7.50112 11.5452C7.48984 11.4207 7.52554 11.2966 7.60122 11.1972C7.6769 11.0977 7.78705 11.0303 7.91 11.008L8 11H11ZM13 8C13.1249 7.99977 13.2455 8.04633 13.3378 8.13051C13.4301 8.21469 13.4876 8.33039 13.4989 8.45482C13.5102 8.57926 13.4745 8.70341 13.3988 8.80283C13.3231 8.90225 13.2129 8.96974 13.09 8.992L13 9H8C7.87505 9.00023 7.75455 8.95367 7.66222 8.86949C7.56988 8.78531 7.51241 8.66961 7.50112 8.54518C7.48984 8.42074 7.52554 8.29659 7.60122 8.19717C7.6769 8.09775 7.78705 8.03026 7.91 8.008L8 8H13Z" fill="black"/>
</svg>
