<svg width="22" height="22" viewBox="0 0 22 22" fill="none" xmlns="http://www.w3.org/2000/svg">
<path d="M11 16.3655L5.693 11.057L6.7535 9.9785L10.25 13.475V0.5H11.75V13.475L15.245 9.98L16.307 11.057L11 16.3655ZM2.9225 21.5C2.2325 21.5 1.6565 21.269 1.1945 20.807C0.7315 20.344 0.5 19.7675 0.5 19.0775V15.443H2V19.0775C2 19.3075 2.096 19.519 2.288 19.712C2.481 19.904 2.6925 20 2.9225 20H19.0775C19.3075 20 19.519 19.904 19.712 19.712C19.904 19.519 20 19.3075 20 19.0775V15.443H21.5V19.0775C21.5 19.7675 21.269 20.3435 20.807 20.8055C20.344 21.2685 19.7675 21.5 19.0775 21.5H2.9225Z" fill="#373737"/>
</svg>
