<svg width="28" height="19" viewBox="0 0 28 19" fill="none" xmlns="http://www.w3.org/2000/svg">
<path d="M13.7402 5.74039L17.735 8.74652L17.754 8.58906C17.754 7.00963 16.0483 5.72607 13.9495 5.72607L13.7402 5.74039Z" fill="#373737"/>
<path d="M13.9501 3.81745C17.4503 3.81745 20.291 5.95516 20.291 8.58911C20.291 9.20465 20.1262 9.79156 19.8408 10.3307L23.5502 13.1222C25.4652 11.9197 26.9743 10.3642 27.9064 8.58911C25.7062 4.39962 20.2974 1.43164 13.9502 1.43164C12.1747 1.43164 10.4754 1.67021 8.89648 2.09966L11.6357 4.15622C12.3522 3.94628 13.1321 3.81745 13.9501 3.81745Z" fill="#373737"/>
<path d="M1.26816 1.21677L4.1596 3.39264L4.73664 3.82687C2.64415 5.05796 0.989178 6.69464 0 8.58896C2.19397 12.7784 7.60906 15.7464 13.95 15.7464C15.9157 15.7464 17.7925 15.4601 19.5109 14.94L20.0499 15.3456L23.7467 18.1322L25.3636 16.9202L2.88508 0L1.26816 1.21677ZM8.28121 6.48945L10.2405 7.96389C10.1835 8.16908 10.1454 8.37423 10.1454 8.58896C10.1454 10.1684 11.8511 11.4519 13.95 11.4519C14.2353 11.4519 14.508 11.4233 14.7743 11.3804L16.7336 12.8548C15.8903 13.1697 14.9519 13.3606 13.95 13.3606C10.4498 13.3606 7.60906 11.2229 7.60906 8.58896C7.60906 7.83505 7.86271 7.12883 8.28121 6.48945Z" fill="#373737"/>
</svg>
