<svg width="29" height="29" viewBox="0 0 29 29" fill="none" xmlns="http://www.w3.org/2000/svg">
<path d="M28.7091 14.4995H26.6791C26.5196 14.4995 26.3891 14.63 26.3891 14.7895V26.3891H2.60991V2.60991H14.2095C14.369 2.60991 14.4995 2.47942 14.4995 2.31992V0.289991C14.4995 0.130496 14.369 0 14.2095 0H1.15996C0.518358 0 0 0.518358 0 1.15996V27.8391C0 28.4807 0.518358 28.9991 1.15996 28.9991H27.8391C28.4807 28.9991 28.9991 28.4807 28.9991 27.8391V14.7895C28.9991 14.63 28.8686 14.4995 28.7091 14.4995Z" fill="black"/>
<path d="M8.84039 15.3296L8.77152 19.6396C8.7679 19.9622 9.02889 20.2268 9.3515 20.2268H9.366L13.6434 20.1217C13.7159 20.1181 13.7884 20.0891 13.8391 20.0383L28.915 4.99509C29.0274 4.88272 29.0274 4.69785 28.915 4.58548L24.4093 0.0833724C24.3513 0.0253743 24.2788 0 24.2026 0C24.1265 0 24.054 0.0289992 23.996 0.0833724L8.92377 15.1266C8.87141 15.1814 8.84164 15.2539 8.84039 15.3296ZM11.1422 16.1851L24.2026 3.15365L25.8411 4.78847L12.7734 17.8272L11.1168 17.867L11.1422 16.1851Z" fill="black"/>
</svg>
