<svg width="8" height="10" viewBox="0 0 8 10" fill="none" xmlns="http://www.w3.org/2000/svg">
<path d="M2.01483 4.58937L1.42376 5L2.01483 5.41063L6.90689 8.80924C6.90527 8.80813 6.90552 8.80843 6.9072 8.81048C6.91467 8.81958 6.95044 8.86316 6.9769 8.97032C7.00672 9.09108 7.00887 9.23609 6.97631 9.36619C6.97028 9.39026 6.96366 9.4115 6.95685 9.43007L1.0967 5.36019C1.09694 5.35992 1.07385 5.33896 1.04819 5.27506C1.0203 5.20556 1 5.1099 1 5C1 4.88993 1.02036 4.79348 1.04835 4.72357C1.07302 4.66197 1.09471 4.64167 1.09443 4.64137L6.95685 0.569934C6.96366 0.588502 6.97028 0.609744 6.97631 0.633808C7.00887 0.763908 7.00672 0.908916 6.9769 1.02968C6.95044 1.13684 6.91467 1.18042 6.9072 1.18952C6.90547 1.19163 6.90526 1.19188 6.90703 1.19065L2.01483 4.58937ZM7.09363 9.52506L7.09339 9.52489L7.09363 9.52506Z" fill="#373737" stroke="#373737"/>
</svg>
