<svg width="36" height="30" viewBox="0 0 36 30" fill="none" xmlns="http://www.w3.org/2000/svg">
<path d="M35.4545 28.6364C35.4545 28.998 35.3109 29.3449 35.0551 29.6006C34.7994 29.8563 34.4526 30 34.0909 30H1.36364C1.00198 30 0.655131 29.8563 0.3994 29.6006C0.143668 29.3449 0 28.998 0 28.6364V1.36364C0 1.00198 0.143668 0.655132 0.3994 0.3994C0.655131 0.143669 1.00198 0 1.36364 0C1.7253 0 2.07214 0.143669 2.32787 0.3994C2.5836 0.655132 2.72727 1.00198 2.72727 1.36364V17.4494L11.3744 9.88636C11.6097 9.68038 11.9087 9.56154 12.2212 9.54975C12.5337 9.53795 12.8407 9.63393 13.0909 9.82159L23.1153 17.3403L33.1926 8.52273C33.3247 8.39193 33.4822 8.28954 33.6554 8.22184C33.8285 8.15414 34.0137 8.12256 34.1995 8.12904C34.3853 8.13553 34.5678 8.17994 34.7358 8.25954C34.9038 8.33915 35.0538 8.45227 35.1765 8.59196C35.2992 8.73164 35.392 8.89494 35.4493 9.07182C35.5065 9.24869 35.527 9.43541 35.5095 9.6205C35.492 9.80559 35.4367 9.98513 35.3473 10.1481C35.2578 10.3111 35.1359 10.454 34.9892 10.5682L24.0801 20.1136C23.8448 20.3196 23.5459 20.4385 23.2334 20.4503C22.9209 20.462 22.6138 20.3661 22.3636 20.1784L12.3392 12.6631L2.72727 21.0733V27.2727H34.0909C34.4526 27.2727 34.7994 27.4164 35.0551 27.6721C35.3109 27.9279 35.4545 28.2747 35.4545 28.6364Z" fill="black"/>
</svg>
