<svg width="32" height="31" viewBox="0 0 32 31" fill="none" xmlns="http://www.w3.org/2000/svg">
<path d="M16.2471 22.2554C16.533 22.2554 16.7741 22.1573 16.9704 21.9609C17.1659 21.7629 17.2636 21.5217 17.2636 21.2376C17.2636 20.9517 17.165 20.7106 16.9679 20.5142C16.7707 20.3179 16.5295 20.2197 16.2445 20.2197C15.9586 20.2197 15.7175 20.3183 15.5212 20.5155C15.3249 20.7127 15.2267 20.9538 15.2267 21.2389C15.2267 21.5248 15.3257 21.7659 15.5238 21.9622C15.7201 22.1585 15.9612 22.2567 16.2471 22.2567M15.5806 17.9787H16.8271C16.8598 17.4173 16.9653 16.9609 17.1435 16.6095C17.3218 16.2591 17.6882 15.8113 18.2427 15.2662C18.8197 14.6901 19.2485 14.1739 19.5292 13.7175C19.8108 13.2611 19.9516 12.7332 19.9516 12.1339C19.9516 11.1161 19.5942 10.3049 18.8795 9.70042C18.1639 9.09592 17.3175 8.79367 16.3401 8.79367C15.411 8.79367 14.6222 9.04597 13.9738 9.55058C13.3254 10.0561 12.8505 10.6364 12.5491 11.2917L13.7374 11.7839C13.9441 11.3137 14.2399 10.8982 14.6248 10.5374C15.0097 10.1757 15.5651 9.99492 16.291 9.99492C17.1289 9.99492 17.7403 10.2248 18.1252 10.6847C18.5118 11.1445 18.7051 11.65 18.7051 12.2011C18.7051 12.6489 18.5842 13.0484 18.3422 13.3997C18.1011 13.7519 17.7868 14.1059 17.3993 14.4615C16.6501 15.1521 16.1593 15.7377 15.9268 16.2182C15.696 16.6978 15.5806 17.2847 15.5806 17.9787ZM16.2148 27.125C14.608 27.125 13.0967 26.8202 11.6811 26.2105C10.2663 25.6 9.0353 24.7716 7.98819 23.7253C6.94108 22.6799 6.11226 21.4503 5.50173 20.0363C4.8912 18.6224 4.58594 17.1116 4.58594 15.5039C4.58594 13.897 4.89077 12.3858 5.50044 10.9701C6.11097 9.55532 6.93935 8.32436 7.9856 7.27725C9.03099 6.23014 10.2607 5.40132 11.6746 4.79079C13.0885 4.18026 14.5994 3.875 16.2071 3.875C17.8139 3.875 19.3251 4.17983 20.7408 4.7895C22.1556 5.40003 23.3866 6.22842 24.4337 7.27467C25.4808 8.32006 26.3096 9.54972 26.9201 10.9637C27.5307 12.3776 27.8359 13.8884 27.8359 15.4961C27.8359 17.103 27.5311 18.6142 26.9214 20.0299C26.3109 21.4447 25.4825 22.6756 24.4363 23.7227C23.3909 24.7699 22.1612 25.5987 20.7473 26.2092C19.3333 26.8197 17.8225 27.125 16.2148 27.125ZM16.2109 25.8333C19.0957 25.8333 21.5391 24.8323 23.5411 22.8302C25.5432 20.8281 26.5443 18.3847 26.5443 15.5C26.5443 12.6153 25.5432 10.1719 23.5411 8.16979C21.5391 6.16771 19.0957 5.16667 16.2109 5.16667C13.3262 5.16667 10.8828 6.16771 8.88073 8.16979C6.87865 10.1719 5.8776 12.6153 5.8776 15.5C5.8776 18.3847 6.87865 20.8281 8.88073 22.8302C10.8828 24.8323 13.3262 25.8333 16.2109 25.8333Z" fill="#373737"/>
</svg>
