<svg width="31" height="27" viewBox="0 0 31 27" fill="none" xmlns="http://www.w3.org/2000/svg">
<path d="M4.5 4.80469L1.84095 7.52859C1.65134 7.72283 1.65134 8.03288 1.84095 8.22713L4.15905 10.6018C4.34866 10.796 4.34866 11.1061 4.15905 11.3003L1.84095 13.6749C1.65134 13.8692 1.65134 14.1792 1.84095 14.3735L4.15905 16.7481C4.34866 16.9423 4.34866 17.2524 4.15905 17.4466L1.86821 19.7933C1.66808 19.9984 1.68081 20.3293 1.8961 20.5183L4.5 22.8047" stroke="black" stroke-width="2" stroke-linecap="round"/>
<path d="M26.5 22.8047L29.159 20.0808C29.3487 19.8865 29.3487 19.5765 29.159 19.3822L26.841 17.0076C26.6513 16.8134 26.6513 16.5033 26.841 16.3091L29.159 13.9344C29.3487 13.7402 29.3487 13.4301 29.159 13.2359L26.841 10.8613C26.6513 10.667 26.6513 10.357 26.841 10.1627L29.1318 7.81603C29.3319 7.61101 29.3192 7.28008 29.1039 7.09104L26.5 4.80469" stroke="black" stroke-width="2" stroke-linecap="round"/>
<path d="M20.7 25.8047H10.3C9.95522 25.8047 9.62456 25.6467 9.38076 25.3653C9.13696 25.084 9 24.7025 9 24.3047V3.30469C9 2.90686 9.13696 2.52533 9.38076 2.24403C9.62456 1.96272 9.95522 1.80469 10.3 1.80469H20.7C21.0448 1.80469 21.3754 1.96272 21.6192 2.24403C21.863 2.52533 22 2.90686 22 3.30469V24.3047C22 24.7025 21.863 25.084 21.6192 25.3653C21.3754 25.6467 21.0448 25.8047 20.7 25.8047ZM18.1 1.80469H12.9L13.55 4.80469H17.45L18.1 1.80469Z" stroke="black" stroke-width="2" stroke-linecap="round" stroke-linejoin="round"/>
</svg>
