<svg width="35" height="27" viewBox="0 0 35 27" fill="none" xmlns="http://www.w3.org/2000/svg">
<path d="M6.5 4.80469L2.19305 7.45189C1.87547 7.64708 1.87547 8.10864 2.19305 8.30383L5.80695 10.5251C6.12453 10.7203 6.12453 11.1818 5.80695 11.377L2.19305 13.5982C1.87547 13.7934 1.87547 14.255 2.19305 14.4502L5.80695 16.6714C6.12453 16.8666 6.12453 17.3281 5.80695 17.5233L2.24745 19.7111C1.91741 19.914 1.93347 20.3989 2.27621 20.5795L6.5 22.8047" stroke="black" stroke-width="2" stroke-linecap="round"/>
<path d="M28.5 22.8047L32.807 20.1575C33.1245 19.9623 33.1245 19.5007 32.807 19.3055L29.1931 17.0843C28.8755 16.8891 28.8755 16.4276 29.193 16.2324L32.807 14.0111C33.1245 13.816 33.1245 13.3544 32.807 13.1592L29.1931 10.938C28.8755 10.7428 28.8755 10.2812 29.1931 10.086L32.7526 7.89824C33.0826 7.69539 33.0665 7.21047 32.7238 7.0299L28.5 4.80469" stroke="black" stroke-width="2" stroke-linecap="round"/>
<path d="M22.7 25.8047H12.3C11.9552 25.8047 11.6246 25.6467 11.3808 25.3653C11.137 25.084 11 24.7025 11 24.3047V3.30469C11 2.90686 11.137 2.52533 11.3808 2.24403C11.6246 1.96272 11.9552 1.80469 12.3 1.80469H22.7C23.0448 1.80469 23.3754 1.96272 23.6192 2.24403C23.863 2.52533 24 2.90686 24 3.30469V24.3047C24 24.7025 23.863 25.084 23.6192 25.3653C23.3754 25.6467 23.0448 25.8047 22.7 25.8047ZM20.1 1.80469H14.9L15.55 4.80469H19.45L20.1 1.80469Z" stroke="black" stroke-width="2" stroke-linecap="round" stroke-linejoin="round"/>
</svg>
