<svg width="39" height="27" viewBox="0 0 39 27" fill="none" xmlns="http://www.w3.org/2000/svg">
<path d="M8.5 4.80469L1.71502 7.41111C1.28742 7.57537 1.28742 8.18034 1.71502 8.3446L7.28498 10.4843C7.71258 10.6485 7.71258 11.2535 7.28498 11.4178L1.71502 13.5575C1.28742 13.7217 1.28742 14.3267 1.71502 14.4909L7.28498 16.6306C7.71258 16.7949 7.71258 17.3999 7.28498 17.5641L1.80936 19.6676C1.37051 19.8361 1.38575 20.4622 1.83228 20.6092L8.5 22.8047" stroke="black" stroke-width="2" stroke-linecap="round"/>
<path d="M30.5 22.8047L37.285 20.1983C37.7126 20.034 37.7126 19.429 37.285 19.2648L31.715 17.1251C31.2874 16.9608 31.2874 16.3559 31.715 16.1916L37.285 14.0519C37.7126 13.8877 37.7126 13.2827 37.285 13.1184L31.715 10.9787C31.2874 10.8145 31.2874 10.2095 31.715 10.0453L37.1906 7.94182C37.6295 7.77324 37.6142 7.14718 37.1677 7.00016L30.5 4.80469" stroke="black" stroke-width="2" stroke-linecap="round"/>
<path d="M24.7 25.8047H14.3C13.9552 25.8047 13.6246 25.6467 13.3808 25.3653C13.137 25.084 13 24.7025 13 24.3047V3.30469C13 2.90686 13.137 2.52533 13.3808 2.24403C13.6246 1.96272 13.9552 1.80469 14.3 1.80469H24.7C25.0448 1.80469 25.3754 1.96272 25.6192 2.24403C25.863 2.52533 26 2.90686 26 3.30469V24.3047C26 24.7025 25.863 25.084 25.6192 25.3653C25.3754 25.6467 25.0448 25.8047 24.7 25.8047ZM22.1 1.80469H16.9L17.55 4.80469H21.45L22.1 1.80469Z" stroke="black" stroke-width="2" stroke-linecap="round" stroke-linejoin="round"/>
</svg>
