<svg width="32" height="35" viewBox="0 0 32 35" fill="none" xmlns="http://www.w3.org/2000/svg">
<path d="M30.3001 17.5C30.3001 20.8825 31.9178 22.8213 30.2344 25.75C28.5493 28.6787 26.0677 28.2415 23.1492 29.9311C20.2324 31.624 19.3685 34 16 34C12.6315 34 11.7693 31.6224 8.85078 29.9311C5.93394 28.2415 3.45068 28.6787 1.76561 25.75C0.0821837 22.8213 1.69991 20.8825 1.69991 17.5C1.69991 14.1175 0.0821837 12.1787 1.76561 9.25C3.45068 6.32125 5.93229 6.7585 8.85078 5.0689C11.7676 3.376 12.6315 1 16 1C19.3685 1 20.2324 3.37765 23.1492 5.0689C26.0661 6.7585 28.5493 6.32125 30.2327 9.25C31.9178 12.1787 30.3001 14.1175 30.3001 17.5Z" stroke="black" stroke-width="2" stroke-linecap="round" stroke-linejoin="round"/>
</svg>
