<svg width="29" height="29" viewBox="0 0 29 29" fill="none" xmlns="http://www.w3.org/2000/svg">
<path d="M19.9801 10.4341C20.3706 10.0436 20.3706 9.41045 19.9801 9.01992C19.5896 8.6294 18.9564 8.6294 18.5659 9.01992L19.9801 10.4341ZM9.01992 18.5659C8.6294 18.9564 8.6294 19.5896 9.01992 19.9801C9.41045 20.3706 10.0436 20.3706 10.4341 19.9801L9.01992 18.5659ZM18.5659 19.9801C18.9564 20.3706 19.5896 20.3706 19.9801 19.9801C20.3706 19.5896 20.3706 18.9564 19.9801 18.5659L18.5659 19.9801ZM10.4341 9.01992C10.0436 8.6294 9.41045 8.6294 9.01992 9.01992C8.6294 9.41045 8.6294 10.0436 9.01992 10.4341L10.4341 9.01992ZM27 14.5C27 21.4036 21.4036 27 14.5 27V29C22.5081 29 29 22.5081 29 14.5H27ZM14.5 27C7.59644 27 2 21.4036 2 14.5H0C0 22.5081 6.49187 29 14.5 29V27ZM2 14.5C2 7.59644 7.59644 2 14.5 2V0C6.49187 0 0 6.49187 0 14.5H2ZM14.5 2C21.4036 2 27 7.59644 27 14.5H29C29 6.49187 22.5081 0 14.5 0V2ZM18.5659 9.01992L13.7929 13.7929L15.2071 15.2071L19.9801 10.4341L18.5659 9.01992ZM13.7929 13.7929L9.01992 18.5659L10.4341 19.9801L15.2071 15.2071L13.7929 13.7929ZM19.9801 18.5659L15.2071 13.7929L13.7929 15.2071L18.5659 19.9801L19.9801 18.5659ZM15.2071 13.7929L10.4341 9.01992L9.01992 10.4341L13.7929 15.2071L15.2071 13.7929Z" fill="black"/>
</svg>
