<svg width="230" height="208" viewBox="0 0 230 208" fill="none" xmlns="http://www.w3.org/2000/svg">
<g filter="url(#filter0_d_1862_23220)">
<rect x="50" y="46" width="130" height="108" rx="3" fill="#FFFDFE"/>
<rect x="50.25" y="46.25" width="129.5" height="107.5" rx="2.75" stroke="#949494" stroke-width="0.5"/>
</g>
<path d="M94.7901 126.64L98.8541 136.608L102.902 126.64H104.07L99.3661 138H98.3421L93.6221 126.64H94.7901ZM104.737 134.56V129.664H105.825V134.368C105.825 135.317 105.985 136.027 106.305 136.496C106.636 136.965 107.121 137.2 107.761 137.2C108.188 137.2 108.599 137.109 108.993 136.928C109.399 136.736 109.756 136.469 110.065 136.128C110.375 135.776 110.609 135.371 110.769 134.912V129.664H111.857V136.688C111.857 136.837 111.889 136.949 111.953 137.024C112.017 137.088 112.113 137.125 112.241 137.136V138C112.113 138.011 112.012 138.016 111.937 138.016C111.863 138.027 111.793 138.032 111.729 138.032C111.516 138.011 111.329 137.925 111.169 137.776C111.02 137.627 110.94 137.445 110.929 137.232L110.897 136.112C110.535 136.752 110.039 137.253 109.409 137.616C108.791 137.979 108.119 138.16 107.393 138.16C106.519 138.16 105.857 137.856 105.409 137.248C104.961 136.64 104.737 135.744 104.737 134.56ZM117.869 138.16C117.272 138.16 116.717 138.048 116.205 137.824C115.704 137.589 115.267 137.275 114.893 136.88C114.531 136.475 114.248 136.016 114.045 135.504C113.843 134.981 113.741 134.432 113.741 133.856C113.741 133.259 113.843 132.704 114.045 132.192C114.248 131.669 114.536 131.211 114.909 130.816C115.283 130.411 115.72 130.096 116.221 129.872C116.733 129.637 117.288 129.52 117.885 129.52C118.483 129.52 119.032 129.637 119.533 129.872C120.035 130.096 120.472 130.411 120.845 130.816C121.219 131.211 121.507 131.669 121.709 132.192C121.912 132.704 122.013 133.259 122.013 133.856C122.013 134.432 121.912 134.981 121.709 135.504C121.507 136.016 121.219 136.475 120.845 136.88C120.483 137.275 120.045 137.589 119.533 137.824C119.032 138.048 118.477 138.16 117.869 138.16ZM114.845 133.872C114.845 134.491 114.979 135.056 115.245 135.568C115.523 136.069 115.891 136.469 116.349 136.768C116.808 137.056 117.315 137.2 117.869 137.2C118.424 137.2 118.931 137.051 119.389 136.752C119.848 136.453 120.216 136.048 120.493 135.536C120.771 135.013 120.909 134.448 120.909 133.84C120.909 133.221 120.771 132.656 120.493 132.144C120.216 131.632 119.848 131.227 119.389 130.928C118.931 130.629 118.424 130.48 117.869 130.48C117.315 130.48 116.808 130.635 116.349 130.944C115.901 131.253 115.539 131.664 115.261 132.176C114.984 132.677 114.845 133.243 114.845 133.872ZM127.708 137.6C127.622 137.632 127.489 137.691 127.308 137.776C127.126 137.861 126.908 137.936 126.652 138C126.396 138.064 126.118 138.096 125.82 138.096C125.51 138.096 125.217 138.037 124.94 137.92C124.673 137.803 124.46 137.627 124.3 137.392C124.14 137.147 124.06 136.848 124.06 136.496V130.528H122.908V129.664H124.06V126.848H125.148V129.664H127.068V130.528H125.148V136.192C125.169 136.491 125.276 136.715 125.468 136.864C125.67 137.013 125.9 137.088 126.156 137.088C126.454 137.088 126.726 137.04 126.972 136.944C127.217 136.837 127.366 136.763 127.42 136.72L127.708 137.6ZM128.395 135.6C128.395 135.077 128.545 134.629 128.843 134.256C129.142 133.872 129.553 133.579 130.075 133.376C130.609 133.163 131.222 133.056 131.915 133.056C132.321 133.056 132.742 133.088 133.179 133.152C133.617 133.216 134.006 133.312 134.347 133.44V132.736C134.347 132.032 134.139 131.472 133.723 131.056C133.307 130.64 132.731 130.432 131.995 130.432C131.547 130.432 131.105 130.517 130.667 130.688C130.241 130.848 129.793 131.088 129.323 131.408L128.907 130.64C129.451 130.267 129.985 129.989 130.507 129.808C131.03 129.616 131.563 129.52 132.107 129.52C133.131 129.52 133.942 129.813 134.539 130.4C135.137 130.987 135.435 131.797 135.435 132.832V136.688C135.435 136.837 135.467 136.949 135.531 137.024C135.595 137.088 135.697 137.125 135.835 137.136V138C135.718 138.011 135.617 138.021 135.531 138.032C135.446 138.043 135.382 138.043 135.339 138.032C135.073 138.021 134.87 137.936 134.731 137.776C134.593 137.616 134.518 137.445 134.507 137.264L134.491 136.656C134.118 137.136 133.633 137.509 133.035 137.776C132.438 138.032 131.83 138.16 131.211 138.16C130.678 138.16 130.193 138.048 129.755 137.824C129.329 137.589 128.993 137.28 128.747 136.896C128.513 136.501 128.395 136.069 128.395 135.6ZM133.979 136.24C134.097 136.091 134.187 135.947 134.251 135.808C134.315 135.669 134.347 135.547 134.347 135.44V134.224C133.985 134.085 133.606 133.979 133.211 133.904C132.827 133.829 132.438 133.792 132.043 133.792C131.265 133.792 130.635 133.947 130.155 134.256C129.675 134.565 129.435 134.987 129.435 135.52C129.435 135.829 129.515 136.123 129.675 136.4C129.835 136.667 130.07 136.891 130.379 137.072C130.689 137.243 131.051 137.328 131.467 137.328C131.99 137.328 132.475 137.227 132.923 137.024C133.382 136.821 133.734 136.56 133.979 136.24Z" fill="black"/>
<rect x="99" y="58" width="32" height="60" rx="2" stroke="#373737" stroke-width="2"/>
<defs>
<filter id="filter0_d_1862_23220" x="0" y="0" width="230" height="208" filterUnits="userSpaceOnUse" color-interpolation-filters="sRGB">
<feFlood flood-opacity="0" result="BackgroundImageFix"/>
<feColorMatrix in="SourceAlpha" type="matrix" values="0 0 0 0 0 0 0 0 0 0 0 0 0 0 0 0 0 0 127 0" result="hardAlpha"/>
<feOffset dy="4"/>
<feGaussianBlur stdDeviation="25"/>
<feComposite in2="hardAlpha" operator="out"/>
<feColorMatrix type="matrix" values="0 0 0 0 0 0 0 0 0 0 0 0 0 0 0 0 0 0 0.05 0"/>
<feBlend mode="normal" in2="BackgroundImageFix" result="effect1_dropShadow_1862_23220"/>
<feBlend mode="normal" in="SourceGraphic" in2="effect1_dropShadow_1862_23220" result="shape"/>
</filter>
</defs>
</svg>
