<svg width="25" height="24" viewBox="0 0 25 24" fill="none" xmlns="http://www.w3.org/2000/svg">
<path d="M22.373 14.4414L22.3159 13.8733L22.2988 13.8745L22.2793 13.8779L22.373 14.4414ZM22.373 14.4414L22.4302 15.0106L22.4496 15.0083L22.4679 15.0049L22.373 14.4414ZM17.7557 20.7071L18.118 20.2648L18.1123 20.2614L17.7557 20.7071ZM17.7557 20.7071L17.3934 21.1494L17.3991 21.154L17.7557 20.7071ZM7.24546 20.7071L6.88316 20.2659L6.87516 20.2728L6.86602 20.2808L7.24546 20.7071ZM7.24546 20.7071L7.60777 21.1506L7.61691 21.1426L7.62491 21.1357L7.24546 20.7071ZM2.62696 9.55862V8.98714H2.59953L2.57096 8.98943L2.62696 9.55862ZM2.62696 9.55862V10.1301H2.65553L2.6841 10.1267L2.62696 9.55862ZM15.5087 2.06877C15.4916 1.86153 15.4676 1.65492 15.4367 1.44928C15.4106 1.26732 15.3558 1.09064 15.2744 0.925802L14.2584 1.45042C14.2698 1.47328 14.2892 1.519 14.3087 1.63787C14.3304 1.7636 14.3464 1.92704 14.3727 2.18192L15.5087 2.06877ZM15.7327 3.44376C15.719 3.42661 15.6779 3.35689 15.6333 3.1123C15.5801 2.76598 15.5401 2.41793 15.511 2.06877L14.3727 2.18192C14.4184 2.64025 14.4561 3.01972 14.5087 3.3146C14.5601 3.60263 14.6401 3.89637 14.8241 4.13754L15.7327 3.44376ZM16.263 3.66321C16.1631 3.67665 16.0615 3.66343 15.9683 3.62489C15.8752 3.58635 15.7939 3.52386 15.7327 3.44376L14.823 4.13639C15.0065 4.37708 15.2505 4.56489 15.5301 4.68073C15.8098 4.79656 16.1151 4.83629 16.415 4.79589L16.263 3.66321ZM17.3922 2.84827C17.0208 3.15344 16.7671 3.36032 16.5671 3.49862C16.3625 3.64035 16.2836 3.65978 16.263 3.66321L16.415 4.79589C16.7145 4.75588 16.9785 4.60501 17.2197 4.43699C17.4654 4.26555 17.7591 4.02553 18.1168 3.73293L17.3922 2.84827ZM18.366 2.20707C18.1831 2.26536 18.0288 2.35794 17.8825 2.46195C17.7408 2.56253 17.5797 2.69511 17.3922 2.84827L18.1168 3.73293C18.3146 3.57063 18.4426 3.46662 18.5454 3.39347C18.5965 3.35231 18.6535 3.31917 18.7146 3.29517L18.366 2.20707ZM19.5695 2.2665C19.1887 2.10171 18.7611 2.0806 18.366 2.20707L18.7146 3.29517C18.846 3.25354 18.9881 3.26085 19.1146 3.31574L19.5695 2.2665ZM20.4747 3.00257C20.3032 2.83113 20.1558 2.68254 20.0255 2.56824C19.8903 2.44428 19.7364 2.34245 19.5695 2.2665L19.1146 3.31574C19.1386 3.32603 19.182 3.35003 19.2735 3.43004C19.3683 3.51233 19.4849 3.62892 19.6666 3.81065L20.4747 3.00257ZM21.4953 4.02324L20.4747 3.00257L19.6666 3.81065L20.6872 4.83132L21.4953 4.02324ZM22.2313 4.92847C22.155 4.76147 22.0528 4.60756 21.9284 4.47243C21.8142 4.34213 21.6656 4.19468 21.4953 4.02324L20.6872 4.83132C20.869 5.01305 20.9844 5.12963 21.069 5.2245C21.149 5.31593 21.1718 5.35937 21.1821 5.38337L22.2313 4.92847ZM22.2908 6.13201C22.4172 5.73686 22.3961 5.30924 22.2313 4.92847L21.1821 5.38337C21.2366 5.51001 21.2435 5.65208 21.2016 5.78341L22.2908 6.13201ZM21.6496 7.10582C21.8027 6.91837 21.9353 6.75721 22.0359 6.61549C22.1387 6.46919 22.2325 6.31489 22.2908 6.13201L21.2016 5.78341C21.1779 5.84439 21.1452 5.90142 21.1044 5.95257C20.9955 6.09877 20.8823 6.24171 20.765 6.38118L21.6496 7.10582ZM20.8347 8.23507C20.8381 8.2145 20.8575 8.13563 20.9993 7.93104C21.1376 7.73102 21.3444 7.47728 21.6496 7.10582L20.765 6.38118C20.4724 6.73893 20.2312 7.03267 20.0609 7.27841C19.8929 7.51843 19.7421 7.7836 19.7021 8.08305L20.8347 8.23507ZM21.0541 8.76541C20.974 8.70421 20.9115 8.62292 20.873 8.52978C20.8345 8.43664 20.8212 8.33497 20.8347 8.23507L19.7021 8.08305C19.6619 8.38285 19.7017 8.68795 19.8175 8.96738C19.9333 9.24681 20.121 9.49062 20.3615 9.67406L21.0541 8.76541ZM22.429 8.98828C21.9502 8.94028 21.6256 8.90828 21.3856 8.86484C21.141 8.82027 21.0713 8.77912 21.0541 8.76541L20.3615 9.67406C20.6015 9.85694 20.8953 9.93694 21.1844 9.98952C21.4781 10.0421 21.8564 10.081 22.3159 10.1267L22.429 8.98828ZM23.572 9.22373C23.4071 9.14237 23.2305 9.08759 23.0485 9.06143C22.8771 9.03286 22.6691 9.01229 22.429 8.98828L22.3148 10.1255C22.5708 10.1518 22.7342 10.1678 22.8599 10.1895C22.9246 10.1968 22.9878 10.2138 23.0474 10.2398L23.572 9.22373ZM24.38 10.1164C24.2274 9.73093 23.9404 9.4138 23.572 9.22373L23.0474 10.2398C23.1702 10.303 23.2661 10.4086 23.3171 10.537L24.38 10.1164ZM24.5 11.2765C24.5 11.0353 24.5 10.8262 24.4886 10.6524C24.4809 10.4692 24.4442 10.2882 24.38 10.1164L23.3171 10.537C23.3262 10.561 23.3399 10.609 23.3479 10.729C23.3568 10.9117 23.3599 11.0947 23.3571 11.2776L24.5 11.2765ZM24.5 12.7212V11.2765H23.3571V12.7212H24.5ZM24.38 13.8802C24.4509 13.7019 24.4771 13.5236 24.4886 13.3441C24.5 13.1715 24.5 12.9624 24.5 12.7212H23.3571C23.3571 12.9772 23.3571 13.1418 23.3479 13.2687C23.3474 13.3339 23.337 13.3986 23.3171 13.4607L24.38 13.8802ZM23.572 14.774C23.9406 14.5836 24.2277 14.2661 24.38 13.8802L23.3171 13.4607C23.2661 13.5891 23.1702 13.6947 23.0474 13.7579L23.572 14.774ZM22.429 15.0094C22.6691 14.9854 22.8782 14.9637 23.0485 14.9351C23.2257 14.9066 23.4005 14.862 23.5708 14.7751L23.0474 13.7579C22.9878 13.784 22.9246 13.8009 22.8599 13.8082C22.7342 13.8299 22.5708 13.8459 22.3159 13.8722L22.429 15.0094ZM21.0553 15.2323C21.0724 15.2186 21.1421 15.1763 21.3867 15.1329C21.6267 15.0894 21.9513 15.0563 22.429 15.0094L22.3159 13.8722C21.8576 13.9179 21.4781 13.9545 21.1833 14.0082C20.8953 14.0596 20.6027 14.1396 20.3615 14.3225L21.0553 15.2323ZM20.8347 15.7626C20.8214 15.6626 20.8348 15.5609 20.8735 15.4677C20.9123 15.3746 20.975 15.2934 21.0553 15.2323L20.3615 14.3225C20.1208 14.5061 19.933 14.75 19.8172 15.0297C19.7014 15.3093 19.6617 15.6147 19.7021 15.9147L20.8347 15.7626ZM21.6496 16.8919C21.4234 16.6244 21.2065 16.3491 20.9993 16.0667C20.8575 15.8632 20.8381 15.7832 20.8347 15.7626L19.7032 15.9158C19.7432 16.2153 19.8941 16.4781 20.0609 16.7193C20.2324 16.9639 20.4724 17.2588 20.765 17.6154L21.6496 16.8919ZM22.2908 17.8657C22.2318 17.6918 22.1458 17.5282 22.0359 17.3811C21.9123 17.214 21.7834 17.0509 21.6496 16.8919L20.765 17.6154C20.9273 17.8143 21.0313 17.9411 21.1044 18.0451C21.145 18.096 21.1778 18.1526 21.2016 18.2132L22.2908 17.8657ZM22.2313 19.0692C22.3961 18.6885 22.4172 18.2609 22.2908 17.8657L21.2016 18.2132C21.2438 18.3448 21.2369 18.4874 21.1821 18.6143L22.2313 19.0692ZM21.4964 19.9733C21.6667 19.803 21.8142 19.6556 21.9284 19.5253C22.0473 19.3893 22.1547 19.2464 22.2313 19.0692L21.1821 18.6143C21.1522 18.6724 21.1137 18.7256 21.0678 18.7721C20.9449 18.9069 20.818 19.038 20.6872 19.1653L21.4964 19.9733ZM20.4747 20.9951L21.4964 19.9733L20.6872 19.1653L19.6666 20.1871L20.4747 20.9951ZM19.5695 21.7301C19.7455 21.6535 19.8895 21.5472 20.0255 21.4283C20.1558 21.314 20.3032 21.1654 20.4747 20.994L19.6666 20.1871C19.4849 20.3688 19.3683 20.4842 19.2735 20.5677C19.2266 20.6136 19.173 20.6521 19.1146 20.682L19.5695 21.7301ZM18.366 21.7906C18.7613 21.9168 19.1889 21.8952 19.5695 21.7301L19.1146 20.682C18.988 20.7365 18.8459 20.7434 18.7146 20.7014L18.366 21.7906ZM17.3922 21.1483C17.5797 21.3015 17.7408 21.434 17.8825 21.5346C18.0288 21.6386 18.1831 21.7324 18.366 21.7906L18.7146 20.7014C18.6536 20.6778 18.5966 20.645 18.5454 20.6042C18.3992 20.495 18.2563 20.3814 18.1168 20.2636L17.3922 21.1483ZM16.263 20.3345C16.2836 20.3368 16.3636 20.3574 16.5671 20.4991C16.7671 20.6374 17.0208 20.8443 17.3922 21.1483L18.1168 20.2636C17.7591 19.9722 17.4654 19.731 17.2197 19.5596C16.9796 19.3927 16.7145 19.2418 16.415 19.2018L16.263 20.3345ZM15.7327 20.554C15.7939 20.4739 15.8752 20.4114 15.9683 20.3728C16.0615 20.3343 16.1631 20.3211 16.263 20.3345L16.415 19.2018C16.1154 19.1615 15.8103 19.2012 15.5309 19.3168C15.2515 19.4324 15.0077 19.6199 14.8241 19.8602L15.7327 20.554ZM15.5099 21.9289C15.5579 21.45 15.5899 21.1254 15.6333 20.8854C15.6779 20.6408 15.719 20.5711 15.7327 20.554L14.8241 19.8602C14.6412 20.1002 14.5612 20.3951 14.5087 20.6831C14.4561 20.9769 14.4172 21.3552 14.3715 21.8146L15.5099 21.9289ZM15.2744 23.0719C15.3624 22.9005 15.4059 22.7256 15.4356 22.5484C15.4653 22.377 15.4859 22.169 15.5099 21.9289L14.3715 21.8146C14.3557 21.997 14.3355 22.1788 14.3087 22.3598C14.3014 22.4245 14.2844 22.4877 14.2584 22.5473L15.2744 23.0719ZM14.3818 23.88C14.7673 23.7274 15.0844 23.4403 15.2744 23.0719L14.2584 22.5473C14.1952 22.6702 14.0896 22.766 13.9612 22.817L14.3818 23.88ZM13.2217 24C13.4629 24 13.6721 24 13.8458 23.9886C14.0241 23.9771 14.2035 23.9508 14.3818 23.88L13.9612 22.817C13.8991 22.8369 13.8344 22.8473 13.7692 22.8479C13.6435 22.857 13.4778 22.857 13.2206 22.857L13.2217 24ZM11.7771 24H13.2217L13.2206 22.857H11.7771V24ZM10.6171 23.88C10.7965 23.9508 10.9748 23.9771 11.1542 23.9886C11.3268 24 11.536 24 11.7771 24V22.857C11.5211 22.857 11.3565 22.857 11.2297 22.8479C11.1645 22.8473 11.0997 22.8369 11.0376 22.817L10.6171 23.88ZM9.72444 23.0719C9.9145 23.4403 10.2316 23.7274 10.6171 23.88L11.0376 22.817C10.9092 22.766 10.8037 22.6702 10.7405 22.5473L9.72444 23.0719ZM9.489 21.9289C9.513 22.169 9.53472 22.3781 9.56215 22.5484C9.59186 22.7256 9.63644 22.9005 9.72444 23.0719L10.7405 22.5473C10.7144 22.4877 10.6975 22.4245 10.6902 22.3598C10.6634 22.1792 10.6421 21.9977 10.6262 21.8158L9.489 21.9289ZM9.26613 20.554C9.27985 20.5711 9.32099 20.6408 9.36557 20.8854C9.409 21.1254 9.441 21.4512 9.489 21.9289L10.6262 21.8158C10.5805 21.3575 10.5428 20.978 10.4902 20.6831C10.4388 20.3951 10.3588 20.1013 10.1747 19.8602L9.26613 20.554ZM8.73582 20.3345C8.83572 20.3211 8.93739 20.3343 9.03052 20.3728C9.12366 20.4114 9.20494 20.4739 9.26613 20.554L10.1747 19.8602C9.99131 19.6197 9.74751 19.4331 9.4681 19.3173C9.18868 19.2015 8.8836 19.1616 8.58381 19.2018L8.73582 20.3345ZM7.60662 21.1494C7.97807 20.8443 8.2318 20.6374 8.43181 20.4991C8.63639 20.3574 8.71525 20.3368 8.73582 20.3345L8.58381 19.2018C8.28437 19.2418 8.02036 19.3927 7.7792 19.5607C7.53348 19.731 7.23975 19.9722 6.88202 20.2648L7.60662 21.1494ZM6.63286 21.7906C6.81573 21.7324 6.97002 21.6398 7.11631 21.5358C7.25804 21.4352 7.41919 21.3026 7.60662 21.1494L6.88202 20.2648C6.74255 20.3822 6.59962 20.4954 6.45343 20.6042C6.40231 20.645 6.34527 20.6778 6.28428 20.7014L6.63286 21.7906ZM5.42938 21.7324C5.81013 21.8971 6.23773 21.9171 6.63286 21.7906L6.28428 20.7014C6.15296 20.7434 6.01089 20.7365 5.88426 20.682L5.42938 21.7324ZM4.52419 20.9951C4.69563 21.1666 4.84306 21.3152 4.97336 21.4295C5.10822 21.5472 5.25337 21.6558 5.42938 21.7324L5.88426 20.682C5.8258 20.6522 5.77223 20.6136 5.72539 20.5677C5.59061 20.4447 5.4595 20.3178 5.33223 20.1871L4.52419 20.9951ZM3.50357 19.9745L4.52419 20.9951L5.33223 20.1871L4.31161 19.1664L3.50357 19.9745ZM2.76754 19.0692C2.84411 19.2453 2.95155 19.3893 3.07041 19.5253C3.1847 19.6556 3.33328 19.803 3.50357 19.9745L4.31161 19.1664C4.1805 19.0391 4.0532 18.908 3.92988 18.7732C3.88396 18.7264 3.84542 18.6728 3.81559 18.6143L2.76754 19.0692ZM2.70811 17.8657C2.58164 18.2609 2.60275 18.6885 2.76754 19.0692L3.81559 18.6143C3.76069 18.4878 3.75453 18.3458 3.79616 18.2143L2.70811 17.8657ZM3.34928 16.8919C3.19613 17.0793 3.06355 17.2405 2.96297 17.3822C2.85317 17.529 2.76716 17.6922 2.70811 17.8657L3.79616 18.2143C3.82016 18.1533 3.8533 18.0962 3.89445 18.0451C3.96759 17.9423 4.0716 17.8143 4.23389 17.6165L3.34928 16.8919ZM4.16417 15.7626C4.16075 15.7832 4.14132 15.8621 3.99959 16.0667C3.86016 16.2667 3.65444 16.5204 3.34928 16.8919L4.23389 17.6165C4.52648 17.2588 4.76763 16.965 4.93793 16.7193C5.10593 16.4793 5.2568 16.2141 5.2968 15.9147L4.16417 15.7626ZM3.94474 15.2323C4.02483 15.2935 4.08732 15.3748 4.12586 15.4679C4.1644 15.5611 4.17762 15.6627 4.16417 15.7626L5.2968 15.9147C5.33699 15.6149 5.29716 15.3098 5.18134 15.0303C5.06552 14.7509 4.87784 14.5071 4.63734 14.3236L3.94474 15.2323ZM2.56981 15.0106C3.04869 15.0574 3.37328 15.0894 3.61329 15.1329C3.85787 15.1774 3.92759 15.2186 3.94474 15.2323L4.63734 14.3225C4.39733 14.1396 4.1036 14.0596 3.81444 14.0082C3.52072 13.9556 3.14241 13.9168 2.68296 13.871L2.56981 15.0106ZM1.4269 14.774C1.59834 14.862 1.7732 14.9054 1.95035 14.9351C2.12179 14.9649 2.32866 14.9866 2.56981 15.0106L2.6841 13.8722C2.50178 13.8563 2.31997 13.835 2.13894 13.8082C2.07429 13.8009 2.0111 13.7839 1.9515 13.7579L1.4269 14.774ZM0.618863 13.8802C0.771198 14.2661 1.05829 14.5836 1.4269 14.774L1.9515 13.7579C1.82862 13.6947 1.7328 13.5891 1.68177 13.4607L0.618863 13.8802ZM0.5 12.7235C0.5 12.9647 0.5 13.1738 0.511429 13.3476C0.518826 13.5305 0.555482 13.7111 0.620006 13.8825L1.68291 13.463C1.66304 13.4009 1.65264 13.3362 1.65205 13.271C1.64356 13.0882 1.64051 12.9053 1.64291 12.7224L0.5 12.7235ZM0.5 11.2788V12.7235H1.64291V11.2788H0.5ZM0.620006 10.1187C0.555732 10.2909 0.519088 10.4722 0.511429 10.6559C0.5 10.8285 0.5 11.0376 0.5 11.2788H1.64291C1.64291 11.0228 1.64291 10.8582 1.65205 10.7313C1.65261 10.6661 1.66301 10.6014 1.68291 10.5393L0.620006 10.1187ZM1.42804 9.22602C1.05964 9.41609 0.772574 9.73321 0.620006 10.1187L1.68291 10.5393C1.73394 10.4109 1.82976 10.3053 1.95264 10.2421L1.42804 9.22602ZM2.57096 8.98943C2.33094 9.01343 2.12179 9.03629 1.9515 9.06372C1.76955 9.08988 1.59288 9.14465 1.42804 9.22602L1.95264 10.2421C1.9755 10.2307 2.02122 10.2113 2.14008 10.1918C2.2658 10.1701 2.42923 10.1541 2.6841 10.1278L2.57096 8.98943ZM3.94588 8.76769C3.92873 8.78141 3.85902 8.82255 3.61443 8.86713C3.37442 8.91056 3.04984 8.94142 2.57096 8.98943L2.6841 10.1278C3.14241 10.0821 3.523 10.0444 3.81673 9.99181C4.10589 9.94037 4.39961 9.86037 4.63963 9.67635L3.94588 8.76769ZM4.16532 8.23736C4.17876 8.33725 4.16554 8.43893 4.127 8.53207C4.08846 8.62521 4.02597 8.7065 3.94588 8.76769L4.63963 9.67635C4.87991 9.49277 5.06737 9.24891 5.18299 8.96949C5.29861 8.69007 5.33827 8.38389 5.29794 8.0842L4.16532 8.23736ZM3.35042 7.10696C3.65558 7.47957 3.86245 7.73331 4.00188 7.93333C4.1436 8.13792 4.16189 8.21678 4.16532 8.23736L5.29794 8.0842C5.25794 7.78474 5.10708 7.52186 4.93907 7.28069C4.76877 7.03496 4.52762 6.74121 4.23504 6.38346L3.35042 7.10696ZM2.70925 6.13316C2.76639 6.31603 2.86011 6.47147 2.96412 6.61777C3.06469 6.75836 3.19727 6.92066 3.35042 7.10696L4.23504 6.38346C4.11765 6.24361 4.00445 6.1003 3.89559 5.95371C3.85454 5.90298 3.8214 5.84634 3.7973 5.78569L2.70925 6.13316ZM2.76868 4.93076C2.60418 5.31119 2.58307 5.73835 2.70925 6.13316L3.7973 5.78569C3.75567 5.65423 3.76298 5.51215 3.81787 5.38566L2.76868 4.93076ZM3.50471 4.02553C3.33328 4.19583 3.1847 4.34327 3.07041 4.47471C2.94647 4.6099 2.84464 4.76381 2.76868 4.93076L3.81787 5.38566C3.84779 5.32761 3.88632 5.27329 3.93216 5.22678C4.0546 5.09151 4.18154 4.96038 4.31275 4.8336L3.50471 4.02553ZM4.52533 3.00371L3.50471 4.02553L4.31275 4.8336L5.33337 3.81179L4.52533 3.00371ZM5.43052 2.26879C5.26363 2.34483 5.10974 2.44666 4.9745 2.57053C4.84421 2.68483 4.69563 2.83227 4.52533 3.00371L5.33337 3.81179C5.5151 3.6312 5.63167 3.51462 5.72653 3.43118C5.81797 3.35118 5.8614 3.32832 5.8854 3.31689L5.43052 2.26879ZM6.63401 2.20821C6.23873 2.0821 5.81114 2.10362 5.43052 2.26879L5.8854 3.31689C6.01189 3.26199 6.15396 3.25583 6.28542 3.29746L6.63401 2.20821ZM7.60777 2.85056C7.42033 2.6974 7.25918 2.56482 7.11746 2.46423C6.97079 2.35398 6.80763 2.26757 6.63401 2.20821L6.28542 3.29746C6.34639 3.3211 6.40342 3.35386 6.45457 3.39461C6.55743 3.4689 6.68544 3.57291 6.8843 3.73521L7.60777 2.85056ZM8.73696 3.66549C8.71639 3.66206 8.63753 3.64263 8.43295 3.5009C8.15048 3.2933 7.87525 3.07715 7.60777 2.85056L6.8843 3.73521C7.24089 4.02781 7.53576 4.26898 7.78035 4.43928C8.02036 4.60615 8.28551 4.75702 8.58496 4.79817L8.73696 3.66549ZM9.26727 3.4449C9.20622 3.52521 9.12499 3.58792 9.03185 3.62666C8.9387 3.66541 8.83696 3.67881 8.73696 3.66549L8.58496 4.79817C8.88482 4.83871 9.19007 4.79801 9.4697 4.68238C9.74932 4.56675 9.99336 4.37916 10.177 4.13868L9.26727 3.4449ZM9.49014 2.07105C9.44214 2.54881 9.41014 2.87456 9.36671 3.11344C9.32213 3.35803 9.28099 3.42775 9.26727 3.4449L10.177 4.13868C10.3599 3.89866 10.4399 3.60491 10.4913 3.31574C10.5439 3.022 10.5828 2.64368 10.6285 2.18421L9.49014 2.07105ZM9.72558 0.928088C9.63758 1.09953 9.593 1.27441 9.56329 1.45157C9.53472 1.62301 9.51414 1.82989 9.49014 2.07105L10.6273 2.18535C10.6432 2.00302 10.6645 1.8212 10.6913 1.64016C10.6986 1.57549 10.7155 1.5123 10.7416 1.45271L9.72558 0.928088ZM10.6193 0.120011C10.2333 0.272637 9.9157 0.559028 9.72558 0.928088L10.7416 1.45271C10.8048 1.32983 10.9104 1.234 11.0388 1.18297L10.6193 0.120011ZM11.7783 0C11.5371 0 11.3279 -1.06447e-08 11.1542 0.0114296C10.9713 0.0188267 10.7907 0.055485 10.6193 0.120011L11.0388 1.18297C11.1009 1.16307 11.1656 1.15266 11.2308 1.15211C11.3565 1.14297 11.5222 1.14297 11.7794 1.14297L11.7783 0ZM13.2229 0H11.7783V1.14297H13.2229V0ZM14.3829 0.120011C14.2107 0.0557161 14.0294 0.0190694 13.8458 0.0114296C13.6732 -1.06447e-08 13.464 0 13.2229 0V1.14297C13.4789 1.14297 13.6435 1.14297 13.7703 1.15211C13.8355 1.15303 13.9002 1.16343 13.9624 1.18297L14.3829 0.120011ZM15.2756 0.928088C15.0852 0.559458 14.7677 0.272354 14.3818 0.120011L13.9624 1.18297C14.0908 1.234 14.1963 1.32983 14.2595 1.45271L15.2756 0.928088ZM16.5008 12C16.5008 13.061 16.0793 14.0785 15.3291 14.8287C14.579 15.5789 13.5615 16.0004 12.5006 16.0004V17.1433C13.8646 17.1433 15.1728 16.6015 16.1373 15.6369C17.1018 14.6723 17.6437 13.3641 17.6437 12H16.5008ZM12.5006 7.99962C13.5615 7.99962 14.579 8.42109 15.3291 9.1713C16.0793 9.92152 16.5008 10.939 16.5008 12H17.6437C17.6437 10.6359 17.1018 9.32767 16.1373 8.3631C15.1728 7.39854 13.8646 6.85665 12.5006 6.85665V7.99962ZM8.50038 12C8.50038 10.939 8.92183 9.92152 9.67201 9.1713C10.4222 8.42109 11.4397 7.99962 12.5006 7.99962V6.85665C11.1365 6.85665 9.82837 7.39854 8.86385 8.3631C7.89933 9.32767 7.35747 10.6359 7.35747 12H8.50038ZM12.5006 16.0004C11.4397 16.0004 10.4222 15.5789 9.67201 14.8287C8.92183 14.0785 8.50038 13.061 8.50038 12H7.35747C7.35747 13.3641 7.89933 14.6723 8.86385 15.6369C9.82837 16.6015 11.1365 17.1433 12.5006 17.1433V16.0004Z" fill="black"/>
</svg>
