<svg width="40" height="39" viewBox="0 0 40 39" fill="none" xmlns="http://www.w3.org/2000/svg">
<path d="M21.1409 6.63167C21.1305 7.42126 20.4929 8.05884 19.7034 8.06917C18.9138 8.05884 18.2762 7.42126 18.2659 6.63167V1.4375C18.2659 0.643591 18.9094 0 19.7034 0C20.4973 0 21.1409 0.643591 21.1409 1.4375V6.63167Z" fill="black"/>
<path fill-rule="evenodd" clip-rule="evenodd" d="M19.8375 9.8325H19.7033C16.0424 9.76614 12.6636 11.7916 10.9968 15.0518C9.33002 18.312 9.66663 22.237 11.8642 25.1658C13.7786 27.7275 14.8441 30.8236 14.9117 34.0208C15.2176 36.4342 17.2706 38.2435 19.7033 38.2435C22.1361 38.2435 24.1891 36.4342 24.495 34.0208C24.3934 30.9523 25.3473 27.9418 27.1975 25.4917C28.5034 23.8547 29.2372 21.8351 29.2867 19.7417C29.3524 14.4199 25.1564 10.0196 19.8375 9.8325ZM19.7033 35.9375C18.6448 35.9375 17.7867 35.0794 17.7867 34.0208V33.5225H21.735V34.0592C21.7255 34.5814 21.5033 35.0771 21.1198 35.4317C20.7363 35.7862 20.2247 35.9689 19.7033 35.9375Z" fill="black"/>
<path d="M19.7033 9.8325L19.7992 12.7075C22.3838 12.7462 24.722 14.2503 25.8289 16.5863C26.9358 18.9222 26.6193 21.6842 25.0125 23.7092C23.4608 25.7165 22.4214 28.0716 21.9842 30.5708H17.3842C16.8077 27.9938 15.7121 25.5612 14.1642 23.4217C12.6934 21.3511 12.5022 18.6326 13.6685 16.3765C14.8349 14.1204 17.1636 12.7046 19.7033 12.7075V9.8325Z" fill="black"/>
<path d="M33.7142 5.50083C33.1529 4.9403 32.2437 4.9403 31.6825 5.50083L28.0983 9.06583C27.5458 9.63779 27.5458 10.5447 28.0983 11.1167C28.6779 11.6501 29.5696 11.6501 30.1492 11.1167L33.7142 7.5325C34.2747 6.97127 34.2747 6.06207 33.7142 5.50083Z" fill="black"/>
<path d="M32.5833 17.3075H37.6242C38.4181 17.3075 39.0617 17.9511 39.0617 18.745C39.0617 19.5389 38.4181 20.1825 37.6242 20.1825H32.5833C31.7894 20.1825 31.1458 19.5389 31.1458 18.745C31.1458 17.9511 31.7894 17.3075 32.5833 17.3075Z" fill="black"/>
<path d="M6.47833 17.3075H1.4375C0.643591 17.3075 0 17.9511 0 18.745C0 19.5389 0.643591 20.1825 1.4375 20.1825H6.47833C7.27224 20.1825 7.91583 19.5389 7.91583 18.745C7.91583 17.9511 7.27224 17.3075 6.47833 17.3075Z" fill="black"/>
<path d="M11.5276 10.0912C11.5276 10.4769 11.3726 10.8464 11.0975 11.1167C10.8239 11.3776 10.4597 11.5219 10.0817 11.5192C9.70403 11.5199 9.34048 11.3759 9.06584 11.1167L5.50084 7.5325C5.11625 7.17414 4.95794 6.63443 5.08801 6.12511C5.21809 5.61579 5.61579 5.21808 6.12512 5.08801C6.63444 4.95794 7.17414 5.11625 7.5325 5.50083L11.0975 9.06583C11.3726 9.33611 11.5276 9.70559 11.5276 10.0912Z" fill="black"/>
</svg>
