<svg width="25" height="24" viewBox="0 0 25 24" fill="none" xmlns="http://www.w3.org/2000/svg">
<g clip-path="url(#clip0_5848_1769)">
<path d="M20.75 5.25V4.5C20.7483 3.9038 20.5107 3.3325 20.0891 2.91092C19.6675 2.48934 19.0962 2.25173 18.5 2.25H3.5C2.9038 2.25173 2.3325 2.48934 1.91092 2.91092C1.48934 3.3325 1.25173 3.9038 1.25 4.5V16.5C1.25173 17.0962 1.48934 17.6675 1.91092 18.0891C2.3325 18.5107 2.9038 18.7483 3.5 18.75H4.25" stroke="black" stroke-width="1.625" stroke-linejoin="round"/>
<path d="M21.5942 6H7.15578C5.96518 6 5 6.96518 5 8.15578V19.5942C5 20.7848 5.96518 21.75 7.15578 21.75H21.5942C22.7848 21.75 23.75 20.7848 23.75 19.5942V8.15578C23.75 6.96518 22.7848 6 21.5942 6Z" stroke="black" stroke-width="1.625" stroke-linejoin="round"/>
<path d="M17.9814 11.7276C18.778 11.7276 19.4238 11.0864 19.4238 10.2956C19.4238 9.50467 18.778 8.86353 17.9814 8.86353C17.1848 8.86353 16.5391 9.50467 16.5391 10.2956C16.5391 11.0864 17.1848 11.7276 17.9814 11.7276Z" stroke="black" stroke-width="1.625" stroke-miterlimit="10"/>
<path d="M16.5383 17.4453L12.4531 13.3958C12.192 13.1378 11.8427 12.9884 11.4757 12.9779C11.1087 12.9674 10.7514 13.0964 10.4759 13.3391L5 18.1705M12.9327 21.7498L18.4916 16.2312C18.7474 15.979 19.0875 15.8304 19.4464 15.8142C19.8054 15.798 20.1575 15.9154 20.435 16.1436L23.75 18.8863" stroke="black" stroke-width="1.625" stroke-linecap="round" stroke-linejoin="round"/>
</g>
<defs>
<clipPath id="clip0_5848_1769">
<rect width="24" height="24" fill="white" transform="translate(0.5)"/>
</clipPath>
</defs>
</svg>
