<svg width="24" height="28" viewBox="0 0 24 28" fill="none" xmlns="http://www.w3.org/2000/svg">
<path d="M22.9091 12.32H20.5909V4.48C20.5909 2.0055 18.6375 0 16.2273 0H7.77273C5.3625 0 3.40909 2.0055 3.40909 4.48V12.32H1.09091C0.4875 12.32 0 12.8205 0 13.44V26.88C0 27.4995 0.4875 28 1.09091 28H22.9091C23.5125 28 24 27.4995 24 26.88V13.44C24 12.8205 23.5125 12.32 22.9091 12.32ZM5.86364 4.48C5.86364 3.3985 6.71932 2.52 7.77273 2.52H16.2273C17.2807 2.52 18.1364 3.3985 18.1364 4.48V12.32H5.86364V4.48ZM21.5455 25.48H2.45455V14.84H21.5455V25.48ZM11.0455 20.615V22.47C11.0455 22.624 11.1682 22.75 11.3182 22.75H12.6818C12.8318 22.75 12.9545 22.624 12.9545 22.47V20.615C13.236 20.4076 13.446 20.1138 13.5544 19.776C13.6629 19.4382 13.6641 19.0738 13.558 18.7353C13.4519 18.3967 13.2439 18.1014 12.9639 17.892C12.6839 17.6825 12.3464 17.5697 12 17.5697C11.6536 17.5697 11.3161 17.6825 11.0361 17.892C10.7561 18.1014 10.5481 18.3967 10.442 18.7353C10.3359 19.0738 10.3371 19.4382 10.4456 19.776C10.554 20.1138 10.764 20.4076 11.0455 20.615Z" fill="black"/>
</svg>
