<svg width="119" height="58" viewBox="0 0 119 58" fill="none" xmlns="http://www.w3.org/2000/svg">
<path d="M7.36136 44.77C7.3245 44.7332 7.25606 44.6832 7.15603 44.62C7.06126 44.5568 6.9428 44.4963 6.80065 44.4383C6.66376 44.3752 6.51371 44.3225 6.3505 44.2804C6.18729 44.2383 6.02145 44.2172 5.85298 44.2172C5.55288 44.2172 5.32912 44.2725 5.18171 44.3831C5.03429 44.4936 4.96058 44.6489 4.96058 44.849C4.96058 44.9648 4.98691 45.0622 5.03956 45.1412C5.09747 45.2149 5.17907 45.2807 5.28437 45.3386C5.38967 45.3965 5.52129 45.4492 5.67924 45.4966C5.84245 45.544 6.02935 45.594 6.23994 45.6466C6.51371 45.7203 6.76116 45.7993 6.98229 45.8835C7.20868 45.9678 7.39821 46.0731 7.55089 46.1994C7.70884 46.3258 7.82993 46.4785 7.91417 46.6575C7.9984 46.8312 8.04052 47.0471 8.04052 47.3051C8.04052 47.6052 7.98261 47.8631 7.86678 48.079C7.75622 48.2896 7.60354 48.4607 7.40874 48.5923C7.2192 48.7239 6.99808 48.8213 6.74537 48.8845C6.49792 48.9424 6.23731 48.9714 5.96354 48.9714C5.54235 48.9714 5.12643 48.9082 4.71577 48.7818C4.30511 48.6555 3.93657 48.4765 3.61015 48.2448L4.09188 47.3051C4.13927 47.3524 4.2235 47.4156 4.3446 47.4946C4.47095 47.5683 4.61837 47.6446 4.78684 47.7236C4.95532 47.7973 5.14222 47.8605 5.34755 47.9131C5.55288 47.9658 5.76347 47.9921 5.97933 47.9921C6.57953 47.9921 6.87962 47.8 6.87962 47.4156C6.87962 47.2945 6.8454 47.1919 6.77696 47.1076C6.70851 47.0234 6.61111 46.9497 6.48476 46.8865C6.3584 46.8233 6.20572 46.7654 6.02672 46.7128C5.84771 46.6601 5.64765 46.6022 5.42652 46.539C5.15802 46.4653 4.92373 46.3863 4.72367 46.3021C4.52887 46.2126 4.36566 46.1099 4.23403 45.9941C4.10241 45.873 4.00238 45.7361 3.93394 45.5834C3.87076 45.4255 3.83917 45.2386 3.83917 45.0227C3.83917 44.7384 3.89182 44.4857 3.99712 44.2646C4.10241 44.0435 4.2472 43.8592 4.43147 43.7118C4.621 43.5644 4.83949 43.4538 5.08694 43.3801C5.33439 43.3011 5.60026 43.2616 5.88456 43.2616C6.27943 43.2616 6.6427 43.3248 6.97439 43.4512C7.30607 43.5723 7.59564 43.7171 7.84309 43.8855L7.36136 44.77ZM9.89071 48.9872C9.69064 48.9872 9.50374 48.9556 9.33 48.8924C9.15626 48.824 9.00621 48.7318 8.87985 48.616C8.7535 48.4949 8.65347 48.3554 8.57976 48.1974C8.51131 48.0395 8.47709 47.8658 8.47709 47.6762C8.47709 47.4814 8.51921 47.3024 8.60345 47.1392C8.69295 46.9707 8.81404 46.8286 8.96672 46.7128C9.12467 46.5969 9.31157 46.5074 9.52743 46.4443C9.74329 46.3758 9.98021 46.3416 10.2382 46.3416C10.4225 46.3416 10.6015 46.3574 10.7752 46.389C10.9542 46.4206 11.1122 46.4653 11.249 46.5232V46.2863C11.249 46.0125 11.1701 45.8019 11.0121 45.6545C10.8594 45.5071 10.6304 45.4334 10.3251 45.4334C10.1039 45.4334 9.88807 45.4729 9.67748 45.5519C9.46688 45.6308 9.25103 45.7467 9.0299 45.8993L8.70611 45.2281C9.23786 44.8753 9.81173 44.699 10.4277 44.699C11.0226 44.699 11.4833 44.8464 11.8097 45.1412C12.1414 45.4308 12.3073 45.852 12.3073 46.4048V47.692C12.3073 47.8026 12.3257 47.8816 12.3626 47.9289C12.4047 47.9763 12.4705 48.0026 12.56 48.0079V48.9082C12.381 48.9451 12.2257 48.9635 12.094 48.9635C11.894 48.9635 11.7387 48.9187 11.6281 48.8292C11.5228 48.7397 11.457 48.6213 11.4307 48.4739L11.407 48.2448C11.2227 48.487 10.999 48.6713 10.7357 48.7976C10.4725 48.924 10.1908 48.9872 9.89071 48.9872ZM10.1908 48.2132C10.3698 48.2132 10.5383 48.1817 10.6962 48.1185C10.8594 48.0553 10.9858 47.9711 11.0753 47.8658C11.1911 47.7763 11.249 47.6762 11.249 47.5657V47.0918C11.1227 47.0444 10.9858 47.0076 10.8384 46.9813C10.691 46.9497 10.5488 46.9339 10.4119 46.9339C10.1382 46.9339 9.9144 46.9971 9.74066 47.1234C9.56692 47.2445 9.48005 47.3998 9.48005 47.5894C9.48005 47.7684 9.54849 47.9184 9.68538 48.0395C9.82226 48.1553 9.99074 48.2132 10.1908 48.2132ZM13.2883 43.1432H14.3465V47.5815C14.3465 47.7341 14.3834 47.8526 14.4571 47.9368C14.5308 48.0211 14.6361 48.0632 14.7729 48.0632C14.8361 48.0632 14.9046 48.0527 14.9783 48.0316C15.0573 48.0105 15.131 47.9842 15.1994 47.9526L15.3416 48.7582C15.1994 48.8266 15.0336 48.8792 14.844 48.9161C14.6545 48.953 14.4834 48.9714 14.3307 48.9714C13.999 48.9714 13.741 48.8845 13.5568 48.7108C13.3778 48.5318 13.2883 48.2791 13.2883 47.9526V43.1432ZM16.8313 48.9082L15.3071 44.77H16.397L17.4473 48.0474L18.5055 44.77H19.5006L17.9764 48.9082H16.8313ZM21.0811 48.9872C20.881 48.9872 20.6941 48.9556 20.5204 48.8924C20.3466 48.824 20.1966 48.7318 20.0702 48.616C19.9439 48.4949 19.8438 48.3554 19.7701 48.1974C19.7017 48.0395 19.6675 47.8658 19.6675 47.6762C19.6675 47.4814 19.7096 47.3024 19.7938 47.1392C19.8833 46.9707 20.0044 46.8286 20.1571 46.7128C20.315 46.5969 20.502 46.5074 20.7178 46.4443C20.9337 46.3758 21.1706 46.3416 21.4286 46.3416C21.6128 46.3416 21.7918 46.3574 21.9656 46.389C22.1446 46.4206 22.3025 46.4653 22.4394 46.5232V46.2863C22.4394 46.0125 22.3604 45.8019 22.2025 45.6545C22.0498 45.5071 21.8208 45.4334 21.5154 45.4334C21.2943 45.4334 21.0785 45.4729 20.8679 45.5519C20.6573 45.6308 20.4414 45.7467 20.2203 45.8993L19.8965 45.2281C20.4282 44.8753 21.0021 44.699 21.6181 44.699C22.213 44.699 22.6737 44.8464 23.0001 45.1412C23.3318 45.4308 23.4977 45.852 23.4977 46.4048V47.692C23.4977 47.8026 23.5161 47.8816 23.5529 47.9289C23.5951 47.9763 23.6609 48.0026 23.7504 48.0079V48.9082C23.5714 48.9451 23.416 48.9635 23.2844 48.9635C23.0844 48.9635 22.929 48.9187 22.8185 48.8292C22.7132 48.7397 22.6474 48.6213 22.6211 48.4739L22.5974 48.2448C22.4131 48.487 22.1893 48.6713 21.9261 48.7976C21.6629 48.924 21.3812 48.9872 21.0811 48.9872ZM21.3812 48.2132C21.5602 48.2132 21.7287 48.1817 21.8866 48.1185C22.0498 48.0553 22.1762 47.9711 22.2657 47.8658C22.3815 47.7763 22.4394 47.6762 22.4394 47.5657V47.0918C22.3131 47.0444 22.1762 47.0076 22.0288 46.9813C21.8813 46.9497 21.7392 46.9339 21.6023 46.9339C21.3285 46.9339 21.1048 46.9971 20.931 47.1234C20.7573 47.2445 20.6704 47.3998 20.6704 47.5894C20.6704 47.7684 20.7389 47.9184 20.8758 48.0395C21.0126 48.1553 21.1811 48.2132 21.3812 48.2132ZM26.9354 48.695C26.7933 48.7582 26.6195 48.8213 26.4142 48.8845C26.2089 48.9477 25.993 48.9793 25.7666 48.9793C25.6192 48.9793 25.4797 48.9609 25.3481 48.924C25.2217 48.8871 25.1085 48.8292 25.0085 48.7503C24.9137 48.666 24.8374 48.5607 24.7795 48.4344C24.7216 48.3027 24.6926 48.1448 24.6926 47.9605V45.5834H24.1477V44.77H24.6926V43.4275H25.7508V44.77H26.6195V45.5834H25.7508V47.6052C25.7508 47.7526 25.7877 47.8579 25.8614 47.921C25.9404 47.979 26.0351 48.0079 26.1457 48.0079C26.2563 48.0079 26.3642 47.9895 26.4695 47.9526C26.5748 47.9158 26.659 47.8842 26.7222 47.8579L26.9354 48.695ZM28.6159 48.9872C28.4158 48.9872 28.2289 48.9556 28.0552 48.8924C27.8814 48.824 27.7314 48.7318 27.605 48.616C27.4787 48.4949 27.3786 48.3554 27.3049 48.1974C27.2365 48.0395 27.2023 47.8658 27.2023 47.6762C27.2023 47.4814 27.2444 47.3024 27.3286 47.1392C27.4181 46.9707 27.5392 46.8286 27.6919 46.7128C27.8499 46.5969 28.0368 46.5074 28.2526 46.4443C28.4685 46.3758 28.7054 46.3416 28.9634 46.3416C29.1476 46.3416 29.3266 46.3574 29.5004 46.389C29.6794 46.4206 29.8373 46.4653 29.9742 46.5232V46.2863C29.9742 46.0125 29.8952 45.8019 29.7373 45.6545C29.5846 45.5071 29.3556 45.4334 29.0502 45.4334C28.8291 45.4334 28.6133 45.4729 28.4027 45.5519C28.1921 45.6308 27.9762 45.7467 27.7551 45.8993L27.4313 45.2281C27.963 44.8753 28.5369 44.699 29.1529 44.699C29.7478 44.699 30.2085 44.8464 30.5349 45.1412C30.8666 45.4308 31.0325 45.852 31.0325 46.4048V47.692C31.0325 47.8026 31.0509 47.8816 31.0877 47.9289C31.1299 47.9763 31.1957 48.0026 31.2852 48.0079V48.9082C31.1062 48.9451 30.9509 48.9635 30.8192 48.9635C30.6192 48.9635 30.4639 48.9187 30.3533 48.8292C30.248 48.7397 30.1822 48.6213 30.1559 48.4739L30.1322 48.2448C29.9479 48.487 29.7241 48.6713 29.4609 48.7976C29.1977 48.924 28.916 48.9872 28.6159 48.9872ZM28.916 48.2132C29.095 48.2132 29.2635 48.1817 29.4214 48.1185C29.5846 48.0553 29.711 47.9711 29.8005 47.8658C29.9163 47.7763 29.9742 47.6762 29.9742 47.5657V47.0918C29.8479 47.0444 29.711 47.0076 29.5636 46.9813C29.4161 46.9497 29.274 46.9339 29.1371 46.9339C28.8633 46.9339 28.6396 46.9971 28.4658 47.1234C28.2921 47.2445 28.2052 47.3998 28.2052 47.5894C28.2052 47.7684 28.2737 47.9184 28.4106 48.0395C28.5474 48.1553 28.7159 48.2132 28.916 48.2132ZM33.6403 48.9319C33.3612 48.9319 33.1085 48.8766 32.8821 48.7661C32.6558 48.6555 32.4583 48.5054 32.2898 48.3159C32.1266 48.1211 32.0003 47.8974 31.9108 47.6446C31.8213 47.3919 31.7765 47.1234 31.7765 46.8391C31.7765 46.539 31.8239 46.26 31.9187 46.002C32.0134 45.744 32.1451 45.5176 32.3135 45.3228C32.482 45.128 32.6847 44.9754 32.9216 44.8648C33.1585 44.7542 33.4192 44.699 33.7035 44.699C34.0246 44.699 34.3063 44.7727 34.5485 44.9201C34.7907 45.0622 34.9907 45.2544 35.1487 45.4966V44.77H36.0726V48.7108C36.0726 49.0161 36.0147 49.2899 35.8989 49.5321C35.7831 49.7743 35.6225 49.9796 35.4172 50.1481C35.2171 50.3166 34.9749 50.4455 34.6906 50.535C34.4116 50.6245 34.1062 50.6693 33.7745 50.6693C33.3218 50.6693 32.9401 50.593 32.6294 50.4403C32.3241 50.2929 32.0608 50.0823 31.8397 49.8085L32.4162 49.2478C32.5742 49.4426 32.7716 49.5953 33.0085 49.7058C33.2507 49.8164 33.506 49.8717 33.7745 49.8717C33.9377 49.8717 34.0931 49.848 34.2405 49.8006C34.3932 49.7585 34.5274 49.69 34.6432 49.5953C34.7591 49.5005 34.8486 49.3794 34.9117 49.232C34.9802 49.0846 35.0144 48.9108 35.0144 48.7108V48.1896C34.8775 48.4265 34.6854 48.6107 34.4379 48.7424C34.1905 48.8687 33.9246 48.9319 33.6403 48.9319ZM33.9957 48.0869C34.1115 48.0869 34.222 48.0685 34.3273 48.0316C34.4326 47.9948 34.53 47.9447 34.6195 47.8816C34.709 47.8184 34.788 47.7447 34.8565 47.6604C34.9249 47.5762 34.9776 47.4867 35.0144 47.3919V46.4048C34.9196 46.1626 34.7696 45.9678 34.5643 45.8204C34.3642 45.673 34.1536 45.5992 33.9325 45.5992C33.7693 45.5992 33.6219 45.6361 33.4902 45.7098C33.3586 45.7782 33.2454 45.873 33.1507 45.9941C33.0559 46.1099 32.9822 46.2442 32.9295 46.3969C32.8821 46.5495 32.8585 46.7075 32.8585 46.8707C32.8585 47.0392 32.8874 47.1971 32.9453 47.3445C33.0032 47.492 33.0822 47.6209 33.1822 47.7315C33.2875 47.8421 33.4086 47.9289 33.5455 47.9921C33.6824 48.0553 33.8325 48.0869 33.9957 48.0869ZM38.6455 48.9319C38.3665 48.9319 38.1137 48.8766 37.8874 48.7661C37.661 48.6555 37.4635 48.5054 37.2951 48.3159C37.1318 48.1211 37.0055 47.8974 36.916 47.6446C36.8265 47.3919 36.7817 47.1234 36.7817 46.8391C36.7817 46.539 36.8291 46.26 36.9239 46.002C37.0187 45.744 37.1503 45.5176 37.3187 45.3228C37.4872 45.128 37.6899 44.9754 37.9268 44.8648C38.1638 44.7542 38.4244 44.699 38.7087 44.699C39.0298 44.699 39.3115 44.7727 39.5537 44.9201C39.7959 45.0622 39.9959 45.2544 40.1539 45.4966V44.77H41.0779V48.7108C41.0779 49.0161 41.0199 49.2899 40.9041 49.5321C40.7883 49.7743 40.6277 49.9796 40.4224 50.1481C40.2223 50.3166 39.9801 50.4455 39.6958 50.535C39.4168 50.6245 39.1114 50.6693 38.7797 50.6693C38.327 50.6693 37.9453 50.593 37.6346 50.4403C37.3293 50.2929 37.066 50.0823 36.8449 49.8085L37.4214 49.2478C37.5794 49.4426 37.7768 49.5953 38.0137 49.7058C38.2559 49.8164 38.5112 49.8717 38.7797 49.8717C38.943 49.8717 39.0983 49.848 39.2457 49.8006C39.3984 49.7585 39.5326 49.69 39.6484 49.5953C39.7643 49.5005 39.8538 49.3794 39.917 49.232C39.9854 49.0846 40.0196 48.9108 40.0196 48.7108V48.1896C39.8827 48.4265 39.6906 48.6107 39.4431 48.7424C39.1957 48.8687 38.9298 48.9319 38.6455 48.9319ZM39.0009 48.0869C39.1167 48.0869 39.2273 48.0685 39.3326 48.0316C39.4379 47.9948 39.5353 47.9447 39.6248 47.8816C39.7143 47.8184 39.7932 47.7447 39.8617 47.6604C39.9301 47.5762 39.9828 47.4867 40.0196 47.3919V46.4048C39.9248 46.1626 39.7748 45.9678 39.5695 45.8204C39.3694 45.673 39.1588 45.5992 38.9377 45.5992C38.7745 45.5992 38.6271 45.6361 38.4954 45.7098C38.3638 45.7782 38.2506 45.873 38.1559 45.9941C38.0611 46.1099 37.9874 46.2442 37.9347 46.3969C37.8874 46.5495 37.8637 46.7075 37.8637 46.8707C37.8637 47.0392 37.8926 47.1971 37.9505 47.3445C38.0084 47.492 38.0874 47.6209 38.1874 47.7315C38.2927 47.8421 38.4138 47.9289 38.5507 47.9921C38.6876 48.0553 38.8377 48.0869 39.0009 48.0869ZM42.0318 48.9082V44.77H43.09V48.9082H42.0318ZM42.0318 44.1935V43.1432H43.09V44.1935H42.0318ZM45.9558 48.9872C45.6188 48.9872 45.3161 48.9293 45.0476 48.8134C44.7791 48.6976 44.5501 48.5423 44.3605 48.3475C44.1763 48.1474 44.0341 47.9184 43.9341 47.6604C43.834 47.4025 43.784 47.1313 43.784 46.847C43.784 46.5574 43.834 46.2837 43.9341 46.0257C44.0341 45.7677 44.1763 45.5413 44.3605 45.3465C44.5501 45.1465 44.7791 44.9885 45.0476 44.8727C45.3161 44.7569 45.6188 44.699 45.9558 44.699C46.2927 44.699 46.5928 44.7569 46.8561 44.8727C47.1246 44.9885 47.351 45.1465 47.5352 45.3465C47.7248 45.5413 47.8696 45.7677 47.9696 46.0257C48.0696 46.2837 48.1196 46.5574 48.1196 46.847C48.1196 47.1313 48.0696 47.4025 47.9696 47.6604C47.8696 47.9184 47.7274 48.1474 47.5431 48.3475C47.3589 48.5423 47.1325 48.6976 46.864 48.8134C46.5955 48.9293 46.2927 48.9872 45.9558 48.9872ZM44.8739 46.847C44.8739 47.0313 44.9002 47.1998 44.9528 47.3524C45.0107 47.4999 45.0871 47.6288 45.1818 47.7394C45.2819 47.85 45.3977 47.9368 45.5293 48C45.6609 48.0579 45.8031 48.0869 45.9558 48.0869C46.1085 48.0869 46.2506 48.0579 46.3822 48C46.5139 47.9368 46.627 47.85 46.7218 47.7394C46.8218 47.6288 46.8982 47.4972 46.9508 47.3445C47.0087 47.1919 47.0377 47.0234 47.0377 46.8391C47.0377 46.6601 47.0087 46.4943 46.9508 46.3416C46.8982 46.1889 46.8218 46.0573 46.7218 45.9467C46.627 45.8362 46.5139 45.7519 46.3822 45.694C46.2506 45.6308 46.1085 45.5992 45.9558 45.5992C45.8031 45.5992 45.6609 45.6308 45.5293 45.694C45.3977 45.7572 45.2819 45.8441 45.1818 45.9546C45.0871 46.0652 45.0107 46.1968 44.9528 46.3495C44.9002 46.5022 44.8739 46.668 44.8739 46.847ZM52.4448 48.9872C52.1605 48.9872 51.8973 48.9319 51.6551 48.8213C51.4129 48.7108 51.2049 48.5581 51.0312 48.3633C50.8575 48.1685 50.7206 47.9421 50.6205 47.6841C50.5258 47.4209 50.4784 47.1392 50.4784 46.8391C50.4784 46.539 50.5231 46.26 50.6126 46.002C50.7074 45.744 50.8364 45.5176 50.9996 45.3228C51.1628 45.128 51.3576 44.9754 51.584 44.8648C51.8104 44.7542 52.0578 44.699 52.3264 44.699C52.6317 44.699 52.9055 44.7727 53.1477 44.9201C53.3951 45.0675 53.5873 45.2597 53.7242 45.4966V43.1432H54.7824V47.692C54.7824 47.8026 54.8008 47.8816 54.8377 47.9289C54.8745 47.9763 54.9377 48.0026 55.0272 48.0079V48.9082C54.8429 48.9451 54.6929 48.9635 54.5771 48.9635C54.3875 48.9635 54.2322 48.9161 54.1111 48.8213C53.99 48.7266 53.9216 48.6028 53.9058 48.4502L53.8821 48.1896C53.7294 48.4528 53.5215 48.6529 53.2582 48.7897C53.0003 48.9214 52.7291 48.9872 52.4448 48.9872ZM52.7212 48.0869C52.8212 48.0869 52.9239 48.0711 53.0292 48.0395C53.1345 48.0026 53.2319 47.9526 53.3214 47.8895C53.4109 47.8263 53.4899 47.7526 53.5583 47.6683C53.632 47.5841 53.6873 47.492 53.7242 47.3919V46.4048C53.682 46.2889 53.6215 46.1836 53.5425 46.0889C53.4688 45.9888 53.382 45.9046 53.2819 45.8362C53.1872 45.7625 53.0845 45.7045 52.9739 45.6624C52.8686 45.6203 52.7633 45.5992 52.658 45.5992C52.5001 45.5992 52.3527 45.6335 52.2158 45.7019C52.0842 45.7704 51.971 45.8651 51.8762 45.9862C51.7814 46.102 51.7077 46.2363 51.6551 46.389C51.6024 46.5417 51.5761 46.6996 51.5761 46.8628C51.5761 47.0365 51.6051 47.1971 51.663 47.3445C51.7209 47.492 51.7999 47.6209 51.8999 47.7315C51.9999 47.8421 52.1184 47.9289 52.2553 47.9921C52.3974 48.0553 52.5527 48.0869 52.7212 48.0869ZM57.7402 48.9872C57.4085 48.9872 57.1084 48.9319 56.8399 48.8213C56.5714 48.7055 56.3424 48.5502 56.1528 48.3554C55.9633 48.1606 55.8159 47.9342 55.7106 47.6762C55.6105 47.4183 55.5605 47.1471 55.5605 46.8628C55.5605 46.568 55.6105 46.2916 55.7106 46.0336C55.8106 45.7704 55.9554 45.5413 56.1449 45.3465C56.3345 45.1465 56.5635 44.9885 56.832 44.8727C57.1058 44.7569 57.4111 44.699 57.7481 44.699C58.085 44.699 58.3851 44.7569 58.6484 44.8727C58.9169 44.9885 59.1433 45.1438 59.3275 45.3386C59.5171 45.5334 59.6592 45.7598 59.754 46.0178C59.854 46.2758 59.904 46.5443 59.904 46.8233C59.904 46.8918 59.9014 46.9576 59.8961 47.0208C59.8961 47.0839 59.8909 47.1366 59.8803 47.1787H56.6819C56.6977 47.3419 56.7372 47.4867 56.8004 47.613C56.8636 47.7394 56.9452 47.8473 57.0452 47.9368C57.1453 48.0263 57.2584 48.0948 57.3848 48.1422C57.5112 48.1896 57.6428 48.2132 57.7797 48.2132C57.9903 48.2132 58.1877 48.1632 58.372 48.0632C58.5615 47.9579 58.6905 47.821 58.7589 47.6525L59.6671 47.9052C59.5144 48.2211 59.2696 48.4818 58.9327 48.6871C58.601 48.8871 58.2035 48.9872 57.7402 48.9872ZM58.8142 46.4916C58.7879 46.181 58.6721 45.9336 58.4667 45.7493C58.2667 45.5598 58.0219 45.465 57.7323 45.465C57.5901 45.465 57.4559 45.4913 57.3295 45.544C57.2084 45.5913 57.1005 45.6598 57.0057 45.7493C56.911 45.8388 56.832 45.9467 56.7688 46.0731C56.7109 46.1994 56.6767 46.339 56.6662 46.4916H58.8142ZM60.5487 48.9082V44.77H61.6069V48.9082H60.5487ZM60.5487 44.1935V43.1432H61.6069V44.1935H60.5487ZM66.1725 48.9872C65.8882 48.9872 65.625 48.9319 65.3828 48.8213C65.1406 48.7108 64.9326 48.5581 64.7589 48.3633C64.5851 48.1685 64.4483 47.9421 64.3482 47.6841C64.2535 47.4209 64.2061 47.1392 64.2061 46.8391C64.2061 46.539 64.2508 46.26 64.3403 46.002C64.4351 45.744 64.5641 45.5176 64.7273 45.3228C64.8905 45.128 65.0853 44.9754 65.3117 44.8648C65.5381 44.7542 65.7855 44.699 66.054 44.699C66.3594 44.699 66.6332 44.7727 66.8754 44.9201C67.1228 45.0675 67.315 45.2597 67.4519 45.4966V43.1432H68.5101V47.692C68.5101 47.8026 68.5285 47.8816 68.5654 47.9289C68.6022 47.9763 68.6654 48.0026 68.7549 48.0079V48.9082C68.5706 48.9451 68.4206 48.9635 68.3048 48.9635C68.1152 48.9635 67.9599 48.9161 67.8388 48.8213C67.7177 48.7266 67.6493 48.6028 67.6335 48.4502L67.6098 48.1896C67.4571 48.4528 67.2492 48.6529 66.9859 48.7897C66.7279 48.9214 66.4568 48.9872 66.1725 48.9872ZM66.4489 48.0869C66.5489 48.0869 66.6516 48.0711 66.7569 48.0395C66.8622 48.0026 66.9596 47.9526 67.0491 47.8895C67.1386 47.8263 67.2176 47.7526 67.286 47.6683C67.3597 47.5841 67.415 47.492 67.4519 47.3919V46.4048C67.4097 46.2889 67.3492 46.1836 67.2702 46.0889C67.1965 45.9888 67.1096 45.9046 67.0096 45.8362C66.9148 45.7625 66.8122 45.7045 66.7016 45.6624C66.5963 45.6203 66.491 45.5992 66.3857 45.5992C66.2278 45.5992 66.0804 45.6335 65.9435 45.7019C65.8119 45.7704 65.6987 45.8651 65.6039 45.9862C65.5091 46.102 65.4354 46.2363 65.3828 46.389C65.3301 46.5417 65.3038 46.6996 65.3038 46.8628C65.3038 47.0365 65.3328 47.1971 65.3907 47.3445C65.4486 47.492 65.5276 47.6209 65.6276 47.7315C65.7276 47.8421 65.8461 47.9289 65.983 47.9921C66.1251 48.0553 66.2804 48.0869 66.4489 48.0869ZM70.6781 48.9872C70.4781 48.9872 70.2912 48.9556 70.1174 48.8924C69.9437 48.824 69.7937 48.7318 69.6673 48.616C69.5409 48.4949 69.4409 48.3554 69.3672 48.1974C69.2988 48.0395 69.2645 47.8658 69.2645 47.6762C69.2645 47.4814 69.3067 47.3024 69.3909 47.1392C69.4804 46.9707 69.6015 46.8286 69.7542 46.7128C69.9121 46.5969 70.099 46.5074 70.3149 46.4443C70.5307 46.3758 70.7676 46.3416 71.0256 46.3416C71.2099 46.3416 71.3889 46.3574 71.5626 46.389C71.7416 46.4206 71.8996 46.4653 72.0365 46.5232V46.2863C72.0365 46.0125 71.9575 45.8019 71.7996 45.6545C71.6469 45.5071 71.4179 45.4334 71.1125 45.4334C70.8914 45.4334 70.6755 45.4729 70.4649 45.5519C70.2543 45.6308 70.0385 45.7467 69.8173 45.8993L69.4936 45.2281C70.0253 44.8753 70.5992 44.699 71.2152 44.699C71.8101 44.699 72.2708 44.8464 72.5972 45.1412C72.9289 45.4308 73.0947 45.852 73.0947 46.4048V47.692C73.0947 47.8026 73.1131 47.8816 73.15 47.9289C73.1921 47.9763 73.2579 48.0026 73.3474 48.0079V48.9082C73.1684 48.9451 73.0131 48.9635 72.8815 48.9635C72.6814 48.9635 72.5261 48.9187 72.4155 48.8292C72.3102 48.7397 72.2444 48.6213 72.2181 48.4739L72.1944 48.2448C72.0102 48.487 71.7864 48.6713 71.5232 48.7976C71.2599 48.924 70.9782 48.9872 70.6781 48.9872ZM70.9782 48.2132C71.1572 48.2132 71.3257 48.1817 71.4837 48.1185C71.6469 48.0553 71.7732 47.9711 71.8627 47.8658C71.9786 47.7763 72.0365 47.6762 72.0365 47.5657V47.0918C71.9101 47.0444 71.7732 47.0076 71.6258 46.9813C71.4784 46.9497 71.3363 46.9339 71.1994 46.9339C70.9256 46.9339 70.7018 46.9971 70.5281 47.1234C70.3544 47.2445 70.2675 47.3998 70.2675 47.5894C70.2675 47.7684 70.3359 47.9184 70.4728 48.0395C70.6097 48.1553 70.7782 48.2132 70.9782 48.2132ZM76.5325 48.695C76.3903 48.7582 76.2166 48.8213 76.0113 48.8845C75.8059 48.9477 75.5901 48.9793 75.3637 48.9793C75.2163 48.9793 75.0768 48.9609 74.9451 48.924C74.8188 48.8871 74.7056 48.8292 74.6056 48.7503C74.5108 48.666 74.4345 48.5607 74.3765 48.4344C74.3186 48.3027 74.2897 48.1448 74.2897 47.9605V45.5834H73.7448V44.77H74.2897V43.4275H75.3479V44.77H76.2166V45.5834H75.3479V47.6052C75.3479 47.7526 75.3848 47.8579 75.4585 47.921C75.5374 47.979 75.6322 48.0079 75.7428 48.0079C75.8533 48.0079 75.9613 47.9895 76.0666 47.9526C76.1719 47.9158 76.2561 47.8842 76.3193 47.8579L76.5325 48.695ZM77.0836 48.9082V44.77H78.1419V48.9082H77.0836ZM77.0836 44.1935V43.1432H78.1419V44.1935H77.0836ZM82.123 48.9872C81.923 48.9872 81.7361 48.9556 81.5623 48.8924C81.3886 48.824 81.2385 48.7318 81.1122 48.616C80.9858 48.4949 80.8858 48.3554 80.8121 48.1974C80.7436 48.0395 80.7094 47.8658 80.7094 47.6762C80.7094 47.4814 80.7515 47.3024 80.8358 47.1392C80.9253 46.9707 81.0464 46.8286 81.199 46.7128C81.357 46.5969 81.5439 46.5074 81.7597 46.4443C81.9756 46.3758 82.2125 46.3416 82.4705 46.3416C82.6548 46.3416 82.8338 46.3574 83.0075 46.389C83.1865 46.4206 83.3445 46.4653 83.4814 46.5232V46.2863C83.4814 46.0125 83.4024 45.8019 83.2444 45.6545C83.0918 45.5071 82.8627 45.4334 82.5574 45.4334C82.3362 45.4334 82.1204 45.4729 81.9098 45.5519C81.6992 45.6308 81.4833 45.7467 81.2622 45.8993L80.9384 45.2281C81.4702 44.8753 82.044 44.699 82.66 44.699C83.255 44.699 83.7156 44.8464 84.0421 45.1412C84.3737 45.4308 84.5396 45.852 84.5396 46.4048V47.692C84.5396 47.8026 84.558 47.8816 84.5949 47.9289C84.637 47.9763 84.7028 48.0026 84.7923 48.0079V48.9082C84.6133 48.9451 84.458 48.9635 84.3264 48.9635C84.1263 48.9635 83.971 48.9187 83.8604 48.8292C83.7551 48.7397 83.6893 48.6213 83.663 48.4739L83.6393 48.2448C83.455 48.487 83.2313 48.6713 82.968 48.7976C82.7048 48.924 82.4231 48.9872 82.123 48.9872ZM82.4231 48.2132C82.6021 48.2132 82.7706 48.1817 82.9285 48.1185C83.0918 48.0553 83.2181 47.9711 83.3076 47.8658C83.4234 47.7763 83.4814 47.6762 83.4814 47.5657V47.0918C83.355 47.0444 83.2181 47.0076 83.0707 46.9813C82.9233 46.9497 82.7811 46.9339 82.6442 46.9339C82.3705 46.9339 82.1467 46.9971 81.973 47.1234C81.7992 47.2445 81.7124 47.3998 81.7124 47.5894C81.7124 47.7684 81.7808 47.9184 81.9177 48.0395C82.0546 48.1553 82.2231 48.2132 82.4231 48.2132ZM86.534 48.9082L85.0098 44.77H86.0997L87.15 48.0474L88.2082 44.77H89.2033L87.6791 48.9082H86.534ZM90.8683 48.9082L89.3441 44.77H90.4339L91.4843 48.0474L92.5425 44.77H93.5375L92.0134 48.9082H90.8683ZM95.8692 48.9872C95.5375 48.9872 95.2374 48.9319 94.9689 48.8213C94.7004 48.7055 94.4714 48.5502 94.2819 48.3554C94.0923 48.1606 93.9449 47.9342 93.8396 47.6762C93.7396 47.4183 93.6896 47.1471 93.6896 46.8628C93.6896 46.568 93.7396 46.2916 93.8396 46.0336C93.9397 45.7704 94.0844 45.5413 94.274 45.3465C94.4635 45.1465 94.6925 44.9885 94.961 44.8727C95.2348 44.7569 95.5402 44.699 95.8771 44.699C96.2141 44.699 96.5142 44.7569 96.7774 44.8727C97.0459 44.9885 97.2723 45.1438 97.4566 45.3386C97.6461 45.5334 97.7883 45.7598 97.883 46.0178C97.9831 46.2758 98.0331 46.5443 98.0331 46.8233C98.0331 46.8918 98.0304 46.9576 98.0252 47.0208C98.0252 47.0839 98.0199 47.1366 98.0094 47.1787H94.811C94.8268 47.3419 94.8663 47.4867 94.9294 47.613C94.9926 47.7394 95.0742 47.8473 95.1743 47.9368C95.2743 48.0263 95.3875 48.0948 95.5138 48.1422C95.6402 48.1896 95.7718 48.2132 95.9087 48.2132C96.1193 48.2132 96.3167 48.1632 96.501 48.0632C96.6905 47.9579 96.8195 47.821 96.888 47.6525L97.7962 47.9052C97.6435 48.2211 97.3987 48.4818 97.0617 48.6871C96.73 48.8871 96.3325 48.9872 95.8692 48.9872ZM96.9433 46.4916C96.9169 46.181 96.8011 45.9336 96.5958 45.7493C96.3957 45.5598 96.1509 45.465 95.8613 45.465C95.7192 45.465 95.5849 45.4913 95.4586 45.544C95.3375 45.5913 95.2295 45.6598 95.1348 45.7493C95.04 45.8388 94.961 45.9467 94.8979 46.0731C94.8399 46.1994 94.8057 46.339 94.7952 46.4916H96.9433ZM102.524 48.9082H101.465V46.5864C101.465 46.2547 101.408 46.0125 101.292 45.8599C101.176 45.7072 101.015 45.6308 100.81 45.6308C100.705 45.6308 100.597 45.6519 100.486 45.694C100.376 45.7361 100.27 45.7967 100.17 45.8756C100.076 45.9494 99.9887 46.0389 99.9097 46.1442C99.8308 46.2495 99.7728 46.3653 99.736 46.4916V48.9082H98.6778V44.77H99.6333V45.5361C99.786 45.2728 100.007 45.0675 100.297 44.9201C100.586 44.7727 100.913 44.699 101.276 44.699C101.534 44.699 101.745 44.7463 101.908 44.8411C102.071 44.9359 102.197 45.0596 102.287 45.2123C102.376 45.365 102.437 45.5387 102.468 45.7335C102.505 45.9283 102.524 46.1257 102.524 46.3258V48.9082ZM104.707 48.9872C104.281 48.9872 103.957 48.8503 103.736 48.5765C103.515 48.3027 103.404 47.8974 103.404 47.3603V44.77H104.463V47.1313C104.463 47.7684 104.692 48.0869 105.15 48.0869C105.355 48.0869 105.552 48.0263 105.742 47.9052C105.937 47.7789 106.095 47.5894 106.216 47.3366V44.77H107.274V47.692C107.274 47.8026 107.292 47.8816 107.329 47.9289C107.371 47.9763 107.437 48.0026 107.527 48.0079V48.9082C107.421 48.9293 107.332 48.9424 107.258 48.9477C107.19 48.953 107.127 48.9556 107.069 48.9556C106.879 48.9556 106.724 48.9135 106.603 48.8292C106.487 48.7397 106.419 48.6186 106.397 48.466L106.374 48.1343C106.19 48.4186 105.953 48.6318 105.663 48.7739C105.373 48.9161 105.055 48.9872 104.707 48.9872ZM110.805 48.695C110.663 48.7582 110.49 48.8213 110.284 48.8845C110.079 48.9477 109.863 48.9793 109.637 48.9793C109.489 48.9793 109.35 48.9609 109.218 48.924C109.092 48.8871 108.979 48.8292 108.879 48.7503C108.784 48.666 108.707 48.5607 108.649 48.4344C108.592 48.3027 108.563 48.1448 108.563 47.9605V45.5834H108.018V44.77H108.563V43.4275H109.621V44.77H110.49V45.5834H109.621V47.6052C109.621 47.7526 109.658 47.8579 109.731 47.921C109.81 47.979 109.905 48.0079 110.016 48.0079C110.126 48.0079 110.234 47.9895 110.34 47.9526C110.445 47.9158 110.529 47.8842 110.592 47.8579L110.805 48.695ZM113.167 48.9872C112.831 48.9872 112.528 48.9293 112.259 48.8134C111.991 48.6976 111.762 48.5423 111.572 48.3475C111.388 48.1474 111.246 47.9184 111.146 47.6604C111.046 47.4025 110.996 47.1313 110.996 46.847C110.996 46.5574 111.046 46.2837 111.146 46.0257C111.246 45.7677 111.388 45.5413 111.572 45.3465C111.762 45.1465 111.991 44.9885 112.259 44.8727C112.528 44.7569 112.831 44.699 113.167 44.699C113.504 44.699 113.805 44.7569 114.068 44.8727C114.336 44.9885 114.563 45.1465 114.747 45.3465C114.936 45.5413 115.081 45.7677 115.181 46.0257C115.281 46.2837 115.331 46.5574 115.331 46.847C115.331 47.1313 115.281 47.4025 115.181 47.6604C115.081 47.9184 114.939 48.1474 114.755 48.3475C114.571 48.5423 114.344 48.6976 114.076 48.8134C113.807 48.9293 113.504 48.9872 113.167 48.9872ZM112.086 46.847C112.086 47.0313 112.112 47.1998 112.165 47.3524C112.222 47.4999 112.299 47.6288 112.394 47.7394C112.494 47.85 112.609 47.9368 112.741 48C112.873 48.0579 113.015 48.0869 113.167 48.0869C113.32 48.0869 113.462 48.0579 113.594 48C113.726 47.9368 113.839 47.85 113.934 47.7394C114.034 47.6288 114.11 47.4972 114.163 47.3445C114.22 47.1919 114.249 47.0234 114.249 46.8391C114.249 46.6601 114.22 46.4943 114.163 46.3416C114.11 46.1889 114.034 46.0573 113.934 45.9467C113.839 45.8362 113.726 45.7519 113.594 45.694C113.462 45.6308 113.32 45.5992 113.167 45.5992C113.015 45.5992 112.873 45.6308 112.741 45.694C112.609 45.7572 112.494 45.8441 112.394 45.9546C112.299 46.0652 112.222 46.1968 112.165 46.3495C112.112 46.5022 112.086 46.668 112.086 46.847ZM33.253 55.8391C33.253 55.5495 33.3031 55.2758 33.4031 55.0178C33.5031 54.7598 33.6479 54.5334 33.8374 54.3386C34.027 54.1438 34.256 53.9885 34.5245 53.8727C34.793 53.7569 35.0957 53.699 35.4327 53.699C35.8855 53.699 36.2698 53.7964 36.5857 53.9912C36.9068 54.186 37.1464 54.4413 37.3043 54.7572L36.2698 55.0731C36.1803 54.9204 36.0618 54.8046 35.9144 54.7256C35.767 54.6414 35.6038 54.5992 35.4248 54.5992C35.2721 54.5992 35.13 54.6308 34.9983 54.694C34.8667 54.7519 34.7509 54.8362 34.6509 54.9467C34.5561 55.052 34.4798 55.181 34.4218 55.3337C34.3692 55.4864 34.3429 55.6548 34.3429 55.8391C34.3429 56.0234 34.3718 56.1919 34.4297 56.3445C34.4876 56.4972 34.564 56.6288 34.6588 56.7394C34.7588 56.85 34.8746 56.9368 35.0062 57C35.1379 57.0579 35.2774 57.0869 35.4248 57.0869C35.6143 57.0869 35.7881 57.0395 35.946 56.9447C36.1092 56.85 36.2224 56.7341 36.2856 56.5973L37.3201 56.9131C37.178 57.229 36.9437 57.487 36.6173 57.6871C36.2909 57.8871 35.8986 57.9872 35.4406 57.9872C35.1036 57.9872 34.8009 57.9293 34.5324 57.8134C34.2639 57.6976 34.0349 57.5423 33.8453 57.3475C33.6558 57.1474 33.5084 56.9184 33.4031 56.6604C33.3031 56.3972 33.253 56.1234 33.253 55.8391ZM39.8439 57.9872C39.5069 57.9872 39.2042 57.9293 38.9357 57.8134C38.6672 57.6976 38.4382 57.5423 38.2486 57.3475C38.0644 57.1474 37.9222 56.9184 37.8222 56.6604C37.7221 56.4025 37.6721 56.1313 37.6721 55.847C37.6721 55.5574 37.7221 55.2837 37.8222 55.0257C37.9222 54.7677 38.0644 54.5413 38.2486 54.3465C38.4382 54.1465 38.6672 53.9885 38.9357 53.8727C39.2042 53.7569 39.5069 53.699 39.8439 53.699C40.1808 53.699 40.4809 53.7569 40.7442 53.8727C41.0127 53.9885 41.2391 54.1465 41.4233 54.3465C41.6129 54.5413 41.7576 54.7677 41.8577 55.0257C41.9577 55.2837 42.0077 55.5574 42.0077 55.847C42.0077 56.1313 41.9577 56.4025 41.8577 56.6604C41.7576 56.9184 41.6155 57.1474 41.4312 57.3475C41.247 57.5423 41.0206 57.6976 40.7521 57.8134C40.4836 57.9293 40.1808 57.9872 39.8439 57.9872ZM38.7619 55.847C38.7619 56.0313 38.7883 56.1998 38.8409 56.3524C38.8988 56.4999 38.9752 56.6288 39.0699 56.7394C39.17 56.85 39.2858 56.9368 39.4174 57C39.549 57.0579 39.6912 57.0869 39.8439 57.0869C39.9966 57.0869 40.1387 57.0579 40.2703 57C40.4019 56.9368 40.5151 56.85 40.6099 56.7394C40.7099 56.6288 40.7863 56.4972 40.8389 56.3445C40.8968 56.1919 40.9258 56.0234 40.9258 55.8391C40.9258 55.6601 40.8968 55.4943 40.8389 55.3416C40.7863 55.1889 40.7099 55.0573 40.6099 54.9467C40.5151 54.8362 40.4019 54.7519 40.2703 54.694C40.1387 54.6308 39.9966 54.5992 39.8439 54.5992C39.6912 54.5992 39.549 54.6308 39.4174 54.694C39.2858 54.7572 39.17 54.8441 39.0699 54.9546C38.9752 55.0652 38.8988 55.1968 38.8409 55.3495C38.7883 55.5022 38.7619 55.668 38.7619 55.847ZM46.568 57.9082H45.5097V55.5864C45.5097 55.2547 45.4518 55.0125 45.336 54.8599C45.2202 54.7072 45.0596 54.6308 44.8543 54.6308C44.749 54.6308 44.641 54.6519 44.5305 54.694C44.4199 54.7361 44.3146 54.7967 44.2146 54.8756C44.1198 54.9494 44.0329 55.0389 43.954 55.1442C43.875 55.2495 43.8171 55.3653 43.7802 55.4916V57.9082H42.722V53.77H43.6776V54.5361C43.8303 54.2728 44.0514 54.0675 44.3409 53.9201C44.6305 53.7727 44.9569 53.699 45.3202 53.699C45.5782 53.699 45.7888 53.7463 45.952 53.8411C46.1152 53.9359 46.2416 54.0596 46.3311 54.2123C46.4206 54.365 46.4811 54.5387 46.5127 54.7335C46.5495 54.9283 46.568 55.1257 46.568 55.3258V57.9082ZM50.949 57.9872C50.6015 57.9872 50.2619 57.9319 49.9302 57.8213C49.5986 57.7108 49.3143 57.5528 49.0773 57.3475L49.4722 56.6841C49.7249 56.8631 49.9697 57 50.2066 57.0948C50.4488 57.1843 50.6884 57.229 50.9253 57.229C51.1359 57.229 51.3017 57.1896 51.4228 57.1106C51.5439 57.0316 51.6045 56.9184 51.6045 56.771C51.6045 56.6236 51.5334 56.5156 51.3912 56.4472C51.2491 56.3788 51.0174 56.2998 50.6963 56.2103C50.4278 56.1366 50.1987 56.0655 50.0092 55.9971C49.8197 55.9286 49.667 55.8523 49.5512 55.768C49.4353 55.6785 49.3511 55.5785 49.2985 55.4679C49.2458 55.3521 49.2195 55.2152 49.2195 55.0573C49.2195 54.8467 49.259 54.6572 49.3379 54.4887C49.4222 54.3202 49.538 54.1781 49.6854 54.0622C49.8328 53.9411 50.0039 53.849 50.1987 53.7858C50.3988 53.7226 50.6147 53.6911 50.8463 53.6911C51.157 53.6911 51.4465 53.7358 51.715 53.8253C51.9888 53.9148 52.2389 54.0596 52.4653 54.2597L52.0388 54.8993C51.8282 54.7414 51.6229 54.6256 51.4228 54.5519C51.228 54.4782 51.0332 54.4413 50.8384 54.4413C50.6594 54.4413 50.5094 54.4782 50.3883 54.5519C50.2672 54.6256 50.2066 54.744 50.2066 54.9072C50.2066 54.9809 50.2198 55.0415 50.2461 55.0889C50.2777 55.1363 50.3251 55.1784 50.3883 55.2152C50.4515 55.2521 50.5331 55.2889 50.6331 55.3258C50.7384 55.3574 50.8674 55.3916 51.0201 55.4285C51.3044 55.5022 51.5466 55.5759 51.7466 55.6496C51.9519 55.7233 52.1178 55.8075 52.2441 55.9023C52.3758 55.9971 52.4705 56.1076 52.5284 56.234C52.5916 56.3551 52.6232 56.5025 52.6232 56.6762C52.6232 57.0816 52.4732 57.4028 52.1731 57.6397C51.873 57.8713 51.4649 57.9872 50.949 57.9872ZM54.5744 57.9872C54.1479 57.9872 53.8242 57.8503 53.603 57.5765C53.3819 57.3027 53.2713 56.8974 53.2713 56.3603V53.77H54.3296V56.1313C54.3296 56.7684 54.5586 57.0869 55.0166 57.0869C55.222 57.0869 55.4194 57.0263 55.6089 56.9052C55.8037 56.7789 55.9617 56.5894 56.0828 56.3366V53.77H57.141V56.692C57.141 56.8026 57.1594 56.8816 57.1963 56.9289C57.2384 56.9763 57.3042 57.0026 57.3937 57.0079V57.9082C57.2884 57.9293 57.1989 57.9424 57.1252 57.9477C57.0568 57.953 56.9936 57.9556 56.9357 57.9556C56.7461 57.9556 56.5908 57.9135 56.4697 57.8292C56.3539 57.7397 56.2855 57.6186 56.2644 57.466L56.2407 57.1343C56.0564 57.4186 55.8195 57.6318 55.53 57.7739C55.2404 57.9161 54.9219 57.9872 54.5744 57.9872ZM57.932 55.8391C57.932 55.5495 57.982 55.2758 58.0821 55.0178C58.1821 54.7598 58.3269 54.5334 58.5164 54.3386C58.706 54.1438 58.935 53.9885 59.2035 53.8727C59.472 53.7569 59.7747 53.699 60.1117 53.699C60.5645 53.699 60.9488 53.7964 61.2647 53.9912C61.5858 54.186 61.8254 54.4413 61.9833 54.7572L60.9488 55.0731C60.8593 54.9204 60.7408 54.8046 60.5934 54.7256C60.446 54.6414 60.2828 54.5992 60.1038 54.5992C59.9511 54.5992 59.809 54.6308 59.6773 54.694C59.5457 54.7519 59.4299 54.8362 59.3298 54.9467C59.2351 55.052 59.1587 55.181 59.1008 55.3337C59.0482 55.4864 59.0219 55.6548 59.0219 55.8391C59.0219 56.0234 59.0508 56.1919 59.1087 56.3445C59.1666 56.4972 59.243 56.6288 59.3377 56.7394C59.4378 56.85 59.5536 56.9368 59.6852 57C59.8168 57.0579 59.9564 57.0869 60.1038 57.0869C60.2933 57.0869 60.4671 57.0395 60.625 56.9447C60.7882 56.85 60.9014 56.7341 60.9646 56.5973L61.9991 56.9131C61.857 57.229 61.6227 57.487 61.2963 57.6871C60.9699 57.8871 60.5776 57.9872 60.1196 57.9872C59.7826 57.9872 59.4799 57.9293 59.2114 57.8134C58.9429 57.6976 58.7139 57.5423 58.5243 57.3475C58.3348 57.1474 58.1874 56.9184 58.0821 56.6604C57.982 56.3972 57.932 56.1234 57.932 55.8391ZM62.3511 55.8391C62.3511 55.5495 62.4011 55.2758 62.5012 55.0178C62.6012 54.7598 62.746 54.5334 62.9355 54.3386C63.125 54.1438 63.3541 53.9885 63.6226 53.8727C63.8911 53.7569 64.1938 53.699 64.5308 53.699C64.9835 53.699 65.3679 53.7964 65.6838 53.9912C66.0049 54.186 66.2445 54.4413 66.4024 54.7572L65.3679 55.0731C65.2784 54.9204 65.1599 54.8046 65.0125 54.7256C64.8651 54.6414 64.7019 54.5992 64.5229 54.5992C64.3702 54.5992 64.228 54.6308 64.0964 54.694C63.9648 54.7519 63.849 54.8362 63.7489 54.9467C63.6542 55.052 63.5778 55.181 63.5199 55.3337C63.4673 55.4864 63.4409 55.6548 63.4409 55.8391C63.4409 56.0234 63.4699 56.1919 63.5278 56.3445C63.5857 56.4972 63.6621 56.6288 63.7568 56.7394C63.8569 56.85 63.9727 56.9368 64.1043 57C64.2359 57.0579 64.3754 57.0869 64.5229 57.0869C64.7124 57.0869 64.8861 57.0395 65.0441 56.9447C65.2073 56.85 65.3205 56.7341 65.3837 56.5973L66.4182 56.9131C66.2761 57.229 66.0418 57.487 65.7154 57.6871C65.3889 57.8871 64.9967 57.9872 64.5387 57.9872C64.2017 57.9872 63.899 57.9293 63.6305 57.8134C63.362 57.6976 63.1329 57.5423 62.9434 57.3475C62.7539 57.1474 62.6065 56.9184 62.5012 56.6604C62.4011 56.3972 62.3511 56.1234 62.3511 55.8391ZM68.9498 57.9872C68.6182 57.9872 68.3181 57.9319 68.0496 57.8213C67.781 57.7055 67.552 57.5502 67.3625 57.3554C67.173 57.1606 67.0255 56.9342 66.9202 56.6762C66.8202 56.4183 66.7702 56.1471 66.7702 55.8628C66.7702 55.568 66.8202 55.2916 66.9202 55.0336C67.0203 54.7704 67.1651 54.5413 67.3546 54.3465C67.5441 54.1465 67.7732 53.9885 68.0417 53.8727C68.3154 53.7569 68.6208 53.699 68.9577 53.699C69.2947 53.699 69.5948 53.7569 69.858 53.8727C70.1265 53.9885 70.3529 54.1438 70.5372 54.3386C70.7267 54.5334 70.8689 54.7598 70.9637 55.0178C71.0637 55.2758 71.1137 55.5443 71.1137 55.8233C71.1137 55.8918 71.1111 55.9576 71.1058 56.0208C71.1058 56.0839 71.1005 56.1366 71.09 56.1787H67.8916C67.9074 56.3419 67.9469 56.4867 68.0101 56.613C68.0732 56.7394 68.1549 56.8473 68.2549 56.9368C68.3549 57.0263 68.4681 57.0948 68.5945 57.1422C68.7208 57.1896 68.8524 57.2132 68.9893 57.2132C69.1999 57.2132 69.3974 57.1632 69.5816 57.0632C69.7712 56.9579 69.9002 56.821 69.9686 56.6525L70.8768 56.9052C70.7241 57.2211 70.4793 57.4818 70.1423 57.6871C69.8106 57.8871 69.4132 57.9872 68.9498 57.9872ZM70.0239 55.4916C69.9976 55.181 69.8817 54.9336 69.6764 54.7493C69.4763 54.5598 69.2315 54.465 68.9419 54.465C68.7998 54.465 68.6655 54.4913 68.5392 54.544C68.4181 54.5913 68.3102 54.6598 68.2154 54.7493C68.1206 54.8388 68.0417 54.9467 67.9785 55.0731C67.9206 55.1994 67.8863 55.339 67.8758 55.4916H70.0239ZM73.322 57.9872C72.9746 57.9872 72.635 57.9319 72.3033 57.8213C71.9716 57.7108 71.6873 57.5528 71.4504 57.3475L71.8452 56.6841C72.098 56.8631 72.3428 57 72.5797 57.0948C72.8219 57.1843 73.0614 57.229 73.2983 57.229C73.5089 57.229 73.6748 57.1896 73.7959 57.1106C73.917 57.0316 73.9775 56.9184 73.9775 56.771C73.9775 56.6236 73.9064 56.5156 73.7643 56.4472C73.6221 56.3788 73.3905 56.2998 73.0693 56.2103C72.8008 56.1366 72.5718 56.0655 72.3823 55.9971C72.1927 55.9286 72.04 55.8523 71.9242 55.768C71.8084 55.6785 71.7242 55.5785 71.6715 55.4679C71.6189 55.3521 71.5925 55.2152 71.5925 55.0573C71.5925 54.8467 71.632 54.6572 71.711 54.4887C71.7952 54.3202 71.9111 54.1781 72.0585 54.0622C72.2059 53.9411 72.377 53.849 72.5718 53.7858C72.7719 53.7226 72.9877 53.6911 73.2194 53.6911C73.53 53.6911 73.8196 53.7358 74.0881 53.8253C74.3618 53.9148 74.6119 54.0596 74.8383 54.2597L74.4119 54.8993C74.2013 54.7414 73.9959 54.6256 73.7959 54.5519C73.6011 54.4782 73.4063 54.4413 73.2115 54.4413C73.0325 54.4413 72.8824 54.4782 72.7613 54.5519C72.6402 54.6256 72.5797 54.744 72.5797 54.9072C72.5797 54.9809 72.5929 55.0415 72.6192 55.0889C72.6508 55.1363 72.6982 55.1784 72.7613 55.2152C72.8245 55.2521 72.9061 55.2889 73.0061 55.3258C73.1114 55.3574 73.2404 55.3916 73.3931 55.4285C73.6774 55.5022 73.9196 55.5759 74.1197 55.6496C74.325 55.7233 74.4908 55.8075 74.6172 55.9023C74.7488 55.9971 74.8436 56.1076 74.9015 56.234C74.9647 56.3551 74.9963 56.5025 74.9963 56.6762C74.9963 57.0816 74.8462 57.4028 74.5461 57.6397C74.246 57.8713 73.838 57.9872 73.322 57.9872ZM77.2475 57.9872C76.9001 57.9872 76.5605 57.9319 76.2288 57.8213C75.8971 57.7108 75.6128 57.5528 75.3759 57.3475L75.7707 56.6841C76.0235 56.8631 76.2683 57 76.5052 57.0948C76.7474 57.1843 76.9869 57.229 77.2238 57.229C77.4344 57.229 77.6003 57.1896 77.7214 57.1106C77.8425 57.0316 77.903 56.9184 77.903 56.771C77.903 56.6236 77.8319 56.5156 77.6898 56.4472C77.5476 56.3788 77.316 56.2998 76.9948 56.2103C76.7263 56.1366 76.4973 56.0655 76.3078 55.9971C76.1182 55.9286 75.9655 55.8523 75.8497 55.768C75.7339 55.6785 75.6497 55.5785 75.597 55.4679C75.5444 55.3521 75.518 55.2152 75.518 55.0573C75.518 54.8467 75.5575 54.6572 75.6365 54.4887C75.7207 54.3202 75.8366 54.1781 75.984 54.0622C76.1314 53.9411 76.3025 53.849 76.4973 53.7858C76.6974 53.7226 76.9132 53.6911 77.1449 53.6911C77.4555 53.6911 77.7451 53.7358 78.0136 53.8253C78.2873 53.9148 78.5374 54.0596 78.7638 54.2597L78.3374 54.8993C78.1268 54.7414 77.9214 54.6256 77.7214 54.5519C77.5266 54.4782 77.3318 54.4413 77.137 54.4413C76.958 54.4413 76.8079 54.4782 76.6868 54.5519C76.5657 54.6256 76.5052 54.744 76.5052 54.9072C76.5052 54.9809 76.5184 55.0415 76.5447 55.0889C76.5763 55.1363 76.6237 55.1784 76.6868 55.2152C76.75 55.2521 76.8316 55.2889 76.9316 55.3258C77.0369 55.3574 77.1659 55.3916 77.3186 55.4285C77.6029 55.5022 77.8451 55.5759 78.0452 55.6496C78.2505 55.7233 78.4163 55.8075 78.5427 55.9023C78.6743 55.9971 78.7691 56.1076 78.827 56.234C78.8902 56.3551 78.9218 56.5025 78.9218 56.6762C78.9218 57.0816 78.7717 57.4028 78.4716 57.6397C78.1715 57.8713 77.7635 57.9872 77.2475 57.9872ZM81.5205 57.9872C81.1836 57.9872 80.8808 57.9293 80.6123 57.8134C80.3438 57.6976 80.1148 57.5423 79.9253 57.3475C79.741 57.1474 79.5988 56.9184 79.4988 56.6604C79.3988 56.4025 79.3488 56.1313 79.3488 55.847C79.3488 55.5574 79.3988 55.2837 79.4988 55.0257C79.5988 54.7677 79.741 54.5413 79.9253 54.3465C80.1148 54.1465 80.3438 53.9885 80.6123 53.8727C80.8808 53.7569 81.1836 53.699 81.5205 53.699C81.8575 53.699 82.1576 53.7569 82.4208 53.8727C82.6893 53.9885 82.9157 54.1465 83.1 54.3465C83.2895 54.5413 83.4343 54.7677 83.5343 55.0257C83.6344 55.2837 83.6844 55.5574 83.6844 55.847C83.6844 56.1313 83.6344 56.4025 83.5343 56.6604C83.4343 56.9184 83.2921 57.1474 83.1079 57.3475C82.9236 57.5423 82.6972 57.6976 82.4287 57.8134C82.1602 57.9293 81.8575 57.9872 81.5205 57.9872ZM80.4386 55.847C80.4386 56.0313 80.4649 56.1998 80.5176 56.3524C80.5755 56.4999 80.6518 56.6288 80.7466 56.7394C80.8466 56.85 80.9624 56.9368 81.0941 57C81.2257 57.0579 81.3678 57.0869 81.5205 57.0869C81.6732 57.0869 81.8153 57.0579 81.947 57C82.0786 56.9368 82.1918 56.85 82.2866 56.7394C82.3866 56.6288 82.4629 56.4972 82.5156 56.3445C82.5735 56.1919 82.6024 56.0234 82.6024 55.8391C82.6024 55.6601 82.5735 55.4943 82.5156 55.3416C82.4629 55.1889 82.3866 55.0573 82.2866 54.9467C82.1918 54.8362 82.0786 54.7519 81.947 54.694C81.8153 54.6308 81.6732 54.5992 81.5205 54.5992C81.3678 54.5992 81.2257 54.6308 81.0941 54.694C80.9624 54.7572 80.8466 54.8441 80.7466 54.9546C80.6518 55.0652 80.5755 55.1968 80.5176 55.3495C80.4649 55.5022 80.4386 55.668 80.4386 55.847Z" fill="#61C478"/>
<path d="M74.5978 17.0977C74.5978 25.436 67.8383 32.1955 59.5001 32.1955C51.1618 32.1955 44.4023 25.436 44.4023 17.0977C44.4023 8.75949 51.1618 2 59.5001 2C67.8383 2 74.5978 8.75949 74.5978 17.0977Z" fill="white"/>
<path d="M66.5057 13.4106C66.94 12.9386 66.9093 12.2039 66.4373 11.7696C65.9653 11.3354 65.2306 11.366 64.7963 11.838L66.5057 13.4106ZM58.1572 20.7699L57.4523 21.6928C57.9294 22.0572 58.6055 21.998 59.0119 21.5562L58.1572 20.7699ZM54.0541 16.1748C53.5443 15.7855 52.8155 15.8831 52.4262 16.3928C52.0369 16.9026 52.1345 17.6314 52.6442 18.0207L54.0541 16.1748ZM64.7963 11.838L57.3025 19.9836L59.0119 21.5562L66.5057 13.4106L64.7963 11.838ZM58.8621 19.8469L54.0541 16.1748L52.6442 18.0207L57.4523 21.6928L58.8621 19.8469ZM73.4364 17.0977C73.4364 24.7946 67.1969 31.0341 59.5001 31.0341V33.3568C68.4797 33.3568 75.7592 26.0774 75.7592 17.0977H73.4364ZM59.5001 31.0341C51.8032 31.0341 45.5637 24.7946 45.5637 17.0977H43.241C43.241 26.0774 50.5204 33.3568 59.5001 33.3568V31.0341ZM45.5637 17.0977C45.5637 9.40089 51.8032 3.16136 59.5001 3.16136V0.838636C50.5204 0.838636 43.241 8.11808 43.241 17.0977H45.5637ZM59.5001 3.16136C67.1969 3.16136 73.4364 9.40089 73.4364 17.0977H75.7592C75.7592 8.11808 68.4797 0.838636 59.5001 0.838636V3.16136Z" fill="#61C478"/>
</svg>
