<svg width="26" height="26" viewBox="0 0 26 26" fill="none" xmlns="http://www.w3.org/2000/svg">
<path d="M15.6667 10.3333H22.0187C22.4732 10.3333 22.9201 10.4495 23.3171 10.6708C23.714 10.8921 24.0479 11.2112 24.2868 11.5978C24.5258 11.9844 24.662 12.4257 24.6825 12.8797C24.703 13.3337 24.6072 13.7854 24.404 14.192L19.7373 23.5253C19.5158 23.9686 19.1752 24.3414 18.7536 24.6019C18.332 24.8624 17.8462 25.0002 17.3507 25H11.9947C11.7773 25 11.56 24.9733 11.348 24.92L6.33333 23.6667M15.6667 10.3333V3.66667C15.6667 2.95942 15.3857 2.28115 14.8856 1.78105C14.3855 1.28095 13.7072 1 13 1H12.8733C12.2067 1 11.6667 1.54 11.6667 2.20667C11.6667 3.15867 11.3853 4.08933 10.856 4.88133L6.33333 11.6667V23.6667M15.6667 10.3333H13M6.33333 23.6667H3.66667C2.95942 23.6667 2.28115 23.3857 1.78105 22.8856C1.28095 22.3855 1 21.7072 1 21V13C1 12.2928 1.28095 11.6145 1.78105 11.1144C2.28115 10.6143 2.95942 10.3333 3.66667 10.3333H7" stroke="black" stroke-width="2" stroke-linecap="round" stroke-linejoin="round"/>
</svg>
