<svg width="25" height="24" viewBox="0 0 25 24" fill="none" xmlns="http://www.w3.org/2000/svg">
<path d="M7.5 2H17L21.5 6.5V19" stroke="black" stroke-width="1.5" stroke-linecap="round" stroke-linejoin="round"/>
<path d="M3.5 20.5V6.5C3.5 6.10218 3.65804 5.72064 3.93934 5.43934C4.22064 5.15804 4.60218 5 5 5H14.752C14.9111 5.00014 15.0636 5.06345 15.176 5.176L18.324 8.324C18.38 8.3799 18.4243 8.44632 18.4545 8.51943C18.4847 8.59254 18.5002 8.6709 18.5 8.75V20.5C18.5 20.8978 18.342 21.2794 18.0607 21.5607C17.7794 21.842 17.3978 22 17 22H5C4.60218 22 4.22064 21.842 3.93934 21.5607C3.65804 21.2794 3.5 20.8978 3.5 20.5Z" stroke="black" stroke-width="1.5" stroke-linecap="round" stroke-linejoin="round"/>
<path d="M14.5 5V8.4C14.5 8.55913 14.5632 8.71174 14.6757 8.82426C14.7883 8.93679 14.9409 9 15.1 9H18.5" stroke="black" stroke-width="1.5" stroke-linecap="round" stroke-linejoin="round"/>
</svg>
