<svg width="39" height="39" viewBox="0 0 39 39" fill="none" xmlns="http://www.w3.org/2000/svg">
<g clip-path="url(#clip0_1862_23606)">
<path d="M19.7234 7.3742C20.2702 7.15573 20.8661 7.08992 21.4474 7.18379C22.0287 7.27767 22.5735 7.52771 23.0238 7.9072L23.2285 8.09407L30.905 15.7706C31.3219 16.187 31.6177 16.709 31.7609 17.2806C31.904 17.8522 31.889 18.4519 31.7175 19.0157L31.6249 19.2757L27.7818 28.8843C27.5663 29.4223 27.2108 29.8929 26.7522 30.2472C26.2936 30.6015 25.7486 30.8266 25.1736 30.8993L16.9203 31.9312C16.709 31.9556 16.4848 31.9864 16.254 32.0222L15.5325 32.1392L15.1555 32.2074L13.9806 32.4349L13.1763 32.6072L11.9656 32.8786L10.4138 33.2491L7.89176 33.8926L6.84201 34.1753C6.5771 34.2482 6.29813 34.2533 6.0307 34.1904C5.76327 34.1274 5.51592 33.9983 5.31134 33.8149C5.10676 33.6315 4.95149 33.3997 4.85978 33.1407C4.76806 32.8817 4.74282 32.6038 4.78639 32.3326L4.84164 32.0953L5.32101 30.2883L5.75001 28.5853L6.12051 27.0334L6.39189 25.8228L6.56251 25.0168L6.79164 23.8436L6.92164 23.1009L7.02564 22.4054L8.09814 13.8254C8.16555 13.2959 8.36244 12.7911 8.67138 12.3558C8.98032 11.9204 9.39179 11.5679 9.86939 11.3294L10.1148 11.2173L19.7234 7.3742ZM20.9291 10.3918L11.3221 14.2349L10.3731 21.8269L10.2951 22.4704C10.1358 23.6659 9.92713 24.8543 9.66951 26.0324L9.39164 27.3097L14.7346 21.9667C14.5494 21.2756 14.5974 20.5428 14.8711 19.8817C15.1449 19.2207 15.6291 18.6685 16.2487 18.3107C16.8683 17.953 17.5886 17.8097 18.298 17.9031C19.0073 17.9964 19.666 18.3213 20.1719 18.8272C20.6778 19.3331 21.0027 19.9918 21.096 20.7011C21.1894 21.4105 21.0461 22.1308 20.6883 22.7504C20.3306 23.37 19.7784 23.8542 19.1173 24.128C18.4563 24.4017 17.7235 24.4497 17.0324 24.2644L11.6894 29.6074L12.3264 29.4661L13.6004 29.1979C14.3943 29.0354 15.1924 28.8945 15.994 28.7754L24.7641 27.6769L28.6073 18.0699L20.9291 10.3918ZM24.769 5.03907C25.0486 4.75904 25.4208 4.59067 25.8157 4.56554C26.2106 4.54041 26.6012 4.66025 26.914 4.90257L27.0668 5.03907L33.96 11.9323C34.2545 12.2241 34.4264 12.6174 34.4405 13.0317C34.4546 13.446 34.3097 13.8501 34.0356 14.1611C33.7615 14.4722 33.3789 14.6667 32.9661 14.7049C32.5533 14.7431 32.1415 14.6221 31.815 14.3666L31.6623 14.2301L24.769 7.33682C24.4644 7.03209 24.2932 6.61884 24.2932 6.18795C24.2932 5.75705 24.4644 5.3438 24.769 5.03907Z" fill="black"/>
</g>
<defs>
<clipPath id="clip0_1862_23606">
<rect width="39" height="39" fill="white"/>
</clipPath>
</defs>
</svg>
