<svg width="24" height="24" viewBox="0 0 24 24" fill="none" xmlns="http://www.w3.org/2000/svg">
<path d="M20.6164 3.51123C20.2882 3.16589 19.8941 2.88976 19.4575 2.69909C19.0209 2.50842 18.5505 2.40708 18.0741 2.40104C17.5977 2.395 17.1249 2.48439 16.6836 2.66393C16.2422 2.84346 15.8413 3.10952 15.5044 3.44643L4.25443 14.6964C3.86159 15.0896 3.58895 15.5866 3.46843 16.1292L2.41483 20.8692C2.39279 20.9679 2.39602 21.0704 2.42422 21.1675C2.45242 21.2645 2.50467 21.3529 2.57613 21.4243C2.64758 21.4958 2.73593 21.548 2.83297 21.5762C2.93001 21.6044 3.03261 21.6077 3.13123 21.5856L7.84243 20.538C8.40335 20.4132 8.91704 20.1309 9.32323 19.7244L18.8992 10.1484L19.3036 10.5516C19.5286 10.7767 19.655 11.0818 19.655 11.4C19.655 11.7182 19.5286 12.0234 19.3036 12.2484L18.1756 13.3764C18.0665 13.4897 18.0062 13.6414 18.0078 13.7987C18.0094 13.956 18.0727 14.1064 18.1841 14.2175C18.2955 14.3286 18.4461 14.3915 18.6034 14.3927C18.7607 14.3938 18.9122 14.3331 19.0252 14.2236L20.152 13.0956C20.602 12.6456 20.8547 12.0352 20.8547 11.3988C20.8547 10.7624 20.602 10.1521 20.152 9.70203L19.7488 9.29883L20.5528 8.49483C21.211 7.83632 21.586 6.94671 21.5976 6.01572C21.6093 5.08472 21.258 4.18601 20.6164 3.51123ZM16.3516 4.29483C16.7972 3.85563 17.3983 3.61041 18.0239 3.61266C18.6495 3.6149 19.2489 3.86442 19.6913 4.3068C20.1336 4.74918 20.3832 5.34853 20.3854 5.97415C20.3876 6.59976 20.1424 7.20089 19.7032 7.64643L8.47483 18.876C8.22997 19.1212 7.92025 19.2915 7.58203 19.3668L3.79003 20.2092L4.63963 16.3896C4.71052 16.0694 4.87168 15.7763 5.10403 15.5448L16.3516 4.29483Z" fill="black"/>
</svg>
