<svg width="25" height="24" viewBox="0 0 25 24" fill="none" xmlns="http://www.w3.org/2000/svg">
<path d="M5.115 20C4.655 20 4.271 19.846 3.963 19.538C3.65433 19.2293 3.5 18.845 3.5 18.385V8.615C3.5 8.155 3.65433 7.771 3.963 7.463C4.271 7.15433 4.655 7 5.115 7H9.5V5.615C9.5 5.155 9.65433 4.771 9.963 4.463C10.271 4.15433 10.655 4 11.115 4H13.885C14.345 4 14.7293 4.15433 15.038 4.463C15.346 4.771 15.5 5.155 15.5 5.615V7H19.885C20.345 7 20.729 7.15433 21.037 7.463C21.3457 7.771 21.5 8.155 21.5 8.615V18.385C21.5 18.845 21.346 19.229 21.038 19.537C20.7293 19.8457 20.345 20 19.885 20H5.115ZM5.115 19H19.885C20.0383 19 20.1793 18.936 20.308 18.808C20.436 18.6793 20.5 18.5383 20.5 18.385V8.615C20.5 8.46167 20.436 8.32067 20.308 8.192C20.1793 8.064 20.0383 8 19.885 8H5.115C4.96167 8 4.82067 8.064 4.692 8.192C4.564 8.32067 4.5 8.46167 4.5 8.615V18.385C4.5 18.5383 4.564 18.6793 4.692 18.808C4.82067 18.936 4.96167 19 5.115 19ZM10.5 7H14.5V5.615C14.5 5.46167 14.436 5.32067 14.308 5.192C14.1793 5.064 14.0383 5 13.885 5H11.115C10.9617 5 10.8207 5.064 10.692 5.192C10.564 5.32067 10.5 5.46167 10.5 5.615V7Z" fill="black"/>
</svg>
