<svg width="27" height="27" viewBox="0 0 27 27" fill="none" xmlns="http://www.w3.org/2000/svg">
<path fill-rule="evenodd" clip-rule="evenodd" d="M21 7.5C21 3.35786 17.6421 0 13.5 0C9.46687 0 6.17727 3.18346 6.00693 7.17467L6 7.5H9L9.00764 7.23559C9.14451 4.87338 11.1035 3 13.5 3C15.9853 3 18 5.01472 18 7.5C18 8.77063 17.3822 9.74626 15.8169 11.1627L15.4368 11.4994L14.7738 12.0729L14.3688 12.4289L14.0296 12.739C12.7905 13.9007 12.1026 14.9278 12.0106 16.2015L12 16.5V19.5H15V16.5L15.0075 16.3969C15.0582 16.0441 15.3695 15.5951 16.0815 14.9276L16.3754 14.6591L17.4878 13.6914L17.8365 13.3811C19.9855 11.4357 21 9.83934 21 7.5ZM15.75 24.75C15.75 23.5074 14.7426 22.5 13.5 22.5C12.2574 22.5 11.25 23.5074 11.25 24.75C11.25 25.9926 12.2574 27 13.5 27C14.7426 27 15.75 25.9926 15.75 24.75Z" fill="black"/>
</svg>
