<svg width="28" height="32" viewBox="0 0 28 32" fill="none" xmlns="http://www.w3.org/2000/svg">
<path d="M21.7778 0V3.11111H26.4553C27.3078 3.11111 28 3.80333 28 4.65578V29.5664C27.9996 29.976 27.8367 30.3686 27.5471 30.6582C27.2575 30.9478 26.8649 31.1107 26.4553 31.1111H1.54467C1.135 31.1111 0.742104 30.9484 0.452422 30.6587C0.162741 30.369 0 29.9761 0 29.5664V4.65578C0 3.80333 0.692222 3.11111 1.54467 3.11111H6.22222V0H21.7778ZM6.22222 6.22222H3.11111V28H24.8889V6.22222H21.7778V9.33333H6.22222V6.22222ZM9.33333 21.7778V24.8889H6.22222V21.7778H9.33333ZM9.33333 17.1111V20.2222H6.22222V17.1111H9.33333ZM9.33333 12.4444V15.5556H6.22222V12.4444H9.33333ZM18.6667 3.11111H9.33333V6.22222H18.6667V3.11111Z" fill="black"/>
</svg>
