<svg width="24" height="24" viewBox="0 0 24 24" fill="none" xmlns="http://www.w3.org/2000/svg">
<path d="M12.0933 20.7693L15.3027 17.5667L12.092 14.364L11.256 15.2L13.1 17.044C12.0671 17.0484 11.1498 16.9271 10.348 16.68C9.54533 16.4311 8.90178 16.0653 8.41733 15.5827C7.92222 15.0867 7.54933 14.524 7.29867 13.8947C7.048 13.2653 6.92267 12.6364 6.92267 12.008C6.92267 11.6302 6.96444 11.2524 7.048 10.8747C7.13156 10.4969 7.25333 10.1387 7.41333 9.8L6.51067 9C6.25289 9.47022 6.06044 9.95733 5.93333 10.4613C5.80711 10.9653 5.744 11.4782 5.744 12C5.744 12.792 5.89778 13.5742 6.20533 14.3467C6.51289 15.1191 6.96756 15.8093 7.56933 16.4173C8.17111 17.028 8.96178 17.4813 9.94133 17.7773C10.9209 18.0742 11.9267 18.2253 12.9587 18.2307L11.256 19.9333L12.0933 20.7693ZM17.516 15C17.7738 14.5298 17.9658 14.0427 18.092 13.5387C18.2191 13.0347 18.2827 12.5218 18.2827 12C18.2827 11.2107 18.1298 10.4262 17.824 9.64667C17.5182 8.86711 17.0604 8.17644 16.4507 7.57467C15.8578 6.964 15.0689 6.51156 14.084 6.21733C13.0982 5.924 12.0924 5.77733 11.0667 5.77733L12.7693 4.06667L11.9333 3.23067L8.72267 6.43333L11.9333 9.636L12.7693 8.8L10.9173 6.94933C11.9449 6.94933 12.864 7.07422 13.6747 7.324C14.4844 7.57467 15.1311 7.94267 15.6147 8.428C16.0991 8.91245 16.468 9.47022 16.7213 10.1013C16.9756 10.7316 17.1027 11.3618 17.1027 11.992C17.1027 12.3698 17.0613 12.7476 16.9787 13.1253C16.896 13.5031 16.7742 13.8613 16.6133 14.2L17.516 15ZM12.004 24C10.3453 24 8.78533 23.6853 7.324 23.056C5.86356 22.4258 4.59289 21.5707 3.512 20.4907C2.43111 19.4116 1.57556 18.1422 0.945333 16.6827C0.315111 15.2231 0 13.6636 0 12.004C0 10.3453 0.314667 8.78533 0.944 7.324C1.57422 5.86356 2.42933 4.59289 3.50933 3.512C4.58844 2.43111 5.85778 1.57556 7.31733 0.945333C8.77689 0.315111 10.3364 0 11.996 0C13.6547 0 15.2147 0.314667 16.676 0.944C18.1364 1.57422 19.4071 2.42933 20.488 3.50933C21.5689 4.58844 22.4244 5.85778 23.0547 7.31733C23.6849 8.77689 24 10.3364 24 11.996C24 13.6547 23.6853 15.2147 23.056 16.676C22.4258 18.1364 21.5707 19.4071 20.4907 20.488C19.4116 21.5689 18.1422 22.4244 16.6827 23.0547C15.2231 23.6849 13.6636 24 12.004 24ZM12 22.6667C14.9778 22.6667 17.5 21.6333 19.5667 19.5667C21.6333 17.5 22.6667 14.9778 22.6667 12C22.6667 9.02222 21.6333 6.5 19.5667 4.43333C17.5 2.36667 14.9778 1.33333 12 1.33333C9.02222 1.33333 6.5 2.36667 4.43333 4.43333C2.36667 6.5 1.33333 9.02222 1.33333 12C1.33333 14.9778 2.36667 17.5 4.43333 19.5667C6.5 21.6333 9.02222 22.6667 12 22.6667Z" fill="black"/>
</svg>
