<svg width="15" height="15" viewBox="0 0 15 15" fill="none" xmlns="http://www.w3.org/2000/svg">
<g clip-path="url(#clip0_1827_18187)">
<path d="M10.4121 9.36905C11.2707 8.17231 11.6552 6.68856 11.4888 5.21464C11.3224 3.74073 10.6173 2.38534 9.51457 1.41966C8.41187 0.45397 6.99287 -0.0508042 5.54146 0.0063224C4.09006 0.063449 2.71329 0.678263 1.6866 1.72776C0.659905 2.77726 0.0590065 4.18405 0.00411995 5.66667C-0.0507666 7.1493 0.444406 8.59842 1.39057 9.72413C2.33674 10.8498 3.66412 11.5691 5.10715 11.738C6.55019 11.907 8.00246 11.5131 9.17341 10.6352H9.17253C9.19913 10.6715 9.2275 10.7059 9.25942 10.7394L12.6731 14.2264C12.8394 14.3964 13.0649 14.4919 13.3001 14.492C13.5353 14.4921 13.7609 14.3967 13.9273 14.2269C14.0937 14.057 14.1872 13.8267 14.1873 13.5864C14.1874 13.3461 14.094 13.1157 13.9277 12.9457L10.5141 9.45871C10.4824 9.42593 10.4483 9.39656 10.4121 9.36905ZM10.6409 5.88746C10.6409 6.54163 10.5147 7.1894 10.2696 7.79378C10.0246 8.39816 9.66535 8.94731 9.2125 9.40988C8.75966 9.87246 8.22206 10.2394 7.63039 10.4897C7.03872 10.7401 6.40458 10.8689 5.76416 10.8689C5.12374 10.8689 4.4896 10.7401 3.89793 10.4897C3.30626 10.2394 2.76866 9.87246 2.31582 9.40988C1.86298 8.94731 1.50376 8.39816 1.25868 7.79378C1.01361 7.1894 0.887468 6.54163 0.887468 5.88746C0.887468 4.56629 1.40126 3.29924 2.31582 2.36503C3.23038 1.43083 4.47078 0.905996 5.76416 0.905996C7.05754 0.905996 8.29795 1.43083 9.2125 2.36503C10.1271 3.29924 10.6409 4.56629 10.6409 5.88746Z" fill="black"/>
</g>
<defs>
<clipPath id="clip0_1827_18187">
<rect width="14.1867" height="14.4915" fill="white"/>
</clipPath>
</defs>
</svg>
