<svg width="28" height="28" viewBox="0 0 28 28" fill="none" xmlns="http://www.w3.org/2000/svg">
<path d="M10.1599 10.1602V9.16019C9.60767 9.16019 9.15995 9.60791 9.15995 10.1602H10.1599ZM10.2874 10.1602H11.2874C11.2874 9.60791 10.8397 9.16019 10.2874 9.16019V10.1602ZM17.8399 10.1602V9.16019C17.2877 9.16019 16.8399 9.60791 16.8399 10.1602H17.8399ZM17.9533 10.1602H18.9533C18.9533 9.60791 18.5056 9.16019 17.9533 9.16019V10.1602ZM10.2874 10.2627V11.2627C10.8397 11.2627 11.2874 10.815 11.2874 10.2627H10.2874ZM10.1599 10.2627H9.15995C9.15995 10.815 9.60767 11.2627 10.1599 11.2627V10.2627ZM17.9533 10.2627V11.2627C18.5056 11.2627 18.9533 10.815 18.9533 10.2627H17.9533ZM17.8399 10.2627H16.8399C16.8399 10.815 17.2877 11.2627 17.8399 11.2627V10.2627ZM10.4128 17.3661C10.1222 16.8965 9.50582 16.7514 9.03622 17.0421C8.56663 17.3328 8.42159 17.9491 8.71227 18.4187L10.4128 17.3661ZM19.2876 18.4187C19.5783 17.9491 19.4333 17.3328 18.9637 17.0421C18.4941 16.7514 17.8777 16.8965 17.5871 17.3661L19.2876 18.4187ZM25.7999 14.0002C25.7999 20.5172 20.5169 25.8002 13.9999 25.8002V27.8002C21.6215 27.8002 27.7999 21.6217 27.7999 14.0002H25.7999ZM13.9999 25.8002C7.48299 25.8002 2.19995 20.5172 2.19995 14.0002H0.199951C0.199951 21.6217 6.37842 27.8002 13.9999 27.8002V25.8002ZM2.19995 14.0002C2.19995 7.48323 7.48299 2.2002 13.9999 2.2002V0.200195C6.37842 0.200195 0.199951 6.37866 0.199951 14.0002H2.19995ZM13.9999 2.2002C20.5169 2.2002 25.7999 7.48323 25.7999 14.0002H27.7999C27.7999 6.37867 21.6215 0.200195 13.9999 0.200195V2.2002ZM10.1599 11.1602H10.2874V9.16019H10.1599V11.1602ZM17.8399 11.1602H17.9533V9.16019H17.8399V11.1602ZM9.28745 10.1602V10.2627H11.2874V10.1602H9.28745ZM10.2874 9.26269H10.1599V11.2627H10.2874V9.26269ZM11.1599 10.2627V10.1602H9.15995V10.2627H11.1599ZM16.9533 10.1602V10.2627H18.9533V10.1602H16.9533ZM17.9533 9.26269H17.8399V11.2627H17.9533V9.26269ZM18.8399 10.2627V10.1602H16.8399V10.2627H18.8399ZM13.9999 19.4001C12.5038 19.4001 11.1763 18.5994 10.4128 17.3661L8.71227 18.4187C9.81534 20.2007 11.765 21.4001 13.9999 21.4001V19.4001ZM17.5871 17.3661C16.8236 18.5994 15.4961 19.4001 13.9999 19.4001V21.4001C16.2349 21.4001 18.1846 20.2007 19.2876 18.4187L17.5871 17.3661Z" fill="black"/>
</svg>
