<svg width="29" height="29" viewBox="0 0 29 29" fill="none" xmlns="http://www.w3.org/2000/svg">
<path d="M10.45 10.45V9.45C9.89772 9.45 9.45 9.89772 9.45 10.45H10.45ZM10.5845 10.45H11.5845C11.5845 9.89772 11.1368 9.45 10.5845 9.45V10.45ZM18.55 10.45V9.45C17.9977 9.45 17.55 9.89772 17.55 10.45H18.55ZM18.6695 10.45H19.6695C19.6695 9.89772 19.2218 9.45 18.6695 9.45V10.45ZM10.5845 10.5581V11.5581C11.1368 11.5581 11.5845 11.1104 11.5845 10.5581H10.5845ZM10.45 10.5581H9.45C9.45 11.1104 9.89772 11.5581 10.45 11.5581V10.5581ZM18.6695 10.5581V11.5581C19.2218 11.5581 19.6695 11.1104 19.6695 10.5581H18.6695ZM18.55 10.5581H17.55C17.55 11.1104 17.9977 11.5581 18.55 11.5581V10.5581ZM14.4999 17.8804L14.4999 18.8804L14.4999 17.8804ZM18.3297 21.0516C18.6204 21.5212 19.2367 21.6662 19.7063 21.3755C20.1759 21.0848 20.3209 20.4685 20.0302 19.9989L18.3297 21.0516ZM8.96954 19.9989C8.67886 20.4685 8.8239 21.0848 9.2935 21.3755C9.76309 21.6662 10.3794 21.5212 10.6701 21.0516L8.96954 19.9989ZM27 14.5C27 21.4036 21.4036 27 14.5 27V29C22.5081 29 29 22.5081 29 14.5H27ZM14.5 27C7.59644 27 2 21.4036 2 14.5H0C0 22.5081 6.49187 29 14.5 29V27ZM2 14.5C2 7.59644 7.59644 2 14.5 2V0C6.49187 0 0 6.49187 0 14.5H2ZM14.5 2C21.4036 2 27 7.59644 27 14.5H29C29 6.49187 22.5081 0 14.5 0V2ZM10.45 11.45H10.5845V9.45H10.45V11.45ZM18.55 11.45H18.6695V9.45H18.55V11.45ZM9.58447 10.45V10.5581H11.5845V10.45H9.58447ZM10.5845 9.55811H10.45V11.5581H10.5845V9.55811ZM11.45 10.5581V10.45H9.45V10.5581H11.45ZM17.6695 10.45V10.5581H19.6695V10.45H17.6695ZM18.6695 9.55811H18.55V11.5581H18.6695V9.55811ZM19.55 10.5581V10.45H17.55V10.5581H19.55ZM14.4999 18.8804C16.0981 18.8804 17.5152 19.7358 18.3297 21.0516L20.0302 19.9989C18.8761 18.1345 16.8368 16.8804 14.4999 16.8804L14.4999 18.8804ZM10.6701 21.0516C11.4846 19.7358 12.9017 18.8804 14.4999 18.8804L14.4999 16.8804C12.163 16.8804 10.1236 18.1345 8.96954 19.9989L10.6701 21.0516Z" fill="black"/>
</svg>
