<svg width="27" height="27" viewBox="0 0 27 27" fill="none" xmlns="http://www.w3.org/2000/svg">
<path d="M16.317 9.47537C17.3572 9.47537 18.2005 8.63213 18.2005 7.59194C18.2005 6.55174 17.3572 5.7085 16.317 5.7085C15.2768 5.7085 14.4336 6.55174 14.4336 7.59194C14.4336 8.63213 15.2768 9.47537 16.317 9.47537Z" stroke="black" stroke-width="1.57143" stroke-linecap="round" stroke-linejoin="round"/>
<path d="M8.78352 18.8927C9.30361 18.8927 9.72524 18.4711 9.72524 17.951C9.72524 17.4309 9.30361 17.0093 8.78352 17.0093C8.26342 17.0093 7.8418 17.4309 7.8418 17.951C7.8418 18.4711 8.26342 18.8927 8.78352 18.8927Z" stroke="black" stroke-width="1.57143" stroke-linecap="round" stroke-linejoin="round"/>
<path d="M8.78383 12.3006C9.82402 12.3006 10.6673 11.4573 10.6673 10.4171C10.6673 9.37694 9.82402 8.53369 8.78383 8.53369C7.74363 8.53369 6.90039 9.37694 6.90039 10.4171C6.90039 11.4573 7.74363 12.3006 8.78383 12.3006Z" stroke="black" stroke-width="1.57143" stroke-linecap="round" stroke-linejoin="round"/>
<path d="M18.2383 23.1869C18.2173 22.8216 18.0903 22.4703 17.8729 22.1759C17.6555 21.8816 17.3571 21.657 17.014 21.5295C16.1622 21.2495 15.4381 20.6748 14.9721 19.9087C14.506 19.1427 14.3285 18.2355 14.4715 17.3502C14.6145 16.465 15.0686 15.6598 15.7522 15.0795C16.4357 14.4991 17.3039 14.1816 18.2006 14.1841H21.7226C22.3267 14.1858 22.9223 14.0421 23.4593 13.7653C23.9962 13.4885 24.4587 13.0866 24.8077 12.5936C25.1567 12.1005 25.382 11.5308 25.4646 10.9324C25.5472 10.334 25.4847 9.72447 25.2823 9.15529C24.5332 7.04013 23.2172 5.17154 21.478 3.75368C19.7388 2.33581 17.6434 1.42322 15.4207 1.11559C13.198 0.807973 10.9335 1.11716 8.87458 2.00937C6.81569 2.90159 5.04161 4.34251 3.74618 6.17471C2.45075 8.0069 1.6838 10.1599 1.52913 12.3985C1.37445 14.637 1.83799 16.875 2.86911 18.868C3.90023 20.8609 5.45927 22.5322 7.37588 23.6991C9.29249 24.866 11.493 25.4837 13.7369 25.4847C14.845 25.4878 15.9481 25.3357 17.014 25.0327C17.4055 24.923 17.7446 24.6762 17.9693 24.3374C18.194 23.9986 18.2895 23.5903 18.2383 23.1869Z" stroke="black" stroke-width="1.57143" stroke-linecap="round" stroke-linejoin="round"/>
</svg>
