<svg width="256" height="31" viewBox="0 0 256 31" fill="none" xmlns="http://www.w3.org/2000/svg">
<path d="M1.0378 27.7637V20.4531H1.96449V26.94H6.04191V27.7637H1.0378ZM9.18387 27.8666C8.77887 27.8666 8.4082 27.7911 8.07185 27.6401C7.74236 27.4891 7.45749 27.2866 7.21724 27.0326C6.98385 26.7786 6.80194 26.4835 6.67152 26.1471C6.5411 25.8108 6.47589 25.4573 6.47589 25.0866C6.47589 24.709 6.5411 24.3521 6.67152 24.0157C6.80881 23.6794 6.99415 23.3842 7.22753 23.1302C7.46778 22.8763 7.75266 22.6738 8.08214 22.5227C8.4185 22.3717 8.78574 22.2962 9.18387 22.2962C9.582 22.2962 9.94924 22.3717 10.2856 22.5227C10.6219 22.6738 10.9068 22.8763 11.1402 23.1302C11.3805 23.3842 11.5658 23.6794 11.6962 24.0157C11.8335 24.3521 11.9021 24.709 11.9021 25.0866C11.9021 25.4573 11.8369 25.8108 11.7065 26.1471C11.5761 26.4835 11.3908 26.7786 11.1505 27.0326C10.9103 27.2866 10.6219 27.4891 10.2856 27.6401C9.95611 27.7911 9.58887 27.8666 9.18387 27.8666ZM7.40257 25.0969C7.40257 25.3783 7.44719 25.6392 7.53643 25.8794C7.63253 26.1197 7.75952 26.329 7.9174 26.5075C8.08214 26.686 8.27091 26.8267 8.48371 26.9297C8.70337 27.0326 8.93675 27.0841 9.18387 27.0841C9.43099 27.0841 9.66094 27.0326 9.87374 26.9297C10.0934 26.8267 10.2856 26.686 10.4503 26.5075C10.6151 26.3222 10.7421 26.1094 10.8313 25.8691C10.9274 25.622 10.9755 25.3577 10.9755 25.0763C10.9755 24.8017 10.9274 24.5443 10.8313 24.304C10.7421 24.0569 10.6151 23.8441 10.4503 23.6657C10.2856 23.4803 10.0934 23.3362 9.87374 23.2332C9.66094 23.1302 9.43099 23.0788 9.18387 23.0788C8.93675 23.0788 8.70337 23.1337 8.48371 23.2435C8.27091 23.3465 8.08214 23.4906 7.9174 23.676C7.75952 23.8544 7.63253 24.0672 7.53643 24.3143C7.44719 24.5546 7.40257 24.8154 7.40257 25.0969ZM15.8419 23.1817C15.3889 23.1955 14.9873 23.3121 14.6372 23.5318C14.294 23.7515 14.0503 24.0569 13.9062 24.4482V27.7637H13.0001V22.3889H13.8444V23.6348C14.0297 23.2641 14.2734 22.9655 14.5755 22.739C14.8775 22.5056 15.2001 22.3752 15.5433 22.3477C15.612 22.3477 15.6703 22.3477 15.7184 22.3477C15.7664 22.3477 15.8076 22.3511 15.8419 22.358V23.1817ZM18.9985 27.8666C18.5935 27.8666 18.2228 27.7946 17.8864 27.6504C17.5501 27.4994 17.2618 27.2969 17.0215 27.0429C16.7813 26.7889 16.5925 26.4938 16.4552 26.1574C16.3248 25.8142 16.2596 25.4538 16.2596 25.0763C16.2596 24.6987 16.3248 24.3418 16.4552 24.0054C16.5925 23.6691 16.7813 23.3739 17.0215 23.1199C17.2686 22.866 17.5604 22.6669 17.8967 22.5227C18.2331 22.3717 18.6038 22.2962 19.0088 22.2962C19.4137 22.2962 19.781 22.3717 20.1105 22.5227C20.4468 22.6738 20.7317 22.8763 20.9651 23.1302C21.1985 23.3774 21.377 23.6691 21.5005 24.0054C21.6309 24.3349 21.6961 24.6782 21.6961 25.0351C21.6961 25.1106 21.6927 25.1792 21.6858 25.241C21.6858 25.3028 21.6824 25.3509 21.6756 25.3852H17.2172C17.2378 25.6529 17.2995 25.8966 17.4025 26.1162C17.5055 26.3359 17.6393 26.5247 17.8041 26.6825C17.9688 26.8404 18.1541 26.964 18.3601 27.0532C18.5729 27.1424 18.796 27.1871 19.0293 27.1871C19.1941 27.1871 19.3554 27.1665 19.5133 27.1253C19.6712 27.0772 19.8187 27.0155 19.956 26.94C20.0933 26.8644 20.2134 26.7718 20.3164 26.6619C20.4262 26.5521 20.5086 26.4286 20.5635 26.2913L21.3461 26.5075C21.2568 26.7066 21.1333 26.8885 20.9754 27.0532C20.8244 27.218 20.6459 27.3621 20.44 27.4857C20.2409 27.6024 20.0178 27.695 19.7707 27.7637C19.5236 27.8323 19.2662 27.8666 18.9985 27.8666ZM20.8415 24.7159C20.8209 24.4619 20.7557 24.2285 20.6459 24.0157C20.5429 23.7961 20.4091 23.6107 20.2443 23.4597C20.0865 23.3087 19.9011 23.192 19.6883 23.1096C19.4755 23.0204 19.249 22.9758 19.0088 22.9758C18.7685 22.9758 18.542 23.0204 18.3292 23.1096C18.1164 23.192 17.9276 23.3121 17.7629 23.47C17.605 23.621 17.4746 23.8029 17.3716 24.0157C17.2755 24.2285 17.2172 24.4619 17.1966 24.7159H20.8415ZM30.8067 27.7637H29.9006V24.7571C29.9006 24.1942 29.8079 23.7789 29.6226 23.5112C29.4441 23.2435 29.1764 23.1096 28.8195 23.1096C28.4488 23.1096 28.1159 23.2435 27.8207 23.5112C27.5324 23.7721 27.3265 24.1118 27.2029 24.5306V27.7637H26.2968V24.7571C26.2968 24.1805 26.2076 23.7618 26.0291 23.5009C25.8507 23.2401 25.5829 23.1096 25.226 23.1096C24.8622 23.1096 24.5327 23.2401 24.2375 23.5009C23.9424 23.7549 23.733 24.0947 23.6094 24.5203V27.7637H22.7034V22.3889H23.5271V23.5421C23.7467 23.144 24.0316 22.8385 24.3817 22.6257C24.7318 22.4061 25.1265 22.2962 25.5658 22.2962C26.0188 22.2962 26.3758 22.4198 26.6366 22.6669C26.9043 22.9072 27.0691 23.2195 27.1309 23.6039C27.6114 22.7321 28.2944 22.2962 29.1799 22.2962C29.4888 22.2962 29.7462 22.3546 29.9521 22.4713C30.1649 22.5811 30.3331 22.739 30.4566 22.9449C30.5802 23.144 30.6694 23.3808 30.7243 23.6554C30.7792 23.9299 30.8067 24.2285 30.8067 24.5512V27.7637ZM34.8199 27.7637V22.3889H35.7259V27.7637H34.8199ZM34.8199 21.3798V20.2472H35.7259V21.3798H34.8199ZM40.0862 27.8666C39.64 27.8666 39.2453 27.7568 38.9021 27.5371C38.5657 27.3175 38.298 27.0395 38.099 26.7031V29.9568H37.1929V22.3889H37.996V23.398C38.2088 23.0685 38.4834 22.8042 38.8197 22.6051C39.1629 22.3992 39.5405 22.2962 39.9523 22.2962C40.323 22.2962 40.6628 22.3717 40.9717 22.5227C41.2806 22.6738 41.5483 22.8797 41.7748 23.1405C42.0013 23.3945 42.1764 23.6897 42.2999 24.026C42.4304 24.3624 42.4956 24.7125 42.4956 25.0763C42.4956 25.4607 42.4372 25.8245 42.3205 26.1677C42.2038 26.5041 42.0391 26.7992 41.8263 27.0532C41.6135 27.3003 41.3595 27.4994 41.0644 27.6504C40.7692 27.7946 40.4431 27.8666 40.0862 27.8666ZM39.8082 27.0841C40.0759 27.0841 40.3162 27.0292 40.5289 26.9194C40.7486 26.8027 40.9339 26.6516 41.085 26.4663C41.2428 26.2741 41.363 26.0579 41.4453 25.8176C41.5277 25.5774 41.5689 25.3303 41.5689 25.0763C41.5689 24.8086 41.5208 24.5546 41.4247 24.3143C41.3286 24.0672 41.1982 23.8544 41.0335 23.676C40.8687 23.4906 40.6731 23.3465 40.4466 23.2435C40.2269 23.1337 39.9867 23.0788 39.7258 23.0788C39.5611 23.0788 39.3895 23.1131 39.211 23.1817C39.0394 23.2435 38.8746 23.3293 38.7168 23.4391C38.5657 23.5421 38.4319 23.6691 38.3152 23.8201C38.2054 23.9643 38.1333 24.1187 38.099 24.2835V25.8176C38.1745 25.9961 38.2706 26.1643 38.3873 26.3222C38.504 26.4732 38.6378 26.607 38.7888 26.7237C38.9398 26.8336 39.1012 26.9228 39.2728 26.9914C39.4444 27.0532 39.6229 27.0841 39.8082 27.0841ZM45.4923 27.8666C45.0599 27.8666 44.6343 27.8014 44.2156 27.671C43.7969 27.5337 43.4365 27.3381 43.1344 27.0841L43.5257 26.4766C43.8415 26.7169 44.1572 26.8988 44.473 27.0223C44.7888 27.139 45.1217 27.1974 45.4718 27.1974C45.863 27.1974 46.1719 27.1219 46.3984 26.9708C46.6318 26.813 46.7485 26.5933 46.7485 26.3119C46.7485 26.1814 46.7176 26.0716 46.6559 25.9824C46.5941 25.8863 46.5014 25.8039 46.3778 25.7353C46.2543 25.6666 46.0964 25.6048 45.9042 25.5499C45.712 25.495 45.4889 25.4367 45.2349 25.3749C44.9123 25.2925 44.6343 25.2136 44.4009 25.1381C44.1675 25.0626 43.9753 24.9733 43.8243 24.8704C43.6733 24.7674 43.5635 24.6438 43.4948 24.4997C43.4262 24.3555 43.3919 24.1771 43.3919 23.9643C43.3919 23.6965 43.4433 23.4597 43.5463 23.2538C43.6561 23.041 43.8037 22.866 43.9891 22.7287C44.1744 22.5845 44.3906 22.4781 44.6377 22.4095C44.8917 22.334 45.1629 22.2962 45.4512 22.2962C45.8562 22.2962 46.2337 22.3614 46.5838 22.4919C46.9339 22.6223 47.229 22.7939 47.4693 23.0067L47.0574 23.5524C46.8309 23.3533 46.5769 23.2057 46.2955 23.1096C46.014 23.0067 45.7257 22.9552 45.4306 22.9552C45.1011 22.9552 44.8196 23.0273 44.5863 23.1714C44.3597 23.3087 44.2465 23.5318 44.2465 23.8407C44.2465 23.9643 44.2671 24.0672 44.3082 24.1496C44.3563 24.232 44.4318 24.304 44.5348 24.3658C44.6377 24.4276 44.7682 24.4825 44.926 24.5306C45.0908 24.5786 45.2864 24.6301 45.5129 24.685C45.8699 24.7674 46.1788 24.8532 46.4396 24.9424C46.7073 25.0248 46.927 25.1243 47.0986 25.241C47.2771 25.3577 47.4075 25.495 47.4899 25.6529C47.5791 25.8108 47.6237 26.003 47.6237 26.2295C47.6237 26.7306 47.4315 27.1287 47.0471 27.4239C46.6627 27.7191 46.1445 27.8666 45.4923 27.8666ZM50.3537 27.8666C49.7909 27.8666 49.3653 27.6779 49.077 27.3003C48.7887 26.9228 48.6445 26.3599 48.6445 25.6117V22.3889H49.5506V25.4367C49.5506 26.535 49.9316 27.0841 50.6935 27.0841C51.0642 27.0841 51.4109 26.9674 51.7335 26.734C52.063 26.4938 52.3067 26.1677 52.4645 25.7559V22.3889H53.3706V26.6516C53.3706 26.8644 53.4667 26.9743 53.6589 26.9811V27.7637C53.556 27.7774 53.4736 27.7843 53.4118 27.7843C53.3569 27.7911 53.302 27.7946 53.2471 27.7946C53.0686 27.7946 52.9176 27.7431 52.794 27.6401C52.6773 27.5303 52.6155 27.3964 52.6087 27.2385L52.5881 26.6105C52.3478 27.0155 52.0321 27.3278 51.6408 27.5474C51.2495 27.7602 50.8205 27.8666 50.3537 27.8666ZM62.9833 27.7637H62.0772V24.7571C62.0772 24.1942 61.9845 23.7789 61.7992 23.5112C61.6207 23.2435 61.353 23.1096 60.9961 23.1096C60.6254 23.1096 60.2925 23.2435 59.9973 23.5112C59.709 23.7721 59.5031 24.1118 59.3795 24.5306V27.7637H58.4734V24.7571C58.4734 24.1805 58.3842 23.7618 58.2057 23.5009C58.0272 23.2401 57.7595 23.1096 57.4026 23.1096C57.0388 23.1096 56.7093 23.2401 56.4141 23.5009C56.119 23.7549 55.9096 24.0947 55.786 24.5203V27.7637H54.8799V22.3889H55.7037V23.5421C55.9233 23.144 56.2082 22.8385 56.5583 22.6257C56.9084 22.4061 57.3031 22.2962 57.7424 22.2962C58.1954 22.2962 58.5524 22.4198 58.8132 22.6669C59.0809 22.9072 59.2457 23.2195 59.3074 23.6039C59.788 22.7321 60.471 22.2962 61.3565 22.2962C61.6653 22.2962 61.9228 22.3546 62.1287 22.4713C62.3415 22.5811 62.5097 22.739 62.6332 22.9449C62.7568 23.144 62.846 23.3808 62.9009 23.6554C62.9558 23.9299 62.9833 24.2285 62.9833 24.5512V27.7637ZM69.2102 27.8666C68.8395 27.8666 68.4963 27.7911 68.1805 27.6401C67.8648 27.4891 67.5936 27.2866 67.3671 27.0326C67.1406 26.7786 66.9621 26.4835 66.8317 26.1471C66.7081 25.8108 66.6464 25.4573 66.6464 25.0866C66.6464 24.709 66.7047 24.3521 66.8214 24.0157C66.945 23.6725 67.1131 23.3739 67.3259 23.1199C67.5456 22.866 67.803 22.6669 68.0982 22.5227C68.4002 22.3717 68.7297 22.2962 69.0866 22.2962C69.5191 22.2962 69.9035 22.4095 70.2398 22.636C70.5831 22.8625 70.8542 23.1371 71.0533 23.4597V20.2472H71.9594V26.6516C71.9594 26.8644 72.0555 26.9743 72.2477 26.9811V27.7637C72.1516 27.7774 72.0726 27.7877 72.0108 27.7946C71.9559 27.8014 71.901 27.8049 71.8461 27.8049C71.6676 27.8049 71.5098 27.7465 71.3725 27.6298C71.242 27.5063 71.1768 27.3655 71.1768 27.2077V26.7546C70.964 27.1047 70.6792 27.3793 70.3222 27.5783C69.9721 27.7705 69.6015 27.8666 69.2102 27.8666ZM69.4264 27.0841C69.5912 27.0841 69.7593 27.0532 69.931 26.9914C70.1094 26.9297 70.2742 26.8439 70.4252 26.734C70.5831 26.6242 70.7169 26.4972 70.8268 26.353C70.9434 26.202 71.019 26.0442 71.0533 25.8794V24.3349C70.9915 24.1633 70.8988 24.002 70.7753 23.851C70.6517 23.6931 70.511 23.5593 70.3531 23.4494C70.2021 23.3327 70.0374 23.2435 69.8589 23.1817C69.6873 23.1131 69.5157 23.0788 69.3441 23.0788C69.0763 23.0788 68.8327 23.1371 68.613 23.2538C68.4002 23.3636 68.2149 23.5146 68.057 23.7068C67.906 23.8922 67.7893 24.1084 67.7069 24.3555C67.6245 24.5958 67.5833 24.8429 67.5833 25.0969C67.5833 25.3646 67.6314 25.622 67.7275 25.8691C67.8236 26.1094 67.954 26.3187 68.1188 26.4972C68.2835 26.6757 68.4757 26.8198 68.6954 26.9297C68.9219 27.0326 69.1656 27.0841 69.4264 27.0841ZM75.8196 27.8666C75.4146 27.8666 75.0439 27.7911 74.7076 27.6401C74.3781 27.4891 74.0932 27.2866 73.853 27.0326C73.6196 26.7786 73.4377 26.4835 73.3072 26.1471C73.1768 25.8108 73.1116 25.4573 73.1116 25.0866C73.1116 24.709 73.1768 24.3521 73.3072 24.0157C73.4445 23.6794 73.6299 23.3842 73.8633 23.1302C74.1035 22.8763 74.3884 22.6738 74.7179 22.5227C75.0542 22.3717 75.4215 22.2962 75.8196 22.2962C76.2177 22.2962 76.585 22.3717 76.9213 22.5227C77.2577 22.6738 77.5425 22.8763 77.7759 23.1302C78.0162 23.3842 78.2015 23.6794 78.3319 24.0157C78.4692 24.3521 78.5379 24.709 78.5379 25.0866C78.5379 25.4573 78.4727 25.8108 78.3422 26.1471C78.2118 26.4835 78.0265 26.7786 77.7862 27.0326C77.546 27.2866 77.2577 27.4891 76.9213 27.6401C76.5918 27.7911 76.2246 27.8666 75.8196 27.8666ZM74.0383 25.0969C74.0383 25.3783 74.0829 25.6392 74.1722 25.8794C74.2683 26.1197 74.3952 26.329 74.5531 26.5075C74.7179 26.686 74.9066 26.8267 75.1194 26.9297C75.3391 27.0326 75.5725 27.0841 75.8196 27.0841C76.0667 27.0841 76.2967 27.0326 76.5095 26.9297C76.7291 26.8267 76.9213 26.686 77.0861 26.5075C77.2508 26.3222 77.3778 26.1094 77.467 25.8691C77.5631 25.622 77.6112 25.3577 77.6112 25.0763C77.6112 24.8017 77.5631 24.5443 77.467 24.304C77.3778 24.0569 77.2508 23.8441 77.0861 23.6657C76.9213 23.4803 76.7291 23.3362 76.5095 23.2332C76.2967 23.1302 76.0667 23.0788 75.8196 23.0788C75.5725 23.0788 75.3391 23.1337 75.1194 23.2435C74.9066 23.3465 74.7179 23.4906 74.5531 23.676C74.3952 23.8544 74.2683 24.0672 74.1722 24.3143C74.0829 24.5546 74.0383 24.8154 74.0383 25.0969ZM79.6564 20.2472H80.5625V26.3736C80.5625 26.5727 80.614 26.7306 80.717 26.8473C80.8268 26.9571 80.9778 27.012 81.17 27.012C81.2455 27.012 81.3347 27.0017 81.4377 26.9811C81.5407 26.9537 81.6368 26.9228 81.726 26.8885L81.8702 27.6195C81.7191 27.6813 81.5407 27.7328 81.3347 27.774C81.1288 27.8152 80.9469 27.8357 80.789 27.8357C80.439 27.8357 80.1609 27.7362 79.955 27.5371C79.7559 27.3381 79.6564 27.0601 79.6564 26.7031V20.2472ZM84.9296 27.8666C84.5246 27.8666 84.1539 27.7911 83.8176 27.6401C83.4881 27.4891 83.2032 27.2866 82.963 27.0326C82.7296 26.7786 82.5477 26.4835 82.4172 26.1471C82.2868 25.8108 82.2216 25.4573 82.2216 25.0866C82.2216 24.709 82.2868 24.3521 82.4172 24.0157C82.5545 23.6794 82.7399 23.3842 82.9733 23.1302C83.2135 22.8763 83.4984 22.6738 83.8279 22.5227C84.1642 22.3717 84.5315 22.2962 84.9296 22.2962C85.3277 22.2962 85.695 22.3717 86.0313 22.5227C86.3677 22.6738 86.6525 22.8763 86.8859 23.1302C87.1262 23.3842 87.3115 23.6794 87.4419 24.0157C87.5792 24.3521 87.6479 24.709 87.6479 25.0866C87.6479 25.4573 87.5827 25.8108 87.4522 26.1471C87.3218 26.4835 87.1365 26.7786 86.8962 27.0326C86.656 27.2866 86.3677 27.4891 86.0313 27.6401C85.7018 27.7911 85.3346 27.8666 84.9296 27.8666ZM83.1483 25.0969C83.1483 25.3783 83.1929 25.6392 83.2822 25.8794C83.3783 26.1197 83.5052 26.329 83.6631 26.5075C83.8279 26.686 84.0166 26.8267 84.2294 26.9297C84.4491 27.0326 84.6825 27.0841 84.9296 27.0841C85.1767 27.0841 85.4067 27.0326 85.6195 26.9297C85.8391 26.8267 86.0313 26.686 86.1961 26.5075C86.3608 26.3222 86.4878 26.1094 86.577 25.8691C86.6731 25.622 86.7212 25.3577 86.7212 25.0763C86.7212 24.8017 86.6731 24.5443 86.577 24.304C86.4878 24.0569 86.3608 23.8441 86.1961 23.6657C86.0313 23.4803 85.8391 23.3362 85.6195 23.2332C85.4067 23.1302 85.1767 23.0788 84.9296 23.0788C84.6825 23.0788 84.4491 23.1337 84.2294 23.2435C84.0166 23.3465 83.8279 23.4906 83.6631 23.676C83.5052 23.8544 83.3783 24.0672 83.2822 24.3143C83.1929 24.5546 83.1483 24.8154 83.1483 25.0969ZM91.5877 23.1817C91.1346 23.1955 90.733 23.3121 90.383 23.5318C90.0398 23.7515 89.7961 24.0569 89.6519 24.4482V27.7637H88.7458V22.3889H89.5901V23.6348C89.7755 23.2641 90.0192 22.9655 90.3212 22.739C90.6232 22.5056 90.9458 22.3752 91.2891 22.3477C91.3577 22.3477 91.4161 22.3477 91.4641 22.3477C91.5122 22.3477 91.5533 22.3511 91.5877 22.358V23.1817ZM96.7336 27.8666C96.3011 27.8666 95.8755 27.8014 95.4568 27.671C95.0381 27.5337 94.6777 27.3381 94.3757 27.0841L94.7669 26.4766C95.0827 26.7169 95.3985 26.8988 95.7142 27.0223C96.03 27.139 96.3629 27.1974 96.713 27.1974C97.1043 27.1974 97.4131 27.1219 97.6397 26.9708C97.8731 26.813 97.9898 26.5933 97.9898 26.3119C97.9898 26.1814 97.9589 26.0716 97.8971 25.9824C97.8353 25.8863 97.7426 25.8039 97.6191 25.7353C97.4955 25.6666 97.3376 25.6048 97.1454 25.5499C96.9532 25.495 96.7301 25.4367 96.4762 25.3749C96.1535 25.2925 95.8755 25.2136 95.6421 25.1381C95.4088 25.0626 95.2166 24.9733 95.0655 24.8704C94.9145 24.7674 94.8047 24.6438 94.7361 24.4997C94.6674 24.3555 94.6331 24.1771 94.6331 23.9643C94.6331 23.6965 94.6846 23.4597 94.7875 23.2538C94.8974 23.041 95.0449 22.866 95.2303 22.7287C95.4156 22.5845 95.6319 22.4781 95.879 22.4095C96.1329 22.334 96.4041 22.2962 96.6924 22.2962C97.0974 22.2962 97.4749 22.3614 97.825 22.4919C98.1751 22.6223 98.4703 22.7939 98.7105 23.0067L98.2986 23.5524C98.0721 23.3533 97.8181 23.2057 97.5367 23.1096C97.2553 23.0067 96.967 22.9552 96.6718 22.9552C96.3423 22.9552 96.0609 23.0273 95.8275 23.1714C95.601 23.3087 95.4877 23.5318 95.4877 23.8407C95.4877 23.9643 95.5083 24.0672 95.5495 24.1496C95.5975 24.232 95.673 24.304 95.776 24.3658C95.879 24.4276 96.0094 24.4825 96.1673 24.5306C96.332 24.5786 96.5276 24.6301 96.7542 24.685C97.1111 24.7674 97.42 24.8532 97.6809 24.9424C97.9486 25.0248 98.1682 25.1243 98.3398 25.241C98.5183 25.3577 98.6487 25.495 98.7311 25.6529C98.8203 25.8108 98.865 26.003 98.865 26.2295C98.865 26.7306 98.6728 27.1287 98.2884 27.4239C97.9039 27.7191 97.3857 27.8666 96.7336 27.8666ZM99.9372 27.7637V22.3889H100.843V27.7637H99.9372ZM99.9372 21.3798V20.2472H100.843V21.3798H99.9372ZM105.09 27.496C105.035 27.5234 104.963 27.5577 104.874 27.5989C104.785 27.6332 104.682 27.671 104.565 27.7122C104.455 27.7465 104.332 27.774 104.195 27.7946C104.064 27.822 103.927 27.8357 103.783 27.8357C103.453 27.8357 103.168 27.7465 102.928 27.568C102.688 27.3827 102.568 27.0978 102.568 26.7134V23.0994H101.837V22.3889H102.568V20.5973H103.474V22.3889H104.678V23.0994H103.474V26.4354C103.488 26.6345 103.553 26.7786 103.669 26.8679C103.786 26.9571 103.923 27.0017 104.081 27.0017C104.26 27.0017 104.421 26.9743 104.565 26.9194C104.716 26.8576 104.819 26.8095 104.874 26.7752L105.09 27.496ZM109.914 27.8666C109.66 27.8666 109.423 27.8255 109.204 27.7431C108.984 27.6538 108.792 27.5337 108.627 27.3827C108.469 27.2317 108.342 27.0566 108.246 26.8576C108.157 26.6516 108.112 26.4286 108.112 26.1883C108.112 25.9412 108.167 25.7181 108.277 25.519C108.387 25.3131 108.541 25.1381 108.74 24.9939C108.946 24.8498 109.187 24.7365 109.461 24.6541C109.743 24.5718 110.048 24.5306 110.378 24.5306C110.638 24.5306 110.903 24.5546 111.17 24.6026C111.438 24.6507 111.675 24.7159 111.881 24.7983V24.3658C111.881 23.9265 111.757 23.5833 111.51 23.3362C111.263 23.0822 110.913 22.9552 110.46 22.9552C109.918 22.9552 109.348 23.1646 108.751 23.5833L108.452 22.9964C109.145 22.5296 109.842 22.2962 110.542 22.2962C111.249 22.2962 111.798 22.485 112.19 22.8625C112.588 23.2401 112.787 23.7721 112.787 24.4585V26.6516C112.787 26.8644 112.883 26.9743 113.075 26.9811V27.7637C112.979 27.7774 112.9 27.7877 112.838 27.7946C112.777 27.8014 112.711 27.8049 112.643 27.8049C112.464 27.8049 112.32 27.7534 112.21 27.6504C112.107 27.5406 112.046 27.4102 112.025 27.2591L112.004 26.8782C111.764 27.2008 111.459 27.4479 111.088 27.6195C110.724 27.7843 110.333 27.8666 109.914 27.8666ZM110.151 27.1871C110.474 27.1871 110.772 27.1287 111.047 27.012C111.328 26.8885 111.541 26.7272 111.685 26.5281C111.816 26.3977 111.881 26.2638 111.881 26.1265V25.3337C111.441 25.1621 110.985 25.0763 110.511 25.0763C110.058 25.0763 109.688 25.1724 109.399 25.3646C109.118 25.5568 108.977 25.8073 108.977 26.1162C108.977 26.2672 109.005 26.408 109.06 26.5384C109.121 26.6688 109.204 26.7821 109.307 26.8782C109.416 26.9743 109.543 27.0498 109.688 27.1047C109.832 27.1596 109.986 27.1871 110.151 27.1871ZM122.339 27.7637H121.433V24.7571C121.433 24.1942 121.34 23.7789 121.155 23.5112C120.977 23.2435 120.709 23.1096 120.352 23.1096C119.981 23.1096 119.648 23.2435 119.353 23.5112C119.065 23.7721 118.859 24.1118 118.735 24.5306V27.7637H117.829V24.7571C117.829 24.1805 117.74 23.7618 117.561 23.5009C117.383 23.2401 117.115 23.1096 116.758 23.1096C116.395 23.1096 116.065 23.2401 115.77 23.5009C115.475 23.7549 115.265 24.0947 115.142 24.5203V27.7637H114.236V22.3889H115.059V23.5421C115.279 23.144 115.564 22.8385 115.914 22.6257C116.264 22.4061 116.659 22.2962 117.098 22.2962C117.551 22.2962 117.908 22.4198 118.169 22.6669C118.437 22.9072 118.601 23.2195 118.663 23.6039C119.144 22.7321 119.827 22.2962 120.712 22.2962C121.021 22.2962 121.279 22.3546 121.484 22.4713C121.697 22.5811 121.865 22.739 121.989 22.9449C122.113 23.144 122.202 23.3808 122.257 23.6554C122.312 23.9299 122.339 24.2285 122.339 24.5512V27.7637ZM126.126 27.8666C125.721 27.8666 125.351 27.7946 125.014 27.6504C124.678 27.4994 124.39 27.2969 124.149 27.0429C123.909 26.7889 123.72 26.4938 123.583 26.1574C123.453 25.8142 123.388 25.4538 123.388 25.0763C123.388 24.6987 123.453 24.3418 123.583 24.0054C123.72 23.6691 123.909 23.3739 124.149 23.1199C124.397 22.866 124.688 22.6669 125.025 22.5227C125.361 22.3717 125.732 22.2962 126.137 22.2962C126.542 22.2962 126.909 22.3717 127.238 22.5227C127.575 22.6738 127.86 22.8763 128.093 23.1302C128.326 23.3774 128.505 23.6691 128.628 24.0054C128.759 24.3349 128.824 24.6782 128.824 25.0351C128.824 25.1106 128.821 25.1792 128.814 25.241C128.814 25.3028 128.81 25.3509 128.804 25.3852H124.345C124.366 25.6529 124.427 25.8966 124.53 26.1162C124.633 26.3359 124.767 26.5247 124.932 26.6825C125.097 26.8404 125.282 26.964 125.488 27.0532C125.701 27.1424 125.924 27.1871 126.157 27.1871C126.322 27.1871 126.483 27.1665 126.641 27.1253C126.799 27.0772 126.947 27.0155 127.084 26.94C127.221 26.8644 127.341 26.7718 127.444 26.6619C127.554 26.5521 127.637 26.4286 127.691 26.2913L128.474 26.5075C128.385 26.7066 128.261 26.8885 128.103 27.0532C127.952 27.218 127.774 27.3621 127.568 27.4857C127.369 27.6024 127.146 27.695 126.899 27.7637C126.652 27.8323 126.394 27.8666 126.126 27.8666ZM127.969 24.7159C127.949 24.4619 127.884 24.2285 127.774 24.0157C127.671 23.7961 127.537 23.6107 127.372 23.4597C127.214 23.3087 127.029 23.192 126.816 23.1096C126.603 23.0204 126.377 22.9758 126.137 22.9758C125.896 22.9758 125.67 23.0204 125.457 23.1096C125.244 23.192 125.056 23.3121 124.891 23.47C124.733 23.621 124.603 23.8029 124.5 24.0157C124.403 24.2285 124.345 24.4619 124.325 24.7159H127.969ZM132.561 27.496C132.506 27.5234 132.434 27.5577 132.345 27.5989C132.256 27.6332 132.153 27.671 132.036 27.7122C131.926 27.7465 131.803 27.774 131.665 27.7946C131.535 27.822 131.398 27.8357 131.253 27.8357C130.924 27.8357 130.639 27.7465 130.399 27.568C130.159 27.3827 130.038 27.0978 130.038 26.7134V23.0994H129.307V22.3889H130.038V20.5973H130.945V22.3889H132.149V23.0994H130.945V26.4354C130.958 26.6345 131.023 26.7786 131.14 26.8679C131.257 26.9571 131.394 27.0017 131.552 27.0017C131.731 27.0017 131.892 26.9743 132.036 26.9194C132.187 26.8576 132.29 26.8095 132.345 26.7752L132.561 27.496ZM133.432 28.5977L133.638 27.6813H133.329V26.6105H134.183V27.6813L133.875 28.5977H133.432ZM137.817 25.066C137.817 24.6884 137.882 24.3315 138.012 23.9951C138.143 23.6588 138.328 23.3671 138.568 23.1199C138.809 22.866 139.094 22.6669 139.423 22.5227C139.759 22.3717 140.133 22.2962 140.545 22.2962C141.081 22.2962 141.541 22.4163 141.925 22.6566C142.316 22.89 142.611 23.2057 142.811 23.6039L141.925 23.8819C141.788 23.6279 141.596 23.4323 141.348 23.295C141.101 23.1508 140.827 23.0788 140.525 23.0788C140.278 23.0788 140.044 23.1302 139.825 23.2332C139.605 23.3293 139.416 23.4666 139.258 23.6451C139.1 23.8235 138.973 24.0329 138.877 24.2732C138.788 24.5134 138.743 24.7777 138.743 25.066C138.743 25.3474 138.791 25.6117 138.888 25.8588C138.984 26.1059 139.111 26.3222 139.269 26.5075C139.433 26.686 139.622 26.8267 139.835 26.9297C140.055 27.0326 140.288 27.0841 140.535 27.0841C140.693 27.0841 140.847 27.0635 140.998 27.0223C141.156 26.9743 141.297 26.9125 141.421 26.837C141.551 26.7615 141.664 26.6757 141.76 26.5796C141.856 26.4766 141.925 26.3668 141.966 26.2501L142.852 26.5178C142.769 26.7169 142.653 26.8988 142.502 27.0635C142.358 27.2283 142.186 27.369 141.987 27.4857C141.788 27.6024 141.565 27.695 141.318 27.7637C141.077 27.8323 140.823 27.8666 140.556 27.8666C140.151 27.8666 139.78 27.7911 139.444 27.6401C139.107 27.4891 138.819 27.2866 138.579 27.0326C138.338 26.7786 138.15 26.4835 138.012 26.1471C137.882 25.8039 137.817 25.4435 137.817 25.066ZM146.176 27.8666C145.771 27.8666 145.4 27.7911 145.064 27.6401C144.734 27.4891 144.449 27.2866 144.209 27.0326C143.976 26.7786 143.794 26.4835 143.663 26.1471C143.533 25.8108 143.468 25.4573 143.468 25.0866C143.468 24.709 143.533 24.3521 143.663 24.0157C143.801 23.6794 143.986 23.3842 144.219 23.1302C144.46 22.8763 144.745 22.6738 145.074 22.5227C145.41 22.3717 145.778 22.2962 146.176 22.2962C146.574 22.2962 146.941 22.3717 147.277 22.5227C147.614 22.6738 147.899 22.8763 148.132 23.1302C148.372 23.3842 148.558 23.6794 148.688 24.0157C148.825 24.3521 148.894 24.709 148.894 25.0866C148.894 25.4573 148.829 25.8108 148.698 26.1471C148.568 26.4835 148.383 26.7786 148.142 27.0326C147.902 27.2866 147.614 27.4891 147.277 27.6401C146.948 27.7911 146.581 27.8666 146.176 27.8666ZM144.394 25.0969C144.394 25.3783 144.439 25.6392 144.528 25.8794C144.624 26.1197 144.751 26.329 144.909 26.5075C145.074 26.686 145.263 26.8267 145.476 26.9297C145.695 27.0326 145.929 27.0841 146.176 27.0841C146.423 27.0841 146.653 27.0326 146.866 26.9297C147.085 26.8267 147.277 26.686 147.442 26.5075C147.607 26.3222 147.734 26.1094 147.823 25.8691C147.919 25.622 147.967 25.3577 147.967 25.0763C147.967 24.8017 147.919 24.5443 147.823 24.304C147.734 24.0569 147.607 23.8441 147.442 23.6657C147.277 23.4803 147.085 23.3362 146.866 23.2332C146.653 23.1302 146.423 23.0788 146.176 23.0788C145.929 23.0788 145.695 23.1337 145.476 23.2435C145.263 23.3465 145.074 23.4906 144.909 23.676C144.751 23.8544 144.624 24.0672 144.528 24.3143C144.439 24.5546 144.394 24.8154 144.394 25.0969ZM154.656 27.7637H153.75V24.7571C153.75 24.1805 153.661 23.7618 153.482 23.5009C153.311 23.2401 153.047 23.1096 152.69 23.1096C152.504 23.1096 152.319 23.1474 152.134 23.2229C151.948 23.2916 151.773 23.3877 151.609 23.5112C151.444 23.6348 151.3 23.7824 151.176 23.954C151.053 24.1256 150.96 24.3143 150.898 24.5203V27.7637H149.992V22.3889H150.816V23.5421C151.028 23.1646 151.334 22.8625 151.732 22.636C152.137 22.4095 152.576 22.2962 153.05 22.2962C153.359 22.2962 153.616 22.3546 153.822 22.4713C154.028 22.5811 154.193 22.739 154.316 22.9449C154.44 23.144 154.526 23.3808 154.574 23.6554C154.629 23.9299 154.656 24.2285 154.656 24.5512V27.7637ZM157.95 27.8666C157.517 27.8666 157.092 27.8014 156.673 27.671C156.254 27.5337 155.894 27.3381 155.592 27.0841L155.983 26.4766C156.299 26.7169 156.614 26.8988 156.93 27.0223C157.246 27.139 157.579 27.1974 157.929 27.1974C158.32 27.1974 158.629 27.1219 158.856 26.9708C159.089 26.813 159.206 26.5933 159.206 26.3119C159.206 26.1814 159.175 26.0716 159.113 25.9824C159.051 25.8863 158.959 25.8039 158.835 25.7353C158.711 25.6666 158.554 25.6048 158.361 25.5499C158.169 25.495 157.946 25.4367 157.692 25.3749C157.37 25.2925 157.092 25.2136 156.858 25.1381C156.625 25.0626 156.433 24.9733 156.282 24.8704C156.131 24.7674 156.021 24.6438 155.952 24.4997C155.883 24.3555 155.849 24.1771 155.849 23.9643C155.849 23.6965 155.901 23.4597 156.004 23.2538C156.113 23.041 156.261 22.866 156.446 22.7287C156.632 22.5845 156.848 22.4781 157.095 22.4095C157.349 22.334 157.62 22.2962 157.908 22.2962C158.313 22.2962 158.691 22.3614 159.041 22.4919C159.391 22.6223 159.686 22.7939 159.926 23.0067L159.515 23.5524C159.288 23.3533 159.034 23.2057 158.753 23.1096C158.471 23.0067 158.183 22.9552 157.888 22.9552C157.558 22.9552 157.277 23.0273 157.043 23.1714C156.817 23.3087 156.704 23.5318 156.704 23.8407C156.704 23.9643 156.724 24.0672 156.765 24.1496C156.814 24.232 156.889 24.304 156.992 24.3658C157.095 24.4276 157.225 24.4825 157.383 24.5306C157.548 24.5786 157.744 24.6301 157.97 24.685C158.327 24.7674 158.636 24.8532 158.897 24.9424C159.165 25.0248 159.384 25.1243 159.556 25.241C159.734 25.3577 159.865 25.495 159.947 25.6529C160.036 25.8108 160.081 26.003 160.081 26.2295C160.081 26.7306 159.889 27.1287 159.504 27.4239C159.12 27.7191 158.602 27.8666 157.95 27.8666ZM163.532 27.8666C163.127 27.8666 162.756 27.7946 162.42 27.6504C162.083 27.4994 161.795 27.2969 161.555 27.0429C161.315 26.7889 161.126 26.4938 160.988 26.1574C160.858 25.8142 160.793 25.4538 160.793 25.0763C160.793 24.6987 160.858 24.3418 160.988 24.0054C161.126 23.6691 161.315 23.3739 161.555 23.1199C161.802 22.866 162.094 22.6669 162.43 22.5227C162.766 22.3717 163.137 22.2962 163.542 22.2962C163.947 22.2962 164.314 22.3717 164.644 22.5227C164.98 22.6738 165.265 22.8763 165.498 23.1302C165.732 23.3774 165.91 23.6691 166.034 24.0054C166.164 24.3349 166.229 24.6782 166.229 25.0351C166.229 25.1106 166.226 25.1792 166.219 25.241C166.219 25.3028 166.216 25.3509 166.209 25.3852H161.75C161.771 25.6529 161.833 25.8966 161.936 26.1162C162.039 26.3359 162.173 26.5247 162.337 26.6825C162.502 26.8404 162.687 26.964 162.893 27.0532C163.106 27.1424 163.329 27.1871 163.563 27.1871C163.727 27.1871 163.889 27.1665 164.047 27.1253C164.204 27.0772 164.352 27.0155 164.489 26.94C164.627 26.8644 164.747 26.7718 164.85 26.6619C164.959 26.5521 165.042 26.4286 165.097 26.2913L165.879 26.5075C165.79 26.7066 165.667 26.8885 165.509 27.0532C165.358 27.218 165.179 27.3621 164.973 27.4857C164.774 27.6024 164.551 27.695 164.304 27.7637C164.057 27.8323 163.799 27.8666 163.532 27.8666ZM165.375 24.7159C165.354 24.4619 165.289 24.2285 165.179 24.0157C165.076 23.7961 164.942 23.6107 164.778 23.4597C164.62 23.3087 164.434 23.192 164.222 23.1096C164.009 23.0204 163.782 22.9758 163.542 22.9758C163.302 22.9758 163.075 23.0204 162.862 23.1096C162.65 23.192 162.461 23.3121 162.296 23.47C162.138 23.621 162.008 23.8029 161.905 24.0157C161.809 24.2285 161.75 24.4619 161.73 24.7159H165.375ZM166.876 25.066C166.876 24.6884 166.941 24.3315 167.072 23.9951C167.202 23.6588 167.388 23.3671 167.628 23.1199C167.868 22.866 168.153 22.6669 168.482 22.5227C168.819 22.3717 169.193 22.2962 169.605 22.2962C170.14 22.2962 170.6 22.4163 170.985 22.6566C171.376 22.89 171.671 23.2057 171.87 23.6039L170.985 23.8819C170.847 23.6279 170.655 23.4323 170.408 23.295C170.161 23.1508 169.886 23.0788 169.584 23.0788C169.337 23.0788 169.104 23.1302 168.884 23.2332C168.664 23.3293 168.476 23.4666 168.318 23.6451C168.16 23.8235 168.033 24.0329 167.937 24.2732C167.848 24.5134 167.803 24.7777 167.803 25.066C167.803 25.3474 167.851 25.6117 167.947 25.8588C168.043 26.1059 168.17 26.3222 168.328 26.5075C168.493 26.686 168.682 26.8267 168.894 26.9297C169.114 27.0326 169.347 27.0841 169.595 27.0841C169.752 27.0841 169.907 27.0635 170.058 27.0223C170.216 26.9743 170.356 26.9125 170.48 26.837C170.61 26.7615 170.724 26.6757 170.82 26.5796C170.916 26.4766 170.985 26.3668 171.026 26.2501L171.911 26.5178C171.829 26.7169 171.712 26.8988 171.561 27.0635C171.417 27.2283 171.245 27.369 171.046 27.4857C170.847 27.6024 170.624 27.695 170.377 27.7637C170.137 27.8323 169.883 27.8666 169.615 27.8666C169.21 27.8666 168.839 27.7911 168.503 27.6401C168.167 27.4891 167.878 27.2866 167.638 27.0326C167.398 26.7786 167.209 26.4835 167.072 26.1471C166.941 25.8039 166.876 25.4435 166.876 25.066ZM175.718 27.496C175.663 27.5234 175.591 27.5577 175.502 27.5989C175.412 27.6332 175.31 27.671 175.193 27.7122C175.083 27.7465 174.959 27.774 174.822 27.7946C174.692 27.822 174.554 27.8357 174.41 27.8357C174.081 27.8357 173.796 27.7465 173.556 27.568C173.315 27.3827 173.195 27.0978 173.195 26.7134V23.0994H172.464V22.3889H173.195V20.5973H174.101V22.3889H175.306V23.0994H174.101V26.4354C174.115 26.6345 174.18 26.7786 174.297 26.8679C174.414 26.9571 174.551 27.0017 174.709 27.0017C174.887 27.0017 175.049 26.9743 175.193 26.9194C175.344 26.8576 175.447 26.8095 175.502 26.7752L175.718 27.496ZM178.866 27.8666C178.461 27.8666 178.09 27.7946 177.754 27.6504C177.418 27.4994 177.129 27.2969 176.889 27.0429C176.649 26.7889 176.46 26.4938 176.323 26.1574C176.192 25.8142 176.127 25.4538 176.127 25.0763C176.127 24.6987 176.192 24.3418 176.323 24.0054C176.46 23.6691 176.649 23.3739 176.889 23.1199C177.136 22.866 177.428 22.6669 177.764 22.5227C178.101 22.3717 178.471 22.2962 178.876 22.2962C179.281 22.2962 179.648 22.3717 179.978 22.5227C180.314 22.6738 180.599 22.8763 180.833 23.1302C181.066 23.3774 181.244 23.6691 181.368 24.0054C181.498 24.3349 181.564 24.6782 181.564 25.0351C181.564 25.1106 181.56 25.1792 181.553 25.241C181.553 25.3028 181.55 25.3509 181.543 25.3852H177.085C177.105 25.6529 177.167 25.8966 177.27 26.1162C177.373 26.3359 177.507 26.5247 177.671 26.6825C177.836 26.8404 178.022 26.964 178.227 27.0532C178.44 27.1424 178.663 27.1871 178.897 27.1871C179.062 27.1871 179.223 27.1665 179.381 27.1253C179.539 27.0772 179.686 27.0155 179.823 26.94C179.961 26.8644 180.081 26.7718 180.184 26.6619C180.294 26.5521 180.376 26.4286 180.431 26.2913L181.213 26.5075C181.124 26.7066 181.001 26.8885 180.843 27.0532C180.692 27.218 180.513 27.3621 180.307 27.4857C180.108 27.6024 179.885 27.695 179.638 27.7637C179.391 27.8323 179.134 27.8666 178.866 27.8666ZM180.709 24.7159C180.688 24.4619 180.623 24.2285 180.513 24.0157C180.41 23.7961 180.277 23.6107 180.112 23.4597C179.954 23.3087 179.769 23.192 179.556 23.1096C179.343 23.0204 179.116 22.9758 178.876 22.9758C178.636 22.9758 178.409 23.0204 178.197 23.1096C177.984 23.192 177.795 23.3121 177.63 23.47C177.472 23.621 177.342 23.8029 177.239 24.0157C177.143 24.2285 177.085 24.4619 177.064 24.7159H180.709ZM185.301 27.496C185.246 27.5234 185.174 27.5577 185.084 27.5989C184.995 27.6332 184.892 27.671 184.775 27.7122C184.666 27.7465 184.542 27.774 184.405 27.7946C184.274 27.822 184.137 27.8357 183.993 27.8357C183.663 27.8357 183.379 27.7465 183.138 27.568C182.898 27.3827 182.778 27.0978 182.778 26.7134V23.0994H182.047V22.3889H182.778V20.5973H183.684V22.3889H184.889V23.0994H183.684V26.4354C183.698 26.6345 183.763 26.7786 183.88 26.8679C183.996 26.9571 184.134 27.0017 184.291 27.0017C184.47 27.0017 184.631 26.9743 184.775 26.9194C184.926 26.8576 185.029 26.8095 185.084 26.7752L185.301 27.496ZM187.798 27.8666C187.235 27.8666 186.81 27.6779 186.521 27.3003C186.233 26.9228 186.089 26.3599 186.089 25.6117V22.3889H186.995V25.4367C186.995 26.535 187.376 27.0841 188.138 27.0841C188.509 27.0841 188.855 26.9674 189.178 26.734C189.507 26.4938 189.751 26.1677 189.909 25.7559V22.3889H190.815V26.6516C190.815 26.8644 190.911 26.9743 191.103 26.9811V27.7637C191 27.7774 190.918 27.7843 190.856 27.7843C190.801 27.7911 190.746 27.7946 190.691 27.7946C190.513 27.7946 190.362 27.7431 190.238 27.6401C190.122 27.5303 190.06 27.3964 190.053 27.2385L190.032 26.6105C189.792 27.0155 189.476 27.3278 189.085 27.5474C188.694 27.7602 188.265 27.8666 187.798 27.8666ZM195.166 23.1817C194.713 23.1955 194.312 23.3121 193.961 23.5318C193.618 23.7515 193.375 24.0569 193.23 24.4482V27.7637H192.324V22.3889H193.169V23.6348C193.354 23.2641 193.598 22.9655 193.9 22.739C194.202 22.5056 194.524 22.3752 194.868 22.3477C194.936 22.3477 194.995 22.3477 195.043 22.3477C195.091 22.3477 195.132 22.3511 195.166 22.358V23.1817ZM195.52 27.7637V26.6105H196.282V27.7637H195.52ZM197.602 27.7637V26.6105H198.364V27.7637H197.602ZM199.683 27.7637V26.6105H200.445V27.7637H199.683Z" fill="#373737"/>
<path d="M234.832 6.27085V11.8516H233.905V4.54104H234.626L239.156 10.235V4.55134H240.083V11.8516H239.301L234.832 6.27085ZM243.942 11.9545C243.537 11.9545 243.166 11.879 242.83 11.728C242.5 11.577 242.215 11.3745 241.975 11.1205C241.742 10.8665 241.56 10.5714 241.429 10.235C241.299 9.89866 241.234 9.54514 241.234 9.17447C241.234 8.79693 241.299 8.43998 241.429 8.10363C241.567 7.76728 241.752 7.47211 241.985 7.21813C242.226 6.96415 242.51 6.76165 242.84 6.61064C243.176 6.45962 243.544 6.38411 243.942 6.38411C244.34 6.38411 244.707 6.45962 245.043 6.61064C245.38 6.76165 245.665 6.96415 245.898 7.21813C246.138 7.47211 246.324 7.76728 246.454 8.10363C246.591 8.43998 246.66 8.79693 246.66 9.17447C246.66 9.54514 246.595 9.89866 246.464 10.235C246.334 10.5714 246.149 10.8665 245.908 11.1205C245.668 11.3745 245.38 11.577 245.043 11.728C244.714 11.879 244.347 11.9545 243.942 11.9545ZM242.16 9.18477C242.16 9.4662 242.205 9.72705 242.294 9.9673C242.39 10.2076 242.517 10.4169 242.675 10.5954C242.84 10.7739 243.029 10.9146 243.241 11.0175C243.461 11.1205 243.695 11.172 243.942 11.172C244.189 11.172 244.419 11.1205 244.632 11.0175C244.851 10.9146 245.043 10.7739 245.208 10.5954C245.373 10.4101 245.5 10.1973 245.589 9.957C245.685 9.70989 245.733 9.44561 245.733 9.16417C245.733 8.8896 245.685 8.63219 245.589 8.39193C245.5 8.14482 245.373 7.93202 245.208 7.75355C245.043 7.56821 244.851 7.42406 244.632 7.3211C244.419 7.21813 244.189 7.16665 243.942 7.16665C243.695 7.16665 243.461 7.22156 243.241 7.33139C243.029 7.43436 242.84 7.57851 242.675 7.76385C242.517 7.94232 242.39 8.15511 242.294 8.40223C242.205 8.64248 242.16 8.90333 242.16 9.18477ZM254.311 6.47678H255.186L252.9 11.8516H252.149L251.067 9.22595L249.997 11.8516H249.245L246.959 6.47678H247.824L249.677 10.9558L250.583 8.72142L249.657 6.48708H250.408L251.067 8.2066L251.726 6.48708H252.478L251.562 8.72142L252.468 10.9558L254.311 6.47678Z" fill="#373737"/>
<path d="M4.35234 10.3415C4.66685 10.3415 4.93269 10.2779 5.14985 10.1506C5.36702 10.0158 5.54299 9.83978 5.67778 9.62262C5.81257 9.40546 5.90618 9.15834 5.9586 8.88127C6.01851 8.59671 6.04846 8.30841 6.04846 8.01636V3.93895H7.8906V8.01636C7.8906 8.5705 7.81946 9.0872 7.67718 9.56646C7.54239 10.0457 7.32897 10.4651 7.03692 10.8245C6.75237 11.1839 6.38543 11.4685 5.93613 11.6782C5.49432 11.8804 4.96639 11.9815 4.35234 11.9815C3.71583 11.9815 3.17292 11.8729 2.72362 11.6557C2.27432 11.4386 1.90739 11.1502 1.62283 10.7908C1.34576 10.4239 1.13983 10.0008 1.00504 9.52153C0.877737 9.04227 0.814086 8.54055 0.814086 8.01636V3.93895H2.65623V8.01636C2.65623 8.32339 2.68618 8.61543 2.74609 8.8925C2.80599 9.16957 2.90334 9.41669 3.03813 9.63385C3.17292 9.85102 3.34516 10.0232 3.55483 10.1506C3.77199 10.2779 4.03783 10.3415 4.35234 10.3415ZM12.991 11.5996C12.7439 11.7044 12.4593 11.8017 12.1373 11.8916C11.8228 11.9815 11.5045 12.0264 11.1825 12.0264C10.9579 12.0264 10.7445 11.9964 10.5423 11.9365C10.3476 11.8841 10.1753 11.798 10.0256 11.6782C9.87581 11.5509 9.75599 11.3861 9.66613 11.1839C9.58376 10.9818 9.54257 10.7384 9.54257 10.4538V7.37611H8.78999V6.01697H9.54257V4.14113H11.3398V6.01697H12.5417V7.37611H11.3398V9.83604C11.3398 10.0307 11.3885 10.173 11.4858 10.2629C11.5832 10.3452 11.7067 10.3864 11.8565 10.3864C11.9913 10.3864 12.1298 10.364 12.2721 10.319C12.4144 10.2741 12.5379 10.2254 12.6428 10.173L12.991 11.5996ZM16.368 12.0264C15.8738 12.0264 15.4282 11.9478 15.0313 11.7905C14.6419 11.6258 14.3087 11.4049 14.0316 11.1278C13.7621 10.8507 13.5561 10.5325 13.4139 10.173C13.2716 9.80609 13.2004 9.42418 13.2004 9.0273C13.2004 8.60046 13.2716 8.19983 13.4139 7.82541C13.5561 7.4435 13.7621 7.11027 14.0316 6.82571C14.3012 6.54116 14.6307 6.3165 15.0201 6.15176C15.417 5.98702 15.8663 5.90464 16.368 5.90464C16.8697 5.90464 17.3153 5.98702 17.7047 6.15176C18.0941 6.3165 18.4236 6.54116 18.6932 6.82571C18.9627 7.10278 19.1649 7.42478 19.2997 7.79171C19.442 8.15864 19.5131 8.54429 19.5131 8.94867C19.5131 9.0535 19.5094 9.15834 19.5019 9.26318C19.4944 9.36053 19.4832 9.44664 19.4682 9.52153H15.11C15.1399 9.91841 15.2822 10.2217 15.5368 10.4314C15.7989 10.6336 16.0947 10.7346 16.4242 10.7346C16.6863 10.7346 16.9371 10.671 17.1768 10.5437C17.4239 10.4164 17.5886 10.2442 17.671 10.027L19.1986 10.4538C18.9665 10.9181 18.607 11.2963 18.1203 11.5883C17.6336 11.8804 17.0495 12.0264 16.368 12.0264ZM17.6148 8.4095C17.5774 8.03509 17.4426 7.73929 17.2105 7.52213C16.9783 7.30497 16.69 7.19639 16.3456 7.19639C15.9936 7.19639 15.7016 7.30871 15.4694 7.53336C15.2448 7.75053 15.1137 8.04257 15.0763 8.4095H17.6148ZM26.0113 11.9141H24.2141V8.60046C24.2141 8.21106 24.1393 7.93025 23.9895 7.75802C23.8472 7.57829 23.6563 7.48843 23.4166 7.48843C23.2893 7.48843 23.162 7.51464 23.0347 7.56706C22.9074 7.61948 22.7839 7.69436 22.664 7.79171C22.5442 7.88157 22.4356 7.99016 22.3383 8.11746C22.2484 8.24476 22.1773 8.38329 22.1249 8.53306V11.9141H20.3277V6.01697H21.9452V7.00543C22.1623 6.65348 22.4693 6.3839 22.8662 6.19669C23.2631 6.00199 23.7199 5.90464 24.2366 5.90464C24.6185 5.90464 24.9255 5.97578 25.1577 6.11806C25.3898 6.25285 25.5695 6.43257 25.6968 6.65722C25.8241 6.87439 25.9065 7.11402 25.944 7.37611C25.9889 7.6382 26.0113 7.89281 26.0113 8.13992V11.9141ZM30.9696 11.5996C30.7225 11.7044 30.438 11.8017 30.116 11.8916C29.8015 11.9815 29.4832 12.0264 29.1612 12.0264C28.9366 12.0264 28.7231 11.9964 28.5209 11.9365C28.3262 11.8841 28.154 11.798 28.0042 11.6782C27.8545 11.5509 27.7347 11.3861 27.6448 11.1839C27.5624 10.9818 27.5212 10.7384 27.5212 10.4538V7.37611H26.7687V6.01697H27.5212V4.14113H29.3185V6.01697H30.5203V7.37611H29.3185V9.83604C29.3185 10.0307 29.3671 10.173 29.4645 10.2629C29.5618 10.3452 29.6854 10.3864 29.8352 10.3864C29.9699 10.3864 30.1085 10.364 30.2508 10.319C30.393 10.2741 30.5166 10.2254 30.6214 10.173L30.9696 11.5996ZM34.3467 12.0264C33.8525 12.0264 33.4069 11.9478 33.01 11.7905C32.6206 11.6258 32.2874 11.4049 32.0103 11.1278C31.7407 10.8507 31.5348 10.5325 31.3925 10.173C31.2503 9.80609 31.1791 9.42418 31.1791 9.0273C31.1791 8.60046 31.2503 8.19983 31.3925 7.82541C31.5348 7.4435 31.7407 7.11027 32.0103 6.82571C32.2799 6.54116 32.6094 6.3165 32.9988 6.15176C33.3957 5.98702 33.845 5.90464 34.3467 5.90464C34.8484 5.90464 35.294 5.98702 35.6834 6.15176C36.0728 6.3165 36.4023 6.54116 36.6718 6.82571C36.9414 7.10278 37.1436 7.42478 37.2784 7.79171C37.4207 8.15864 37.4918 8.54429 37.4918 8.94867C37.4918 9.0535 37.4881 9.15834 37.4806 9.26318C37.4731 9.36053 37.4619 9.44664 37.4469 9.52153H33.0886C33.1186 9.91841 33.2609 10.2217 33.5155 10.4314C33.7776 10.6336 34.0734 10.7346 34.4029 10.7346C34.665 10.7346 34.9158 10.671 35.1554 10.5437C35.4026 10.4164 35.5673 10.2442 35.6497 10.027L37.1773 10.4538C36.9452 10.9181 36.5857 11.2963 36.099 11.5883C35.6122 11.8804 35.0281 12.0264 34.3467 12.0264ZM35.5935 8.4095C35.5561 8.03509 35.4213 7.73929 35.1891 7.52213C34.957 7.30497 34.6687 7.19639 34.3242 7.19639C33.9723 7.19639 33.6802 7.30871 33.4481 7.53336C33.2234 7.75053 33.0924 8.04257 33.055 8.4095H35.5935Z" fill="#373737"/>
</svg>
