<svg width="23" height="26" viewBox="0 0 23 26" fill="none" xmlns="http://www.w3.org/2000/svg">
<path d="M1 6.33333H22.3333M9 11.6667V19.6667M14.3333 11.6667V19.6667M2.33333 6.33333L3.66667 22.3333C3.66667 23.0406 3.94762 23.7189 4.44771 24.219C4.94781 24.719 5.62609 25 6.33333 25H17C17.7072 25 18.3855 24.719 18.8856 24.219C19.3857 23.7189 19.6667 23.0406 19.6667 22.3333L21 6.33333M7.66667 6.33333V2.33333C7.66667 1.97971 7.80714 1.64057 8.05719 1.39052C8.30724 1.14048 8.64638 1 9 1H14.3333C14.687 1 15.0261 1.14048 15.2761 1.39052C15.5262 1.64057 15.6667 1.97971 15.6667 2.33333V6.33333" stroke="black" stroke-linecap="round" stroke-linejoin="round"/>
</svg>
