<svg width="30" height="26" viewBox="0 0 30 26" fill="none" xmlns="http://www.w3.org/2000/svg">
<path d="M4 4L1.34095 6.7239C1.15134 6.91814 1.15134 7.2282 1.34095 7.42244L3.65905 9.79707C3.84866 9.99132 3.84866 10.3014 3.65905 10.4956L1.34095 12.8702C1.15134 13.0645 1.15134 13.3745 1.34095 13.5688L3.65905 15.9434C3.84866 16.1377 3.84866 16.4477 3.65905 16.642L1.36821 18.9887C1.16808 19.1937 1.18081 19.5246 1.3961 19.7136L4 22" stroke="black" stroke-width="2" stroke-linecap="round"/>
<path d="M26 22L28.659 19.2761C28.8487 19.0819 28.8487 18.7718 28.659 18.5776L26.341 16.2029C26.1513 16.0087 26.1513 15.6986 26.341 15.5044L28.659 13.1298C28.8487 12.9355 28.8487 12.6255 28.659 12.4312L26.341 10.0566C26.1513 9.86234 26.1513 9.55229 26.341 9.35805L28.6318 7.01134C28.8319 6.80632 28.8192 6.47539 28.6039 6.28635L26 4" stroke="black" stroke-width="2" stroke-linecap="round"/>
<path d="M20.2 25H9.8C9.45522 25 9.12456 24.842 8.88076 24.5607C8.63696 24.2794 8.5 23.8978 8.5 23.5V2.5C8.5 2.10218 8.63696 1.72064 8.88076 1.43934C9.12456 1.15804 9.45522 1 9.8 1H20.2C20.5448 1 20.8754 1.15804 21.1192 1.43934C21.363 1.72064 21.5 2.10218 21.5 2.5V23.5C21.5 23.8978 21.363 24.2794 21.1192 24.5607C20.8754 24.842 20.5448 25 20.2 25ZM17.6 1H12.4L13.05 4H16.95L17.6 1Z" stroke="black" stroke-width="2" stroke-linecap="round" stroke-linejoin="round"/>
</svg>
