<svg width="14" height="12" viewBox="0 0 14 12" fill="none" xmlns="http://www.w3.org/2000/svg">
<path d="M6 1V11L3.5 8.14286H1.625C1.45924 8.14286 1.30027 8.0676 1.18306 7.93365C1.06585 7.79969 1 7.61801 1 7.42857V4.57143C1 4.38199 1.06585 4.20031 1.18306 4.06635C1.30027 3.9324 1.45924 3.85714 1.625 3.85714H3.5L6 1Z" stroke="black" stroke-width="2" stroke-linecap="round" stroke-linejoin="round"/>
<path d="M11 1C12.2807 2.19399 13 3.81249 13 5.5C13 7.18751 12.2807 8.80601 11 10" stroke="black" stroke-width="2" stroke-linecap="round" stroke-linejoin="round"/>
<path d="M9 3C9.31699 3.32801 9.56848 3.71766 9.74008 4.14666C9.91167 4.57565 10 5.03554 10 5.5C10 5.96446 9.91167 6.42435 9.74008 6.85334C9.56848 7.28234 9.31699 7.67199 9 8" stroke="black" stroke-width="2" stroke-linecap="round" stroke-linejoin="round"/>
</svg>
