<svg width="12" height="13" viewBox="0 0 12 13" fill="none" xmlns="http://www.w3.org/2000/svg">
<path d="M6.62137 1.73633V11.5737L3.81069 8.76305H1.70267C1.51631 8.76305 1.33758 8.68901 1.20581 8.55724C1.07403 8.42546 1 8.24673 1 8.06037V5.24969C1 5.06333 1.07403 4.8846 1.20581 4.75282C1.33758 4.62105 1.51631 4.54701 1.70267 4.54701H3.81069L6.62137 1.73633Z" stroke="black" stroke-width="2" stroke-linecap="round" stroke-linejoin="round"/>
<path d="M9.81143 4.16797C10.1386 4.49433 10.3982 4.88203 10.5753 5.30887C10.7524 5.73571 10.8436 6.1933 10.8436 6.65543C10.8436 7.11755 10.7524 7.57514 10.5753 8.00198C10.3982 8.42882 10.1386 8.81652 9.81143 9.14288" stroke="black" stroke-width="2" stroke-linecap="round" stroke-linejoin="round"/>
</svg>
