<svg width="33" height="27" viewBox="0 0 33 27" fill="none" xmlns="http://www.w3.org/2000/svg">
<path d="M12.8992 25.8047H2.49922C2.15444 25.8047 1.82378 25.6467 1.57998 25.3653C1.33618 25.084 1.19922 24.7025 1.19922 24.3047V3.30469C1.19922 2.90686 1.33618 2.52533 1.57998 2.24403C1.82378 1.96272 2.15444 1.80469 2.49922 1.80469H12.8992C13.244 1.80469 13.5747 1.96272 13.8185 2.24403C14.0623 2.52533 14.1992 2.90686 14.1992 3.30469V24.3047C14.1992 24.7025 14.0623 25.084 13.8185 25.3653C13.5747 25.6467 13.244 25.8047 12.8992 25.8047ZM10.2992 1.80469H5.09922L5.74922 4.80469H9.64922L10.2992 1.80469Z" stroke="black" stroke-width="2" stroke-linecap="round" stroke-linejoin="round"/>
<path d="M18.8008 22.8047L21.4598 20.0808C21.6494 19.8865 21.6494 19.5765 21.4598 19.3822L19.1417 17.0076C18.9521 16.8134 18.9521 16.5033 19.1417 16.3091L21.4598 13.9344C21.6494 13.7402 21.6494 13.4301 21.4598 13.2359L19.1417 10.8613C18.9521 10.667 18.9521 10.357 19.1417 10.1627L21.4326 7.81603C21.6327 7.61101 21.62 7.28008 21.4047 7.09104L18.8008 4.80469" stroke="black" stroke-width="2" stroke-linecap="round"/>
<path d="M23.8008 22.8047L26.4598 20.0808C26.6494 19.8865 26.6494 19.5765 26.4598 19.3822L24.1417 17.0076C23.9521 16.8134 23.9521 16.5033 24.1417 16.3091L26.4598 13.9344C26.6494 13.7402 26.6494 13.4301 26.4598 13.2359L24.1417 10.8613C23.9521 10.667 23.9521 10.357 24.1417 10.1627L26.4326 7.81603C26.6327 7.61101 26.62 7.28008 26.4047 7.09104L23.8008 4.80469" stroke="black" stroke-width="2" stroke-linecap="round"/>
<path d="M28.8008 22.8047L31.4598 20.0808C31.6494 19.8865 31.6494 19.5765 31.4598 19.3822L29.1417 17.0076C28.9521 16.8134 28.9521 16.5033 29.1417 16.3091L31.4598 13.9344C31.6494 13.7402 31.6494 13.4301 31.4598 13.2359L29.1417 10.8613C28.9521 10.667 28.9521 10.357 29.1417 10.1627L31.4326 7.81603C31.6327 7.61101 31.62 7.28008 31.4047 7.09104L28.8008 4.80469" stroke="black" stroke-width="2" stroke-linecap="round"/>
<path d="M5.59922 25.8047H12.9992C13.344 25.8047 13.6747 25.6467 13.9185 25.3653C14.1623 25.084 14.2992 24.7025 14.2992 24.3047V3.30469C14.2992 2.90686 14.1623 2.52533 13.9185 2.24403C13.6747 1.96272 13.344 1.80469 12.9992 1.80469H5.59922M10.3992 1.80469H5.19922L5.84922 4.80469H9.74922L10.3992 1.80469Z" stroke="black" stroke-width="2" stroke-linecap="round" stroke-linejoin="round"/>
</svg>
