<svg width="29" height="29" viewBox="0 0 29 29" fill="none" xmlns="http://www.w3.org/2000/svg">
<path d="M17.7969 0C16.1481 0.00104361 14.5233 0.395384 13.0574 1.15028C11.5916 1.90518 10.327 2.99885 9.36854 4.3405C8.41012 5.68215 7.78557 7.23307 7.54674 8.8645C7.30791 10.4959 7.46169 12.1608 7.99531 13.7209L0.23375 21.4837C0.0842643 21.633 0.000185993 21.8356 0 22.0469V27.3594C0 27.5707 0.0839561 27.7734 0.233399 27.9229C0.382842 28.0723 0.585531 28.1562 0.796875 28.1562H6.10938C6.32072 28.1562 6.52341 28.0723 6.67285 27.9229C6.82229 27.7734 6.90625 27.5707 6.90625 27.3594V24.9688H9.29688C9.50822 24.9688 9.71091 24.8848 9.86035 24.7354C10.0098 24.5859 10.0938 24.3832 10.0938 24.1719V21.7812H12.4844C12.6956 21.7811 12.8982 21.697 13.0475 21.5475L14.4354 20.1609C15.8583 20.6478 17.3702 20.819 18.8659 20.6626C20.3617 20.5063 21.8054 20.0261 23.0969 19.2555C24.3884 18.4849 25.4966 17.4424 26.3446 16.2004C27.1925 14.9583 27.7599 13.5465 28.0072 12.0631C28.2545 10.5797 28.1759 9.06019 27.7768 7.61021C27.3777 6.16024 26.6677 4.81454 25.6961 3.66663C24.7245 2.51872 23.5146 1.59612 22.1505 0.962934C20.7864 0.329747 19.3008 0.00115911 17.7969 0ZM17.7969 19.125C16.6857 19.127 15.5844 18.9164 14.5523 18.5048C14.4055 18.4408 14.2428 18.4226 14.0855 18.4525C13.9282 18.4823 13.7836 18.5588 13.6704 18.6721L12.1537 20.1875H9.29688C9.08553 20.1875 8.88284 20.2715 8.7334 20.4209C8.58396 20.5703 8.5 20.773 8.5 20.9844V23.375H6.10938C5.89803 23.375 5.69534 23.459 5.5459 23.6084C5.39646 23.7578 5.3125 23.9605 5.3125 24.1719V26.5625H1.59375V22.3776L9.48414 14.4859C9.5974 14.3727 9.67394 14.228 9.70379 14.0707C9.73364 13.9134 9.71541 13.7508 9.65148 13.604C8.95731 11.8618 8.84018 9.94296 9.3173 8.1293C9.79441 6.31564 10.8406 4.70281 12.3022 3.52776C13.7638 2.35271 15.5637 1.67739 17.4375 1.60102C19.3113 1.52465 21.1602 2.05125 22.7126 3.10346C24.265 4.15567 25.439 5.67801 26.0621 7.44683C26.6852 9.21564 26.7246 11.1377 26.1745 12.9306C25.6245 14.7234 24.5139 16.2926 23.0059 17.4076C21.498 18.5225 19.6722 19.1245 17.7969 19.125ZM21.7812 7.70312C21.7812 7.9658 21.7034 8.22258 21.5574 8.44099C21.4115 8.6594 21.2041 8.82963 20.9614 8.93015C20.7187 9.03067 20.4517 9.05698 20.194 9.00573C19.9364 8.95448 19.6997 8.82799 19.514 8.64225C19.3283 8.45651 19.2018 8.21986 19.1505 7.96223C19.0993 7.7046 19.1256 7.43756 19.2261 7.19487C19.3266 6.95219 19.4968 6.74477 19.7153 6.59883C19.9337 6.45289 20.1904 6.375 20.4531 6.375C20.8054 6.375 21.1432 6.51493 21.3923 6.764C21.6413 7.01307 21.7812 7.35088 21.7812 7.70312Z" fill="black"/>
</svg>
