<svg width="24" height="25" viewBox="0 0 24 25" fill="none" xmlns="http://www.w3.org/2000/svg">
<path d="M12 18.7643L5.93486 12.6975L7.14686 11.4649L11.1429 15.4609V0.632324H12.8571V15.4609L16.8514 11.4666L18.0651 12.6975L12 18.7643ZM2.76857 24.6323C1.98 24.6323 1.32171 24.3683 0.793714 23.8403C0.264571 23.3112 0 22.6523 0 21.8638V17.71H1.71429V21.8638C1.71429 22.1266 1.824 22.3683 2.04343 22.5889C2.264 22.8083 2.50571 22.918 2.76857 22.918H21.2314C21.4943 22.918 21.736 22.8083 21.9566 22.5889C22.176 22.3683 22.2857 22.1266 22.2857 21.8638V17.71H24V21.8638C24 22.6523 23.736 23.3106 23.208 23.8386C22.6789 24.3678 22.02 24.6323 21.2314 24.6323H2.76857Z" fill="#373737"/>
</svg>
