<svg width="24" height="27" viewBox="0 0 24 27" fill="none" xmlns="http://www.w3.org/2000/svg">
<path d="M23.7573 19.8755C23.0346 18.6318 21.9608 15.1243 21.9608 10.5621C21.9608 7.92062 20.9115 5.38738 19.0437 3.51961C17.1759 1.65184 14.6427 0.602539 12.0013 0.602539C9.35985 0.602539 6.82661 1.65184 4.95884 3.51961C3.09107 5.38738 2.04176 7.92062 2.04176 10.5621C2.04176 15.1256 0.966645 18.6318 0.243942 19.8755C0.0853753 20.147 0.00123572 20.4556 1.35078e-05 20.77C-0.0012087 21.0844 0.08053 21.3936 0.236981 21.6664C0.393432 21.9391 0.61906 22.1658 0.891097 22.3235C1.16313 22.4812 1.47195 22.5643 1.78639 22.5645H7.21049C7.39657 23.7003 7.98028 24.7328 8.85738 25.4779C9.73448 26.223 10.8479 26.6321 11.9987 26.6321C13.1496 26.6321 14.263 26.223 15.1401 25.4779C16.0172 24.7328 16.6009 23.7003 16.7869 22.5645H22.2162C22.5304 22.5639 22.8389 22.4804 23.1106 22.3225C23.3822 22.1646 23.6075 21.9379 23.7637 21.6653C23.9198 21.3926 24.0013 21.0836 24 20.7694C23.9986 20.4551 23.9145 20.1468 23.7561 19.8755H23.7573ZM12.0013 25.1183C11.2542 25.118 10.529 24.8658 9.94304 24.4024C9.35705 23.939 8.9445 23.2915 8.77209 22.5645H15.2305C15.0581 23.2915 14.6455 23.939 14.0595 24.4024C13.4735 24.8658 12.7484 25.118 12.0013 25.1183ZM22.4345 20.9046C22.4135 20.9437 22.3821 20.9763 22.3438 20.9988C22.3056 21.0214 22.2618 21.0329 22.2174 21.0323H1.78639C1.74199 21.0329 1.69827 21.0214 1.65999 20.9988C1.62172 20.9763 1.59035 20.9437 1.56932 20.9046C1.54691 20.8658 1.53511 20.8218 1.53511 20.7769C1.53511 20.7321 1.54691 20.6881 1.56932 20.6493C2.53591 18.9893 3.57399 15.1192 3.57399 10.5621C3.57399 8.327 4.46187 6.18349 6.04229 4.60307C7.62271 3.02264 9.76622 2.13477 12.0013 2.13477C14.2363 2.13477 16.3798 3.02264 17.9603 4.60307C19.5407 6.18349 20.4286 8.327 20.4286 10.5621C20.4286 15.1179 21.4679 18.9829 22.4345 20.6493C22.4569 20.6881 22.4687 20.7321 22.4687 20.7769C22.4687 20.8218 22.4569 20.8658 22.4345 20.9046Z" fill="#373737"/>
</svg>
