<svg width="24" height="17" viewBox="0 0 24 17" fill="none" xmlns="http://www.w3.org/2000/svg">
<path d="M0 5.02257C0 3.8582 0.451529 2.74153 1.25526 1.9182C2.05898 1.09487 3.14907 0.632324 4.28571 0.632324H19.7143C20.8509 0.632324 21.941 1.09487 22.7447 1.9182C23.5485 2.74153 24 3.8582 24 5.02257V12.047C24 12.6235 23.8891 13.1944 23.6738 13.727C23.4584 14.2597 23.1427 14.7437 22.7447 15.1513C22.3468 15.559 21.8743 15.8824 21.3544 16.103C20.8344 16.3236 20.2771 16.4372 19.7143 16.4372H12H4.28571C3.14907 16.4372 2.05898 15.9747 1.25526 15.1513C0.451529 14.328 0 13.2113 0 12.047V5.02257ZM4.28571 2.38842C3.60373 2.38842 2.94968 2.66595 2.46744 3.15995C1.9852 3.65394 1.71429 4.32395 1.71429 5.02257V12.047C1.71429 12.7456 1.9852 13.4156 2.46744 13.9096C2.94968 14.4036 3.60373 14.6811 4.28571 14.6811H19.7143C20.3963 14.6811 21.0503 14.4036 21.5326 13.9096C22.0148 13.4156 22.2857 12.7456 22.2857 12.047V5.02257C22.2857 4.32395 22.0148 3.65394 21.5326 3.15995C21.0503 2.66595 20.3963 2.38842 19.7143 2.38842H4.28571ZM10.2857 8.53476C10.2857 8.30189 10.376 8.07856 10.5368 7.91389C10.6975 7.74922 10.9155 7.65671 11.1429 7.65671H18.8571C19.0845 7.65671 19.3025 7.74922 19.4632 7.91389C19.624 8.07856 19.7143 8.30189 19.7143 8.53476C19.7143 8.76764 19.624 8.99097 19.4632 9.15564C19.3025 9.3203 19.0845 9.41281 18.8571 9.41281H11.1429C10.9155 9.41281 10.6975 9.3203 10.5368 9.15564C10.376 8.99097 10.2857 8.76764 10.2857 8.53476ZM8.57143 8.53476C8.57143 9.23338 8.30051 9.90339 7.81827 10.3974C7.33604 10.8914 6.68198 11.1689 6 11.1689C5.31801 11.1689 4.66396 10.8914 4.18173 10.3974C3.69949 9.90339 3.42857 9.23338 3.42857 8.53476C3.42857 7.83614 3.69949 7.16614 4.18173 6.67214C4.66396 6.17814 5.31801 5.90062 6 5.90062C6.68198 5.90062 7.33604 6.17814 7.81827 6.67214C8.30051 7.16614 8.57143 7.83614 8.57143 8.53476Z" fill="black"/>
</svg>
