<svg width="24" height="23" viewBox="0 0 24 23" fill="none" xmlns="http://www.w3.org/2000/svg">
<path d="M2.15333 22.0762C1.54 22.0762 1.028 21.8695 0.617333 21.4562C0.205778 21.0419 0 20.5261 0 19.9087V6.79635C0 6.17899 0.205778 5.66362 0.617333 5.25025C1.028 4.83599 1.54 4.62885 2.15333 4.62885H8V2.77004C8 2.15267 8.20578 1.6373 8.61733 1.22393C9.028 0.80967 9.54 0.602539 10.1533 0.602539H13.8467C14.46 0.602539 14.9724 0.80967 15.384 1.22393C15.7947 1.6373 16 2.15267 16 2.77004V4.62885H21.8467C22.46 4.62885 22.972 4.83599 23.3827 5.25025C23.7942 5.66362 24 6.17899 24 6.79635V19.9087C24 20.5261 23.7947 21.0415 23.384 21.4548C22.9724 21.8691 22.46 22.0762 21.8467 22.0762H2.15333ZM2.15333 20.7341H21.8467C22.0511 20.7341 22.2391 20.6482 22.4107 20.4764C22.5813 20.3038 22.6667 20.1145 22.6667 19.9087V6.79635C22.6667 6.59057 22.5813 6.40133 22.4107 6.22864C22.2391 6.05686 22.0511 5.97096 21.8467 5.97096H2.15333C1.94889 5.97096 1.76089 6.05686 1.58933 6.22864C1.41867 6.40133 1.33333 6.59057 1.33333 6.79635V19.9087C1.33333 20.1145 1.41867 20.3038 1.58933 20.4764C1.76089 20.6482 1.94889 20.7341 2.15333 20.7341ZM9.33333 4.62885H14.6667V2.77004C14.6667 2.56425 14.5813 2.37501 14.4107 2.20233C14.2391 2.03054 14.0511 1.94464 13.8467 1.94464H10.1533C9.94889 1.94464 9.76089 2.03054 9.58933 2.20233C9.41867 2.37501 9.33333 2.56425 9.33333 2.77004V4.62885Z" fill="black"/>
</svg>
