<svg width="34" height="25" viewBox="0 0 34 25" fill="none" xmlns="http://www.w3.org/2000/svg">
<path d="M16.6892 2.71928C17.2183 2.71918 17.7461 2.77161 18.2649 2.87581C19.9041 3.18976 21.4117 3.98789 22.5928 5.16716C23.7739 6.34644 24.5744 7.85269 24.891 9.49146L25.1623 10.9002L26.571 11.1506C27.9938 11.3953 29.2721 12.1673 30.1511 13.3126C31.03 14.4579 31.4451 15.8924 31.3134 17.33C31.1818 18.7677 30.5131 20.103 29.4407 21.0696C28.3684 22.0362 26.9711 22.5632 25.5275 22.5454H7.81967C6.37607 22.5632 4.9788 22.0362 3.90643 21.0696C2.83407 20.103 2.1654 18.7677 2.03375 17.33C1.90209 15.8924 2.31712 14.4579 3.19608 13.3126C4.07505 12.1673 5.35337 11.3953 6.77619 11.1506L8.17445 10.9002L8.44575 9.49146C8.81349 7.57803 9.83896 5.85352 11.3445 4.61669C12.8501 3.37985 14.7408 2.70862 16.6892 2.71928ZM16.6892 0.632328C14.2607 0.63031 11.9074 1.47545 10.0351 3.02211C8.16267 4.56878 6.88841 6.7201 6.43184 9.10537C4.5101 9.45331 2.78789 10.5072 1.60348 12.06C0.419073 13.6129 -0.141942 15.5524 0.0306287 17.4978C0.2032 19.4431 1.09688 21.2537 2.53615 22.5738C3.97542 23.8939 5.85625 24.6281 7.80923 24.6323H25.5484C27.5013 24.6281 29.3822 23.8939 30.8214 22.5738C32.2607 21.2537 33.1544 19.4431 33.327 17.4978C33.4995 15.5524 32.9385 13.6129 31.7541 12.06C30.5697 10.5072 28.8475 9.45331 26.9257 9.10537C26.5327 7.0537 25.5329 5.16721 24.0558 3.69008C22.5787 2.21295 20.6922 1.21318 18.6405 0.820154C17.9972 0.698061 17.344 0.63519 16.6892 0.632328Z" fill="#373737"/>
<path d="M11.125 14.4294L14.8351 18.1395L22.2554 10.7192" stroke="#373737" stroke-width="1.3" stroke-linecap="round" stroke-linejoin="round"/>
</svg>
