<svg width="24" height="17" viewBox="0 0 24 17" fill="none" xmlns="http://www.w3.org/2000/svg">
<path d="M23.6935 0.30652C23.7906 0.403437 23.8677 0.518571 23.9203 0.645327C23.9729 0.772083 24 0.90797 24 1.04521C24 1.18244 23.9729 1.31833 23.9203 1.44508C23.8677 1.57184 23.7906 1.68697 23.6935 1.78389L9.08672 16.3906C8.98981 16.4878 8.87467 16.5649 8.74792 16.6175C8.62116 16.6701 8.48527 16.6972 8.34804 16.6972C8.2108 16.6972 8.07491 16.6701 7.94816 16.6175C7.8214 16.5649 7.70627 16.4878 7.60935 16.3906L0.305973 9.08727C0.110062 8.89136 0 8.62564 0 8.34858C0 8.07152 0.110062 7.80581 0.305973 7.6099C0.501884 7.41399 0.767597 7.30393 1.04466 7.30393C1.32172 7.30393 1.58743 7.41399 1.78334 7.6099L8.34804 14.1767L22.2161 0.30652C22.313 0.209358 22.4282 0.13227 22.5549 0.0796722C22.6817 0.0270744 22.8176 0 22.9548 0C23.092 0 23.2279 0.0270744 23.3547 0.0796722C23.4814 0.13227 23.5966 0.209358 23.6935 0.30652Z" fill="#373737"/>
</svg>
