<svg width="29" height="25" viewBox="0 0 29 25" fill="none" xmlns="http://www.w3.org/2000/svg">
<mask id="path-1-inside-1_1827_18248" fill="white">
<path fill-rule="evenodd" clip-rule="evenodd" d="M27.3207 12.8003C27.3207 18.8001 22.4569 23.6639 16.457 23.6639C14.905 23.6639 13.429 23.3385 12.0936 22.7521V23.9823C13.446 24.5104 14.9176 24.8003 16.457 24.8003C23.0844 24.8003 28.457 19.4277 28.457 12.8003C28.457 6.17288 23.0844 0.800293 16.457 0.800293C9.82961 0.800293 4.45703 6.17288 4.45703 12.8003C4.45703 14.3398 4.74694 15.8116 5.27513 17.1641H6.50537C5.9189 15.8285 5.59339 14.3524 5.59339 12.8003C5.59339 6.80047 10.4572 1.93666 16.457 1.93666C22.4569 1.93666 27.3207 6.80047 27.3207 12.8003Z"/>
</mask>
<path fill-rule="evenodd" clip-rule="evenodd" d="M27.3207 12.8003C27.3207 18.8001 22.4569 23.6639 16.457 23.6639C14.905 23.6639 13.429 23.3385 12.0936 22.7521V23.9823C13.446 24.5104 14.9176 24.8003 16.457 24.8003C23.0844 24.8003 28.457 19.4277 28.457 12.8003C28.457 6.17288 23.0844 0.800293 16.457 0.800293C9.82961 0.800293 4.45703 6.17288 4.45703 12.8003C4.45703 14.3398 4.74694 15.8116 5.27513 17.1641H6.50537C5.9189 15.8285 5.59339 14.3524 5.59339 12.8003C5.59339 6.80047 10.4572 1.93666 16.457 1.93666C22.4569 1.93666 27.3207 6.80047 27.3207 12.8003Z" fill="#373737"/>
<path d="M12.0936 22.7521L12.6875 21.3995L10.6163 20.49V22.7521H12.0936ZM12.0936 23.9823H10.6163V24.9913L11.5562 25.3584L12.0936 23.9823ZM5.27513 17.1641L3.89908 17.7015L4.26614 18.6413H5.27513V17.1641ZM6.50537 17.1641V18.6413H8.7675L7.85797 16.5701L6.50537 17.1641ZM16.457 25.1412C23.2727 25.1412 28.7979 19.616 28.7979 12.8003H25.8434C25.8434 17.9842 21.641 22.1867 16.457 22.1867V25.1412ZM11.4997 24.1047C13.0188 24.7717 14.6967 25.1412 16.457 25.1412V22.1867C15.1133 22.1867 13.8393 21.9052 12.6875 21.3995L11.4997 24.1047ZM10.6163 22.7521V23.9823H13.5708V22.7521H10.6163ZM11.5562 25.3584C13.0771 25.9523 14.7308 26.2776 16.457 26.2776V23.323C15.1044 23.323 13.8148 23.0686 12.6309 22.6062L11.5562 25.3584ZM16.457 26.2776C23.9003 26.2776 29.9343 20.2436 29.9343 12.8003H26.9798C26.9798 18.6118 22.2686 23.323 16.457 23.323V26.2776ZM29.9343 12.8003C29.9343 5.357 23.9003 -0.67698 16.457 -0.67698V2.27757C22.2686 2.27757 26.9798 6.98875 26.9798 12.8003H29.9343ZM16.457 -0.67698C9.01374 -0.67698 2.97976 5.357 2.97976 12.8003H5.9343C5.9343 6.98875 10.6455 2.27757 16.457 2.27757V-0.67698ZM2.97976 12.8003C2.97976 14.5266 3.30507 16.1805 3.89908 17.7015L6.65119 16.6267C6.1888 15.4427 5.9343 14.153 5.9343 12.8003H2.97976ZM5.27513 18.6413H6.50537V15.6868H5.27513V18.6413ZM4.11612 12.8003C4.11612 14.5608 4.48564 16.2388 5.15276 17.758L7.85797 16.5701C7.35215 15.4182 7.07067 14.1441 7.07067 12.8003H4.11612ZM16.457 0.459384C9.64134 0.459384 4.11612 5.9846 4.11612 12.8003H7.07067C7.07067 7.61635 11.2731 3.41393 16.457 3.41393V0.459384ZM28.7979 12.8003C28.7979 5.9846 23.2727 0.459384 16.457 0.459384V3.41393C21.641 3.41393 25.8434 7.61635 25.8434 12.8003H28.7979Z" fill="#373737" mask="url(#path-1-inside-1_1827_18248)"/>
<path d="M6.47899 18.4789L1.18359 14.5435" stroke="#373737" stroke-width="1.47727" stroke-linecap="round"/>
<path d="M5.9497 18.0957L10.1758 12.8003" stroke="#373737" stroke-width="1.47727" stroke-linecap="round"/>
<path d="M16.457 7.3457V14.9821L21.3661 17.7093" stroke="#373737" stroke-width="1.47727" stroke-linecap="round"/>
<path d="M6.63778 17.7093H6.09233L6.07955 17.6965L6.63778 17.7093Z" fill="#373737"/>
<path d="M5.54688 17.1638L6.07955 17.6965M6.07955 17.6965L6.09233 17.7093H6.63778L6.07955 17.6965Z" stroke="#373737" stroke-width="1.47727" stroke-linecap="round"/>
</svg>
