<svg width="24" height="24" viewBox="0 0 24 24" fill="none" xmlns="http://www.w3.org/2000/svg">
<path d="M13.5652 1.56522C13.5652 1.1501 13.4003 0.751977 13.1068 0.458441C12.8132 0.164906 12.4151 0 12 0C11.5849 0 11.1868 0.164906 10.8932 0.458441C10.5997 0.751977 10.4348 1.1501 10.4348 1.56522V10.4348H1.56522C1.1501 10.4348 0.751977 10.5997 0.458441 10.8932C0.164906 11.1868 0 11.5849 0 12C0 12.4151 0.164906 12.8132 0.458441 13.1068C0.751977 13.4003 1.1501 13.5652 1.56522 13.5652H10.4348V22.4348C10.4348 22.8499 10.5997 23.248 10.8932 23.5416C11.1868 23.8351 11.5849 24 12 24C12.4151 24 12.8132 23.8351 13.1068 23.5416C13.4003 23.248 13.5652 22.8499 13.5652 22.4348V13.5652H22.4348C22.8499 13.5652 23.248 13.4003 23.5416 13.1068C23.8351 12.8132 24 12.4151 24 12C24 11.5849 23.8351 11.1868 23.5416 10.8932C23.248 10.5997 22.8499 10.4348 22.4348 10.4348H13.5652V1.56522Z" fill="#373737"/>
</svg>
