<svg width="24" height="25" viewBox="0 0 24 25" fill="none" xmlns="http://www.w3.org/2000/svg">
<path fill-rule="evenodd" clip-rule="evenodd" d="M7.47327 5.63612C7.3233 5.78615 7.23904 5.98959 7.23904 6.20172C7.23904 6.41386 7.3233 6.6173 7.47327 6.76732L11.4333 10.7273C11.5833 10.8773 11.7867 10.9616 11.9989 10.9616C12.211 10.9616 12.4145 10.8773 12.5645 10.7273L16.5245 6.76732C16.6745 6.6173 16.7587 6.41386 16.7587 6.20172C16.7587 5.98959 16.6745 5.78615 16.5245 5.63612L12.5645 1.67612C12.4145 1.52615 12.211 1.44189 11.9989 1.44189C11.7867 1.44189 11.5833 1.52615 11.4333 1.67612L7.47327 5.63612ZM11.9997 9.03132L9.17087 6.20252L11.9997 3.37372L14.8269 6.20252L11.9997 9.03132ZM13.8717 12.0361C13.7217 12.1861 13.6374 12.3896 13.6374 12.6017C13.6374 12.8139 13.7217 13.0173 13.8717 13.1673L17.8317 17.1273C17.9817 17.2773 18.1851 17.3616 18.3973 17.3616C18.6094 17.3616 18.8129 17.2773 18.9629 17.1273L22.9229 13.1673C23.0728 13.0173 23.1571 12.8139 23.1571 12.6017C23.1571 12.3896 23.0728 12.1861 22.9229 12.0361L18.9629 8.07612C18.8129 7.92615 18.6094 7.84189 18.3973 7.84189C18.1851 7.84189 17.9817 7.92615 17.8317 8.07612L13.8717 12.0361ZM18.3997 15.4313L15.5709 12.6025L18.3997 9.77372L21.2285 12.6025L18.3997 15.4313ZM7.47167 19.5673C7.3217 19.4173 7.23744 19.2139 7.23744 19.0017C7.23744 18.7896 7.3217 18.5861 7.47167 18.4361L11.4317 14.4761C11.5817 14.3261 11.7851 14.2419 11.9973 14.2419C12.2094 14.2419 12.4129 14.3261 12.5629 14.4761L16.5229 18.4361C16.6728 18.5861 16.7571 18.7896 16.7571 19.0017C16.7571 19.2139 16.6728 19.4173 16.5229 19.5673L12.5629 23.5273C12.4129 23.6773 12.2094 23.7616 11.9973 23.7616C11.7851 23.7616 11.5817 23.6773 11.4317 23.5273L7.47167 19.5689V19.5673ZM9.16927 19.0025L11.9997 21.8313L14.8269 19.0025L11.9997 16.1737L9.17087 19.0025H9.16927ZM1.07487 12.0361C1.00037 12.1104 0.941264 12.1987 0.900934 12.2959C0.860604 12.3931 0.839844 12.4973 0.839844 12.6025C0.839844 12.7078 0.860604 12.8119 0.900934 12.9091C0.941264 13.0063 1.00037 13.0946 1.07487 13.1689L5.03327 17.1273C5.1833 17.2773 5.38674 17.3616 5.59887 17.3616C5.81101 17.3616 6.01445 17.2773 6.16447 17.1273L10.1245 13.1689C10.199 13.0946 10.2581 13.0063 10.2984 12.9091C10.3387 12.8119 10.3595 12.7078 10.3595 12.6025C10.3595 12.4973 10.3387 12.3931 10.2984 12.2959C10.2581 12.1987 10.199 12.1104 10.1245 12.0361L6.16447 8.07772C6.01445 7.92775 5.81101 7.84349 5.59887 7.84349C5.38674 7.84349 5.1833 7.92775 5.03327 8.07772L1.07487 12.0361ZM5.59967 15.4313L2.77087 12.6025L5.59967 9.77372L8.42687 12.6025L5.59967 15.4313Z" fill="black"/>
</svg>
