<svg width="28" height="19" viewBox="0 0 28 19" fill="none" xmlns="http://www.w3.org/2000/svg">
<path d="M13.7402 6.54068L17.735 9.54682L17.754 9.38935C17.754 7.80992 16.0483 6.52637 13.9495 6.52637L13.7402 6.54068Z" fill="#373737"/>
<path d="M13.9501 4.61774C17.4503 4.61774 20.291 6.75545 20.291 9.3894C20.291 10.0049 20.1262 10.5919 19.8408 11.131L23.5502 13.9224C25.4652 12.72 26.9743 11.1644 27.9064 9.3894C25.7062 5.19991 20.2974 2.23193 13.9502 2.23193C12.1747 2.23193 10.4754 2.4705 8.89648 2.89995L11.6357 4.95651C12.3522 4.74657 13.1321 4.61774 13.9501 4.61774Z" fill="#373737"/>
<path d="M1.26816 2.01706L4.1596 4.19293L4.73664 4.62717C2.64415 5.85825 0.989178 7.49494 0 9.38925C2.19397 13.5787 7.60906 16.5467 13.95 16.5467C15.9157 16.5467 17.7925 16.2604 19.5109 15.7403L20.0499 16.1459L23.7467 18.9325L25.3636 17.7205L2.88508 0.800293L1.26816 2.01706ZM8.28121 7.28974L10.2405 8.76418C10.1835 8.96938 10.1454 9.17453 10.1454 9.38925C10.1454 10.9687 11.8511 12.2522 13.95 12.2522C14.2353 12.2522 14.508 12.2236 14.7743 12.1807L16.7336 13.6551C15.8903 13.97 14.9519 14.1609 13.95 14.1609C10.4498 14.1609 7.60906 12.0232 7.60906 9.38925C7.60906 8.63534 7.86271 7.92913 8.28121 7.28974Z" fill="#373737"/>
</svg>
