<svg width="24" height="23" viewBox="0 0 24 23" fill="none" xmlns="http://www.w3.org/2000/svg">
<path fill-rule="evenodd" clip-rule="evenodd" d="M1.125 0.632324C0.826631 0.632324 0.540483 0.775543 0.329505 1.03048C0.118526 1.28541 0 1.63117 0 1.9917L0 4.71045C0 5.07098 0.118526 5.41674 0.329505 5.67167C0.540483 5.9266 0.826631 6.06982 1.125 6.06982C1.42337 6.06982 1.70952 5.9266 1.9205 5.67167C2.13147 5.41674 2.25 5.07098 2.25 4.71045V3.35107H6.375V19.6636H5.625C5.32663 19.6636 5.04048 19.8068 4.8295 20.0617C4.61853 20.3167 4.5 20.6624 4.5 21.0229C4.5 21.3835 4.61853 21.7292 4.8295 21.9842C5.04048 22.2391 5.32663 22.3823 5.625 22.3823H9.375C9.67337 22.3823 9.95952 22.2391 10.1705 21.9842C10.3815 21.7292 10.5 21.3835 10.5 21.0229C10.5 20.6624 10.3815 20.3167 10.1705 20.0617C9.95952 19.8068 9.67337 19.6636 9.375 19.6636H8.625V3.35107H12.75V4.71045C12.75 5.07098 12.8685 5.41674 13.0795 5.67167C13.2905 5.9266 13.5766 6.06982 13.875 6.06982C14.1734 6.06982 14.4595 5.9266 14.6705 5.67167C14.8815 5.41674 15 5.07098 15 4.71045V1.9917C15 1.63117 14.8815 1.28541 14.6705 1.03048C14.4595 0.775543 14.1734 0.632324 13.875 0.632324H1.125ZM12 11.0542C12 10.6937 12.1185 10.3479 12.3295 10.093C12.5405 9.83804 12.8266 9.69482 13.125 9.69482H22.875C23.1734 9.69482 23.4595 9.83804 23.6705 10.093C23.8815 10.3479 24 10.6937 24 11.0542C24 11.4147 23.8815 11.7605 23.6705 12.0154C23.4595 12.2704 23.1734 12.4136 22.875 12.4136H13.125C12.8266 12.4136 12.5405 12.2704 12.3295 12.0154C12.1185 11.7605 12 11.4147 12 11.0542ZM12 17.3979C12 17.0374 12.1185 16.6917 12.3295 16.4367C12.5405 16.1818 12.8266 16.0386 13.125 16.0386H22.875C23.1734 16.0386 23.4595 16.1818 23.6705 16.4367C23.8815 16.6917 24 17.0374 24 17.3979C24 17.7585 23.8815 18.1042 23.6705 18.3592C23.4595 18.6141 23.1734 18.7573 22.875 18.7573H13.125C12.8266 18.7573 12.5405 18.6141 12.3295 18.3592C12.1185 18.1042 12 17.7585 12 17.3979Z" fill="black"/>
</svg>
