<svg width="24" height="25" viewBox="0 0 24 25" fill="none" xmlns="http://www.w3.org/2000/svg">
<path d="M3.78947 0.800293H20.2105C21.2156 0.800293 22.1794 1.19954 22.8901 1.9102C23.6008 2.62087 24 3.58474 24 4.58977V21.0108C24 22.0159 23.6008 22.9797 22.8901 23.6904C22.1794 24.401 21.2156 24.8003 20.2105 24.8003H3.78947C2.78444 24.8003 1.82058 24.401 1.10991 23.6904C0.399247 22.9797 0 22.0159 0 21.0108V4.58977C0 3.58474 0.399247 2.62087 1.10991 1.9102C1.82058 1.19954 2.78444 0.800293 3.78947 0.800293ZM3.78947 2.06345C3.11945 2.06345 2.47687 2.32962 2.0031 2.80339C1.52932 3.27717 1.26316 3.91975 1.26316 4.58977V19.2298L6.68211 13.7982L9.84 16.9561L16.1558 10.6403L22.7368 17.2213V4.58977C22.7368 3.91975 22.4707 3.27717 21.9969 2.80339C21.5231 2.32962 20.8805 2.06345 20.2105 2.06345H3.78947ZM9.84 18.7498L6.68211 15.5919L1.26316 21.0108C1.26316 21.6808 1.52932 22.3234 2.0031 22.7972C2.47687 23.271 3.11945 23.5371 3.78947 23.5371H20.2105C20.8805 23.5371 21.5231 23.271 21.9969 22.7972C22.4707 22.3234 22.7368 21.6808 22.7368 21.0108V19.0024L16.1558 12.434L9.84 18.7498ZM6.94737 4.58977C7.78489 4.58977 8.58812 4.92247 9.18034 5.51469C9.77256 6.10691 10.1053 6.91014 10.1053 7.74766C10.1053 8.58519 9.77256 9.38841 9.18034 9.98063C8.58812 10.5729 7.78489 10.9056 6.94737 10.9056C6.10984 10.9056 5.30662 10.5729 4.7144 9.98063C4.12218 9.38841 3.78947 8.58519 3.78947 7.74766C3.78947 6.91014 4.12218 6.10691 4.7144 5.51469C5.30662 4.92247 6.10984 4.58977 6.94737 4.58977ZM6.94737 5.85292C6.44485 5.85292 5.96292 6.05255 5.60759 6.40788C5.25225 6.76321 5.05263 7.24515 5.05263 7.74766C5.05263 8.25018 5.25225 8.73211 5.60759 9.08744C5.96292 9.44277 6.44485 9.6424 6.94737 9.6424C7.44988 9.6424 7.93182 9.44277 8.28715 9.08744C8.64248 8.73211 8.84211 8.25018 8.84211 7.74766C8.84211 7.24515 8.64248 6.76321 8.28715 6.40788C7.93182 6.05255 7.44988 5.85292 6.94737 5.85292Z" fill="black"/>
</svg>
