<svg width="24" height="25" viewBox="0 0 24 25" fill="none" xmlns="http://www.w3.org/2000/svg">
<path d="M12.0035 0.800293C13.8162 0.801341 15.6051 1.21292 17.236 2.00415C18.8669 2.79537 20.2974 3.9457 21.4201 5.36879C22.5429 6.79189 23.3288 8.4508 23.7189 10.221C24.1089 11.9913 24.0929 13.8268 23.6721 15.59C23.2514 17.3532 22.4368 18.9982 21.2894 20.4015C20.142 21.8049 18.6917 22.9302 17.0473 23.6929C15.4029 24.4556 13.6071 24.836 11.7947 24.8055C9.98222 24.775 8.20023 24.3345 6.5824 23.5169L6.40085 23.4193L0.931769 24.7847C0.826516 24.8112 0.716772 24.8145 0.610113 24.7944C0.503454 24.7744 0.402418 24.7314 0.313978 24.6685C0.225538 24.6056 0.1518 24.5242 0.097852 24.4301C0.0439039 24.3359 0.0110304 24.2311 0.00150032 24.123V24L0.0225067 23.8755L1.3879 18.4079L1.29337 18.2278C0.606752 16.8762 0.184088 15.406 0.048014 13.8961L0.010503 13.3229L0 12.8038C0 9.62024 1.26465 6.56712 3.51573 4.31603C5.76682 2.06494 8.81995 0.800293 12.0035 0.800293ZM12.0035 2.30073C10.1706 2.30043 8.36963 2.77976 6.77942 3.69109C5.18921 4.60242 3.86516 5.91401 2.93884 7.49554C2.01253 9.07707 1.5162 10.8735 1.49918 12.7062C1.48216 14.539 1.94504 16.3443 2.84182 17.9427C2.91144 18.0671 2.94423 18.2086 2.93635 18.3509L2.91534 18.4919L1.78101 23.0247L6.31833 21.8934C6.41057 21.8706 6.50628 21.8656 6.60041 21.8784L6.73695 21.9099L6.86749 21.9684C8.26791 22.7524 9.82937 23.205 11.432 23.2915C13.0346 23.378 14.6357 23.0961 16.1124 22.4674C17.589 21.8387 18.902 20.88 19.9504 19.6648C20.9988 18.4497 21.7548 17.0104 22.1603 15.4575C22.5658 13.9047 22.6101 12.2795 22.2897 10.7069C21.9692 9.13426 21.2927 7.65598 20.312 6.38557C19.3312 5.11515 18.0724 4.08639 16.6321 3.37828C15.1918 2.67017 13.6084 2.30155 12.0035 2.30073ZM12.7537 14.3042C12.9412 14.3039 13.122 14.3737 13.2605 14.5C13.399 14.6263 13.4853 14.7999 13.5022 14.9866C13.5192 15.1733 13.4656 15.3596 13.352 15.5088C13.2385 15.658 13.0732 15.7592 12.8887 15.7926L12.7537 15.8046H8.25239C8.06491 15.805 7.8841 15.7351 7.74556 15.6088C7.60702 15.4825 7.5208 15.3089 7.50386 15.1222C7.48692 14.9355 7.5405 14.7492 7.65404 14.6C7.76759 14.4509 7.93287 14.3496 8.11735 14.3162L8.25239 14.3042H12.7537ZM15.7546 9.8029C15.942 9.80255 16.1228 9.87241 16.2614 9.99872C16.3999 10.125 16.4861 10.2986 16.5031 10.4853C16.52 10.672 16.4664 10.8583 16.3529 11.0075C16.2394 11.1567 16.0741 11.2579 15.8896 11.2913L15.7546 11.3033H8.25239C8.06491 11.3037 7.8841 11.2338 7.74556 11.1075C7.60702 10.9812 7.5208 10.8076 7.50386 10.6209C7.48692 10.4342 7.5405 10.2479 7.65404 10.0987C7.76759 9.94956 7.93287 9.8483 8.11735 9.8149L8.25239 9.8029H15.7546Z" fill="black"/>
</svg>
