<svg width="23" height="24" viewBox="0 0 23 24" fill="none" xmlns="http://www.w3.org/2000/svg">
<path d="M22.8488 21.6082C21.3888 18.9521 19.1091 16.8825 16.3765 15.7326C17.7354 14.6762 18.7391 13.2033 19.2456 11.5227C19.7521 9.84207 19.7355 8.03887 19.1984 6.36851C18.6613 4.69815 17.6307 3.24533 16.2528 2.21582C14.8748 1.18631 13.2193 0.632324 11.5208 0.632324C9.82218 0.632324 8.16667 1.18631 6.78871 2.21582C5.41076 3.24533 4.38023 4.69815 3.84309 6.36851C3.30595 8.03887 3.28945 9.84207 3.79591 11.5227C4.30237 13.2033 5.30612 14.6762 6.66497 15.7326C3.93245 16.8825 1.6527 18.9521 0.192729 21.6082C0.102264 21.759 0.0419692 21.9271 0.0154295 22.1025C-0.0111101 22.2779 -0.00335293 22.4571 0.03824 22.6294C0.079833 22.8016 0.154413 22.9634 0.257545 23.1052C0.360678 23.247 0.490258 23.3658 0.638581 23.4547C0.786905 23.5435 0.950945 23.6005 1.12095 23.6223C1.29095 23.6441 1.46345 23.6303 1.62819 23.5816C1.79292 23.5329 1.94653 23.4504 2.07989 23.3389C2.21324 23.2275 2.32362 23.0893 2.40445 22.9328C4.33398 19.4756 7.74155 17.4137 11.5208 17.4137C15.3 17.4137 18.7075 19.4767 20.6371 22.9328C20.8122 23.2248 21.0901 23.4347 21.4119 23.5182C21.7337 23.6017 22.0742 23.5522 22.3614 23.3802C22.6486 23.2082 22.8601 22.9271 22.951 22.5964C23.042 22.2658 23.0053 21.9114 22.8488 21.6082ZM5.98346 9.02467C5.98346 7.88943 6.30822 6.77969 6.91666 5.83577C7.52511 4.89185 8.38991 4.15616 9.40172 3.72172C10.4135 3.28729 11.5269 3.17362 12.601 3.39509C13.6752 3.61657 14.6618 4.16324 15.4362 4.96597C16.2106 5.7687 16.738 6.79145 16.9516 7.90487C17.1653 9.0183 17.0556 10.1724 16.6365 11.2212C16.2174 12.27 15.5077 13.1665 14.5971 13.7972C13.6865 14.4279 12.6159 14.7645 11.5208 14.7645C10.0527 14.7628 8.64524 14.1575 7.60716 13.0814C6.56909 12.0054 5.98515 10.5464 5.98346 9.02467Z" fill="#373737"/>
</svg>
