<svg width="24" height="25" viewBox="0 0 24 25" fill="none" xmlns="http://www.w3.org/2000/svg">
<path d="M12.0933 21.5696L15.3027 18.367L12.092 15.1643L11.256 16.0003L13.1 17.8443C12.0671 17.8487 11.1498 17.7274 10.348 17.4803C9.54533 17.2314 8.90178 16.8656 8.41733 16.383C7.92222 15.887 7.54933 15.3243 7.29867 14.695C7.048 14.0656 6.92267 13.4367 6.92267 12.8083C6.92267 12.4305 6.96444 12.0527 7.048 11.675C7.13156 11.2972 7.25333 10.939 7.41333 10.6003L6.51067 9.80029C6.25289 10.2705 6.06044 10.7576 5.93333 11.2616C5.80711 11.7656 5.744 12.2785 5.744 12.8003C5.744 13.5923 5.89778 14.3745 6.20533 15.147C6.51289 15.9194 6.96756 16.6096 7.56933 17.2176C8.17111 17.8283 8.96178 18.2816 9.94133 18.5776C10.9209 18.8745 11.9267 19.0256 12.9587 19.031L11.256 20.7336L12.0933 21.5696ZM17.516 15.8003C17.7738 15.3301 17.9658 14.843 18.092 14.339C18.2191 13.835 18.2827 13.3221 18.2827 12.8003C18.2827 12.011 18.1298 11.2265 17.824 10.447C17.5182 9.6674 17.0604 8.97674 16.4507 8.37496C15.8578 7.76429 15.0689 7.31185 14.084 7.01763C13.0982 6.72429 12.0924 6.57763 11.0667 6.57763L12.7693 4.86696L11.9333 4.03096L8.72267 7.23363L11.9333 10.4363L12.7693 9.60029L10.9173 7.74963C11.9449 7.74963 12.864 7.87452 13.6747 8.12429C14.4844 8.37496 15.1311 8.74296 15.6147 9.22829C16.0991 9.71274 16.468 10.2705 16.7213 10.9016C16.9756 11.5318 17.1027 12.1621 17.1027 12.7923C17.1027 13.1701 17.0613 13.5478 16.9787 13.9256C16.896 14.3034 16.7742 14.6616 16.6133 15.0003L17.516 15.8003ZM12.004 24.8003C10.3453 24.8003 8.78533 24.4856 7.324 23.8563C5.86356 23.2261 4.59289 22.371 3.512 21.291C2.43111 20.2118 1.57556 18.9425 0.945333 17.483C0.315111 16.0234 0 14.4638 0 12.8043C0 11.1456 0.314667 9.58563 0.944 8.12429C1.57422 6.66385 2.42933 5.39318 3.50933 4.31229C4.58844 3.2314 5.85778 2.37585 7.31733 1.74563C8.77689 1.1154 10.3364 0.800293 11.996 0.800293C13.6547 0.800293 15.2147 1.11496 16.676 1.74429C18.1364 2.37452 19.4071 3.22963 20.488 4.30963C21.5689 5.38874 22.4244 6.65807 23.0547 8.11763C23.6849 9.57718 24 11.1367 24 12.7963C24 14.455 23.6853 16.015 23.056 17.4763C22.4258 18.9367 21.5707 20.2074 20.4907 21.2883C19.4116 22.3692 18.1422 23.2247 16.6827 23.855C15.2231 24.4852 13.6636 24.8003 12.004 24.8003ZM12 23.467C14.9778 23.467 17.5 22.4336 19.5667 20.367C21.6333 18.3003 22.6667 15.7781 22.6667 12.8003C22.6667 9.82252 21.6333 7.30029 19.5667 5.23363C17.5 3.16696 14.9778 2.13363 12 2.13363C9.02222 2.13363 6.5 3.16696 4.43333 5.23363C2.36667 7.30029 1.33333 9.82252 1.33333 12.8003C1.33333 15.7781 2.36667 18.3003 4.43333 20.367C6.5 22.4336 9.02222 23.467 12 23.467Z" fill="black"/>
</svg>
