<svg width="24" height="25" viewBox="0 0 24 25" fill="none" xmlns="http://www.w3.org/2000/svg">
<g clip-path="url(#clip0_1827_18271)">
<path d="M12 0.800293C5.37188 0.800293 0 6.17217 0 12.8003C0 19.4284 5.37188 24.8003 12 24.8003C18.6281 24.8003 24 19.4284 24 12.8003C24 6.17217 18.6281 0.800293 12 0.800293ZM3 12.8003C3 7.82686 7.03125 3.80029 12 3.80029C13.9734 3.80029 15.7969 4.44248 17.2781 5.52061L4.72031 18.0784C3.64219 16.5972 3 14.7737 3 12.8003ZM12 21.8003C10.0266 21.8003 8.20312 21.1581 6.72187 20.08L19.2797 7.52217C20.3578 9.00811 21 10.8269 21 12.8003C21 17.7737 16.9688 21.8003 12 21.8003Z" fill="#373737"/>
</g>
<defs>
<clipPath id="clip0_1827_18271">
<rect width="24" height="24" fill="white" transform="translate(0 0.800293)"/>
</clipPath>
</defs>
</svg>
