<svg width="24" height="23" viewBox="0 0 24 23" fill="none" xmlns="http://www.w3.org/2000/svg">
<path d="M2.15333 22.1336C1.54 22.1336 1.028 21.9283 0.617333 21.5176C0.205778 21.1061 0 20.5936 0 19.9803V6.95363C0 6.34029 0.205778 5.82829 0.617333 5.41763C1.028 5.00607 1.54 4.80029 2.15333 4.80029H8V2.95363C8 2.34029 8.20578 1.82829 8.61733 1.41763C9.028 1.00607 9.54 0.800293 10.1533 0.800293H13.8467C14.46 0.800293 14.9724 1.00607 15.384 1.41763C15.7947 1.82829 16 2.34029 16 2.95363V4.80029H21.8467C22.46 4.80029 22.972 5.00607 23.3827 5.41763C23.7942 5.82829 24 6.34029 24 6.95363V19.9803C24 20.5936 23.7947 21.1056 23.384 21.5163C22.9724 21.9279 22.46 22.1336 21.8467 22.1336H2.15333ZM2.15333 20.8003H21.8467C22.0511 20.8003 22.2391 20.715 22.4107 20.5443C22.5813 20.3727 22.6667 20.1847 22.6667 19.9803V6.95363C22.6667 6.74918 22.5813 6.56118 22.4107 6.38963C22.2391 6.21896 22.0511 6.13363 21.8467 6.13363H2.15333C1.94889 6.13363 1.76089 6.21896 1.58933 6.38963C1.41867 6.56118 1.33333 6.74918 1.33333 6.95363V19.9803C1.33333 20.1847 1.41867 20.3727 1.58933 20.5443C1.76089 20.715 1.94889 20.8003 2.15333 20.8003ZM9.33333 4.80029H14.6667V2.95363C14.6667 2.74918 14.5813 2.56118 14.4107 2.38963C14.2391 2.21896 14.0511 2.13363 13.8467 2.13363H10.1533C9.94889 2.13363 9.76089 2.21896 9.58933 2.38963C9.41867 2.56118 9.33333 2.74918 9.33333 2.95363V4.80029Z" fill="black"/>
</svg>
