<svg width="36" height="25" viewBox="0 0 36 25" fill="none" xmlns="http://www.w3.org/2000/svg">
<path d="M23.8408 10.0389L15.3148 5.46744C15.2078 5.41001 15.0834 5.37703 14.9549 5.37202C14.8264 5.36701 14.6986 5.39016 14.5852 5.439C14.4717 5.48784 14.3769 5.56054 14.3108 5.64933C14.2448 5.73812 14.2099 5.83967 14.21 5.94315V15.086C14.2099 15.1895 14.2446 15.291 14.3106 15.3799C14.3766 15.4687 14.4714 15.5414 14.5848 15.5903C14.6983 15.6392 14.8261 15.6623 14.9547 15.6573C15.0833 15.6523 15.2078 15.6192 15.3148 15.5617L23.8408 10.9903C23.9383 10.9381 24.0182 10.8674 24.0735 10.7844C24.1288 10.7014 24.1577 10.6087 24.1577 10.5146C24.1577 10.4204 24.1288 10.3277 24.0735 10.2447C24.0182 10.1617 23.9383 10.091 23.8408 10.0389ZM15.631 14.0189V7.01029L22.1658 10.5146L15.631 14.0189ZM33.3935 0.800293H2.1315C1.56619 0.800293 1.02404 0.980904 0.624302 1.3024C0.224568 1.62389 0 2.05992 0 2.51458V18.5146C0 18.9692 0.224568 19.4053 0.624302 19.7268C1.02404 20.0483 1.56619 20.2289 2.1315 20.2289H33.3935C33.9588 20.2289 34.501 20.0483 34.9007 19.7268C35.3004 19.4053 35.525 18.9692 35.525 18.5146V2.51458C35.525 2.05992 35.3004 1.62389 34.9007 1.3024C34.501 0.980904 33.9588 0.800293 33.3935 0.800293ZM34.104 18.5146C34.104 18.6661 34.0291 18.8115 33.8959 18.9186C33.7627 19.0258 33.5819 19.086 33.3935 19.086H2.1315C1.94306 19.086 1.76235 19.0258 1.6291 18.9186C1.49586 18.8115 1.421 18.6661 1.421 18.5146V2.51458C1.421 2.36303 1.49586 2.21768 1.6291 2.11052C1.76235 2.00335 1.94306 1.94315 2.1315 1.94315H33.3935C33.5819 1.94315 33.7627 2.00335 33.8959 2.11052C34.0291 2.21768 34.104 2.36303 34.104 2.51458V18.5146ZM35.525 24.2289C35.525 24.3804 35.4501 24.5258 35.3169 24.6329C35.1837 24.7401 35.0029 24.8003 34.8145 24.8003H0.7105C0.522064 24.8003 0.341345 24.7401 0.208101 24.6329C0.0748562 24.5258 0 24.3804 0 24.2289C0 24.0773 0.0748562 23.932 0.208101 23.8248C0.341345 23.7176 0.522064 23.6574 0.7105 23.6574H34.8145C35.0029 23.6574 35.1837 23.7176 35.3169 23.8248C35.4501 23.932 35.525 24.0773 35.525 24.2289Z" fill="black"/>
</svg>
