<svg width="24" height="24" viewBox="0 0 24 24" fill="none" xmlns="http://www.w3.org/2000/svg">
<path d="M17.6143 15.7876C19.0668 13.8729 19.7173 11.4989 19.4358 9.1406C19.1543 6.78233 17.9615 4.61372 16.096 3.06862C14.2305 1.52352 11.83 0.715881 9.3746 0.807284C6.91923 0.898686 4.59012 1.88239 2.85325 3.56159C1.11637 5.24079 0.0998225 7.49164 0.0069698 9.86385C-0.0858829 12.236 0.751811 14.5546 2.35246 16.3558C3.95311 18.1569 6.19866 19.3077 8.63988 19.578C11.0811 19.8483 13.5379 19.2181 15.5188 17.8136H15.5173C15.5623 17.8715 15.6103 17.9266 15.6643 17.9802L21.4393 23.5594C21.7206 23.8314 22.1022 23.9842 22.5001 23.9843C22.898 23.9845 23.2796 23.8319 23.5611 23.5602C23.8426 23.2884 24.0008 22.9198 24.0009 22.5354C24.001 22.151 23.8431 21.7823 23.5618 21.5103L17.7868 15.9311C17.7332 15.8787 17.6756 15.8317 17.6143 15.7876ZM18.0013 10.2171C18.0013 11.2638 17.788 12.3002 17.3734 13.2672C16.9588 14.2342 16.3511 15.1129 15.585 15.853C14.8189 16.5931 13.9094 17.1802 12.9085 17.5807C11.9075 17.9813 10.8348 18.1874 9.75135 18.1874C8.66794 18.1874 7.59514 17.9813 6.59421 17.5807C5.59327 17.1802 4.6838 16.5931 3.91772 15.853C3.15163 15.1129 2.54394 14.2342 2.12934 13.2672C1.71474 12.3002 1.50135 11.2638 1.50135 10.2171C1.50135 8.10323 2.37054 6.07595 3.91772 4.58122C5.46489 3.08649 7.56331 2.24676 9.75135 2.24676C11.9394 2.24676 14.0378 3.08649 15.585 4.58122C17.1322 6.07595 18.0013 8.10323 18.0013 10.2171Z" fill="black"/>
</svg>
