<svg width="23" height="26" viewBox="0 0 23 26" fill="none" xmlns="http://www.w3.org/2000/svg">
<path d="M1 5.93587H22.3333M9 11.2692V19.2692M14.3333 11.2692V19.2692M2.33333 5.93587L3.66667 21.9359C3.66667 22.6431 3.94762 23.3214 4.44771 23.8215C4.94781 24.3216 5.62609 24.6025 6.33333 24.6025H17C17.7072 24.6025 18.3855 24.3216 18.8856 23.8215C19.3857 23.3214 19.6667 22.6431 19.6667 21.9359L21 5.93587M7.66667 5.93587V1.93587C7.66667 1.58225 7.80714 1.24311 8.05719 0.993063C8.30724 0.743015 8.64638 0.602539 9 0.602539H14.3333C14.687 0.602539 15.0261 0.743015 15.2761 0.993063C15.5262 1.24311 15.6667 1.58225 15.6667 1.93587V5.93587" stroke="black" stroke-linecap="round" stroke-linejoin="round"/>
</svg>
