<svg width="24" height="25" viewBox="0 0 24 25" fill="none" xmlns="http://www.w3.org/2000/svg">
<path d="M12.0373 19.7736C12.3324 19.7736 12.5813 19.6723 12.784 19.4696C12.9858 19.2652 13.0867 19.0163 13.0867 18.723C13.0867 18.4278 12.9849 18.179 12.7813 17.9763C12.5778 17.7736 12.3289 17.6723 12.0347 17.6723C11.7396 17.6723 11.4907 17.7741 11.288 17.9776C11.0853 18.1812 10.984 18.4301 10.984 18.7243C10.984 19.0194 11.0862 19.2683 11.2907 19.471C11.4933 19.6736 11.7422 19.775 12.0373 19.775M11.3493 15.359H12.636C12.6698 14.7794 12.7787 14.3083 12.9627 13.9456C13.1467 13.5838 13.5249 13.1216 14.0973 12.559C14.6929 11.9643 15.1356 11.4314 15.4253 10.9603C15.716 10.4892 15.8613 9.94429 15.8613 9.32563C15.8613 8.27496 15.4924 7.43763 14.7547 6.81363C14.016 6.18963 13.1422 5.87763 12.1333 5.87763C11.1742 5.87763 10.36 6.13807 9.69067 6.65896C9.02133 7.18074 8.53111 7.77985 8.22 8.45629L9.44667 8.96429C9.66 8.47896 9.96533 8.05007 10.3627 7.67763C10.76 7.30429 11.3333 7.11763 12.0827 7.11763C12.9476 7.11763 13.5787 7.35496 13.976 7.82963C14.3751 8.30429 14.5747 8.82607 14.5747 9.39496C14.5747 9.85718 14.4498 10.2696 14.2 10.6323C13.9511 10.9958 13.6267 11.3612 13.2267 11.7283C12.4533 12.4412 11.9467 13.0456 11.7067 13.5416C11.4684 14.0367 11.3493 14.6425 11.3493 15.359ZM12.004 24.8003C10.3453 24.8003 8.78533 24.4856 7.324 23.8563C5.86356 23.2261 4.59289 22.371 3.512 21.291C2.43111 20.2118 1.57556 18.9425 0.945333 17.483C0.315111 16.0234 0 14.4638 0 12.8043C0 11.1456 0.314667 9.58563 0.944 8.12429C1.57422 6.66385 2.42933 5.39318 3.50933 4.31229C4.58844 3.2314 5.85778 2.37585 7.31733 1.74563C8.77689 1.1154 10.3364 0.800293 11.996 0.800293C13.6547 0.800293 15.2147 1.11496 16.676 1.74429C18.1364 2.37452 19.4071 3.22963 20.488 4.30963C21.5689 5.38874 22.4244 6.65807 23.0547 8.11763C23.6849 9.57718 24 11.1367 24 12.7963C24 14.455 23.6853 16.015 23.056 17.4763C22.4258 18.9367 21.5707 20.2074 20.4907 21.2883C19.4116 22.3692 18.1422 23.2247 16.6827 23.855C15.2231 24.4852 13.6636 24.8003 12.004 24.8003ZM12 23.467C14.9778 23.467 17.5 22.4336 19.5667 20.367C21.6333 18.3003 22.6667 15.7781 22.6667 12.8003C22.6667 9.82252 21.6333 7.30029 19.5667 5.23363C17.5 3.16696 14.9778 2.13363 12 2.13363C9.02222 2.13363 6.5 3.16696 4.43333 5.23363C2.36667 7.30029 1.33333 9.82252 1.33333 12.8003C1.33333 15.7781 2.36667 18.3003 4.43333 20.367C6.5 22.4336 9.02222 23.467 12 23.467Z" fill="#373737"/>
</svg>
