<svg width="21" height="34" viewBox="0 0 21 34" fill="none" xmlns="http://www.w3.org/2000/svg">
<path d="M16.8 2.1C17.357 2.1 17.8911 2.32125 18.2849 2.71508C18.6788 3.1089 18.9 3.64305 18.9 4.2V29.4C18.9 29.957 18.6788 30.4911 18.2849 30.8849C17.8911 31.2787 17.357 31.5 16.8 31.5H4.2C3.64305 31.5 3.1089 31.2787 2.71508 30.8849C2.32125 30.4911 2.1 29.957 2.1 29.4V4.2C2.1 3.64305 2.32125 3.1089 2.71508 2.71508C3.1089 2.32125 3.64305 2.1 4.2 2.1H16.8ZM4.2 0C3.08609 0 2.0178 0.442499 1.23015 1.23015C0.442498 2.0178 0 3.08609 0 4.2V29.4C0 30.5139 0.442498 31.5822 1.23015 32.3698C2.0178 33.1575 3.08609 33.6 4.2 33.6H16.8C17.9139 33.6 18.9822 33.1575 19.7698 32.3698C20.5575 31.5822 21 30.5139 21 29.4V4.2C21 3.08609 20.5575 2.0178 19.7698 1.23015C18.9822 0.442499 17.9139 0 16.8 0L4.2 0Z" fill="black"/>
<path d="M10.5004 29.4C11.0573 29.4 11.5915 29.1787 11.9853 28.7849C12.3791 28.391 12.6004 27.8569 12.6004 27.3C12.6004 26.743 12.3791 26.2089 11.9853 25.815C11.5915 25.4212 11.0573 25.2 10.5004 25.2C9.94344 25.2 9.40929 25.4212 9.01547 25.815C8.62164 26.2089 8.40039 26.743 8.40039 27.3C8.40039 27.8569 8.62164 28.391 9.01547 28.7849C9.40929 29.1787 9.94344 29.4 10.5004 29.4Z" fill="black"/>
</svg>
